<?xml version="1.0"?>
<svg xmlns="http://www.w3.org/2000/svg" xmlns:xlink="http://www.w3.org/1999/xlink" version="1.1" id="Capa_1" x="0px" y="0px" viewBox="0 0 512 512" style="enable-background:new 0 0 512 512;" xml:space="preserve" width="512px" height="512px"><g><g>
	<g>
		<path d="M374.75,0h-237.5c-19.181,0-34.786,15.605-34.786,34.786v157.571c0,4.143,3.358,7.5,7.5,7.5c4.142,0,7.5-3.357,7.5-7.5    V80.517h277.071v45.175c0,4.143,3.358,7.5,7.5,7.5c4.142,0,7.5-3.357,7.5-7.5V34.786C409.536,15.605,393.931,0,374.75,0z     M394.536,65.517H117.464v-30.73c0-10.91,8.876-19.786,19.786-19.786h237.5c10.91,0,19.786,8.876,19.786,19.786V65.517z" data-original="#000000" class="active-path" data-old_color="#000000" fill="#E82A2A"/>
	</g>
</g><g>
	<g>
		<path d="M402.036,148.809c-4.142,0-7.5,3.357-7.5,7.5v39.188h-54.345c-4.142,0-7.5,3.357-7.5,7.5v227.625h-36.586v-95.518    c0-6.791-1.671-13.31-4.862-19.152c10.162-9.459,16.536-22.939,16.536-37.885c0-3.682-0.778-7.844-2.16-12.336    c-0.059-0.242-0.129-0.484-0.214-0.725c-0.031-0.09-0.072-0.173-0.107-0.261c-6.217-19.203-23.056-44.115-37.669-63.461    c-2.779-3.679-7.017-5.788-11.628-5.788c-4.611,0-8.849,2.109-11.627,5.788c-18.316,24.25-40.149,57.255-40.149,76.783    c0,14.945,6.373,28.424,16.534,37.883c-3.192,5.843-4.863,12.363-4.863,19.154v41.921c0,4.143,3.358,7.5,7.5,7.5    c4.142,0,7.5-3.357,7.5-7.5v-41.921c0-3.705,0.808-7.274,2.333-10.552c6.877,3.383,14.606,5.291,22.773,5.291    c8.167,0,15.895-1.908,22.772-5.29c1.524,3.277,2.332,6.845,2.332,10.551v95.518h-50.21v-22.979c0-4.143-3.358-7.5-7.5-7.5    c-4.142,0-7.5,3.357-7.5,7.5v22.979h-98.431V311.806c17.008,13.695,27.52,34.273,28.399,56.285    c-8.846,3.125-15.203,11.566-15.203,21.469c0,12.553,10.212,22.765,22.765,22.765s22.765-10.212,22.765-22.765    c0-9.942-6.409-18.411-15.311-21.505c-0.992-29.423-16.37-56.765-40.909-72.971h23.673c3.108,8.878,11.564,15.265,21.489,15.265    c12.552,0,22.765-10.212,22.765-22.765c0-12.553-10.212-22.765-22.765-22.765c-9.925,0-18.382,6.387-21.489,15.265h-26.177    v-57.108c0-4.143-3.358-7.5-7.5-7.5c-4.142,0-7.5,3.357-7.5,7.5v254.238c0,19.181,15.605,34.786,34.786,34.786H374.75    c19.181,0,34.786-15.605,34.786-34.786V156.309C409.536,152.166,406.178,148.809,402.036,148.809z M153.424,381.794    c4.282,0,7.765,3.483,7.765,7.765c0,4.282-3.483,7.765-7.765,7.765c-4.281,0-7.765-3.483-7.765-7.765    C145.659,385.277,149.142,381.794,153.424,381.794z M165.13,279.819c4.281,0,7.765,3.483,7.765,7.765    c0,4.282-3.483,7.765-7.765,7.765s-7.765-3.483-7.765-7.765C157.365,283.302,160.849,279.819,165.13,279.819z M256.001,210.777    c15.291,20.293,26.664,38.598,32.462,51.878c-27.781,7.25-48.109-1.719-59.957-10.114    C234.879,240.694,244.289,226.32,256.001,210.777z M256.001,314.842c-20.279,0.001-36.777-16.497-36.777-36.776    c0-2.993,0.977-6.979,2.814-11.763c10.686,7.108,26.273,14.089,46.273,14.089c7.526,0,15.681-0.995,24.43-3.338    c0.023,0.348,0.037,0.687,0.037,1.012C292.778,298.344,276.28,314.842,256.001,314.842z M394.535,477.214    C394.536,488.124,385.66,497,374.75,497h-237.5c-10.91,0-19.786-8.876-19.786-19.786v-31.593h277.071V477.214z M394.536,430.622    h-46.845v-4.436h13.279c4.142,0,7.5-3.357,7.5-7.5s-3.358-7.5-7.5-7.5h-13.279v-10.824h13.279c4.142,0,7.5-3.357,7.5-7.5    s-3.358-7.5-7.5-7.5h-13.279v-10.824h13.279c4.142,0,7.5-3.357,7.5-7.5s-3.358-7.5-7.5-7.5h-13.279v-10.823h23.422    c4.142,0,7.5-3.357,7.5-7.5s-3.358-7.5-7.5-7.5h-23.422V322.89h13.279c4.142,0,7.5-3.357,7.5-7.5s-3.358-7.5-7.5-7.5h-13.279    v-10.824h13.279c4.142,0,7.5-3.357,7.5-7.5s-3.358-7.5-7.5-7.5h-13.279v-10.823h13.279c4.142,0,7.5-3.357,7.5-7.5    s-3.358-7.5-7.5-7.5h-13.279v-10.824h23.422c4.142,0,7.5-3.357,7.5-7.5s-3.358-7.5-7.5-7.5h-23.422v-19.922h46.845V430.622z" data-original="#000000" class="active-path" data-old_color="#000000" fill="#E82A2A"/>
	</g>
</g><g>
	<g>
		<path d="M221.117,136.496c-4.142,0-7.5,3.357-7.5,7.5v1.518c0,4.143,3.358,7.5,7.5,7.5c4.142,0,7.5-3.358,7.5-7.5v-1.518    C228.617,139.853,225.259,136.496,221.117,136.496z" data-original="#000000" class="active-path" data-old_color="#000000" fill="#E82A2A"/>
	</g>
</g><g>
	<g>
		<path d="M256,136.496c-4.142,0-7.5,3.357-7.5,7.5v1.518c0,4.143,3.358,7.5,7.5,7.5c4.142,0,7.5-3.358,7.5-7.5v-1.518    C263.5,139.853,260.142,136.496,256,136.496z" data-original="#000000" class="active-path" data-old_color="#000000" fill="#E82A2A"/>
	</g>
</g><g>
	<g>
		<path d="M290.883,136.496c-4.142,0-7.5,3.357-7.5,7.5v1.518c0,4.143,3.358,7.5,7.5,7.5c4.142,0,7.5-3.358,7.5-7.5v-1.518    C298.383,139.853,295.025,136.496,290.883,136.496z" data-original="#000000" class="active-path" data-old_color="#000000" fill="#E82A2A"/>
	</g>
</g><g>
	<g>
		<path d="M266.793,32.759H190.86c-4.142,0-7.5,3.357-7.5,7.5s3.358,7.5,7.5,7.5h75.933c4.142,0,7.5-3.357,7.5-7.5    S270.936,32.759,266.793,32.759z" data-original="#000000" class="active-path" data-old_color="#000000" fill="#E82A2A"/>
	</g>
</g><g>
	<g>
		<path d="M321.14,32c-4.142,0-7.5,3.357-7.5,7.5v1.518c0,4.143,3.358,7.5,7.5,7.5c4.142,0,7.5-3.357,7.5-7.5V39.5    C328.64,35.357,325.282,32,321.14,32z" data-original="#000000" class="active-path" data-old_color="#000000" fill="#E82A2A"/>
	</g>
</g><g>
	<g>
		<path d="M300.278,32c-4.142,0-7.5,3.357-7.5,7.5v1.518c0,4.143,3.358,7.5,7.5,7.5c4.142,0,7.5-3.357,7.5-7.5V39.5    C307.778,35.357,304.42,32,300.278,32z" data-original="#000000" class="active-path" data-old_color="#000000" fill="#E82A2A"/>
	</g>
</g><g>
	<g>
		<path d="M277.481,463.811h-42.963c-4.142,0-7.5,3.357-7.5,7.5s3.358,7.5,7.5,7.5h42.963c4.142,0,7.5-3.357,7.5-7.5    S281.624,463.811,277.481,463.811z" data-original="#000000" class="active-path" data-old_color="#000000" fill="#E82A2A"/>
	</g>
</g></g> </svg>
