<?xml version="1.0" encoding="utf-8"?>
<!-- Generator: Adobe Illustrator 23.0.2, SVG Export Plug-In . SVG Version: 6.00 Build 0)  -->
<svg version="1.1" id="Capa_1" xmlns="http://www.w3.org/2000/svg" xmlns:xlink="http://www.w3.org/1999/xlink" x="0px" y="0px"
	 viewBox="0 0 512 512" style="enable-background:new 0 0 512 512;" xml:space="preserve">
<g>
	<g>
		<g>
			<path d="M488,8H24C10.7,8,0,18.7,0,32v352c0,4.4,3.6,8,8,8h182.2l-12.8,64H160c-4.4,0-8,3.6-8,8v24h-16v16h240v-16h-16v-24
				c0-4.4-3.6-8-8-8h-17.5l-12.8-64H504c4.4,0,8-3.6,8-8V32C512,18.7,501.3,8,488,8z M328,472h16v16H168v-16h16H328z M193.8,456
				l12.8-64h98.9l12.8,64H193.8z M496,376H16v-72h112h48h48h48h48h64h112V376z M384,80h-64c-4.4,0-8,3.6-8,8v72h16V96h48v32h-32v16
				h32v40h-32v16h32v40h-32v16h32v32h-48v-64h-16v64h-32v-40c0-32.6,39.6-39.8,41.3-40.1c1-0.2,1.9-0.5,2.8-1c3.8-2.3,5-7.2,2.8-11
				l-72-120c-0.6-0.8-1.3-1.6-2.2-2.2c-3.8-2.6-9-1.6-11.6,2.2l-72,120c-0.5,0.9-0.9,1.8-1,2.8c-0.7,4.4,2.2,8.5,6.5,9.2
				c1.7,0.3,41.3,7.5,41.3,40.1v40h-32v-64h-16v64h-8V144h8v16h16v-24c0-1.1-0.2-2.2-0.6-3.2l-24-56c-0.8-1.9-2.3-3.4-4.2-4.2
				c-4.1-1.7-8.8,0.1-10.5,4.2l-24,56c-0.4,1-0.7,2.1-0.6,3.2v152H56V64h400v224h-64V88C392,83.6,388.4,80,384,80z M232,264v-8h32v8
				H232z M264,280v8h-32v-8H264z M231.4,240c-3.8-25.4-25.6-39.2-43-45.1l51.6-86V176h16v-67.1l51.6,86c-17.4,5.8-39.2,19.6-43,45.1
				L231.4,240L231.4,240z M140.1,128l11.9-27.7l11.9,27.7H140.1z M144,144v144h-8V144H144z M496,288h-24V56c0-4.4-3.6-8-8-8H48
				c-4.4,0-8,3.6-8,8v232H16V32c0-4.4,3.6-8,8-8h464c4.4,0,8,3.6,8,8V288z"/>
		</g>
	</g>
	<g>
		<g>
			<path d="M256,312c-13.3,0-24,10.7-24,24s10.7,24,24,24s24-10.7,24-24S269.3,312,256,312z M256,344c-4.4,0-8-3.6-8-8s3.6-8,8-8
				s8,3.6,8,8S260.4,344,256,344z"/>
		</g>
	</g>
</g>
</svg>
