<svg id="Layer_1" data-name="Layer 1" xmlns="http://www.w3.org/2000/svg" viewBox="0 0 150 150"><defs><style>.cls-1{fill:#fff;}</style></defs><path d="M32.17,61.2a43.2,43.2,0,1,1,42.76,43.21A43.17,43.17,0,0,1,32.17,61.2Zm3.29,0,.09,2.2a36.45,36.45,0,0,0,.7,5.61A39.59,39.59,0,0,0,47.82,89.82a40,40,0,0,0,24.71,10.86,42.14,42.14,0,0,0,5.15,0,40.6,40.6,0,0,0,5.61-.72,39.85,39.85,0,0,0,30.15-27,39,39,0,0,0,1.74-9.51,36.65,36.65,0,0,0,0-4.06c-.06-1.33-.18-2.66-.37-4a38.63,38.63,0,0,0-1.74-7.09A39.87,39.87,0,0,0,90.26,24.5a39.78,39.78,0,0,0-16.17-2.83,39.12,39.12,0,0,0-8.34,1.13,39.64,39.64,0,0,0-19.13,11,39.38,39.38,0,0,0-11.16,27.4Z"/><path class="cls-1" d="M35.46,61.19a39.38,39.38,0,0,1,11.16-27.4,39.64,39.64,0,0,1,19.13-11,39.12,39.12,0,0,1,8.34-1.13,39.88,39.88,0,0,1,39,26.69,38.63,38.63,0,0,1,1.74,7.09c.19,1.32.31,2.65.37,4a36.65,36.65,0,0,1,0,4.06A39.22,39.22,0,0,1,104.67,88a39.94,39.94,0,0,1-21.38,12,40.6,40.6,0,0,1-5.61.72,42.14,42.14,0,0,1-5.15,0A40,40,0,0,1,47.82,89.82,39.59,39.59,0,0,1,36.25,69a36.45,36.45,0,0,1-.7-5.61Zm39.89,39a39.52,39.52,0,0,0,12.24-1.92,39,39,0,0,0,16.54-10.48A38.79,38.79,0,0,0,114.69,62.5a39.31,39.31,0,0,0-.31-6.32,38,38,0,0,0-1.6-7.06,38.69,38.69,0,0,0-10.1-16A39.46,39.46,0,0,0,76,22.18a42,42,0,0,0-4.2.17,37.26,37.26,0,0,0-5.84,1A39.06,39.06,0,0,0,48,33.21,38.81,38.81,0,0,0,36.06,59.4a39.13,39.13,0,0,0,22.22,37A39.27,39.27,0,0,0,75.35,100.23Z"/><path d="M75.35,100.23A39.28,39.28,0,0,1,48.22,89.46,38.82,38.82,0,0,1,36.06,59.4,38.81,38.81,0,0,1,48,33.21a39.06,39.06,0,0,1,17.95-9.89,37.26,37.26,0,0,1,5.84-1,42,42,0,0,1,4.2-.17,39.46,39.46,0,0,1,26.73,10.94,38.69,38.69,0,0,1,10.1,16,38,38,0,0,1,1.6,7.06,39.31,39.31,0,0,1,.31,6.32,38.79,38.79,0,0,1-10.56,25.33,39.35,39.35,0,0,1-23,12A39.51,39.51,0,0,1,75.35,100.23ZM95.74,77.58c.25-.51.5-1,.77-1.52a1.43,1.43,0,0,0,.17-.71q0-5.11,0-10.24a1.61,1.61,0,0,1,.06-.49c.46-1.39.92-2.77,1.4-4.14,1-2.84,2-5.68,3-8.51.12-.35.24-.7.37-1,.3,0,.57,0,.84,0a1,1,0,0,0,.87-.37l1.78-2a1.35,1.35,0,0,0,.41-1.44c-.21-2.1-.48-4.2-.49-6.32,0,0,0-.06,0-.09s0-.06-.08-.07a19.87,19.87,0,0,1-2.2-1.34c-2.29-1.53-4.6-3-6.9-4.55L90.4,31.29c-.12-.08-.25-.15-.4-.23a5.2,5.2,0,0,0-.3.47c-.53,1-1.06,2-1.58,3-1,2-2,3.94-3,5.9-.59,1.15-1.22,2.27-1.83,3.4-.24.45-.48.9-.71,1.35a.4.4,0,0,1-.4.24c-.32,0-.63,0-1,0l-3.32.11c-1,0-1.94.11-2.91.09-2.1,0-4.2-.15-6.3-.21a.51.51,0,0,1-.52-.32c-.77-1.43-1.56-2.85-2.31-4.29-1.15-2.22-2.28-4.44-3.42-6.66-.46-.91-.94-1.81-1.41-2.71-.08-.14-.18-.27-.28-.42a4.87,4.87,0,0,0-.47.28L49.38,38.49c-.66.44-1.3.89-2,1.32-.44.27-.89.52-1.35.76a.33.33,0,0,0-.21.34,6,6,0,0,1,0,.85c-.17,1.86-.33,3.71-.54,5.57a1.24,1.24,0,0,0,.26,1c.09.11.17.22.26.32.54.62,1.1,1.23,1.64,1.86a1.19,1.19,0,0,0,1,.45c.26,0,.52,0,.77,0,.23.65.44,1.27.65,1.89q2,5.86,4,11.72a2.12,2.12,0,0,1,.11.66V75.33a1.5,1.5,0,0,0,.17.75c.21.39.39.81.61,1.2a.51.51,0,0,1,0,.59c-.57,1-1.12,2-1.68,2.94-.37.66-.37.66,0,1.31l4,7.48c.26.48.55.94.81,1.42a.53.53,0,0,0,.54.31c.34,0,.68,0,1,0h17.6l6.64,0h7.36l1.15,0a.41.41,0,0,0,.39-.22c.1-.19.23-.36.33-.55L97.63,82c.31-.58.3-.59,0-1.16C97,79.79,96.38,78.7,95.74,77.58Z"/><path class="cls-1" d="M95.74,77.58c.64,1.12,1.26,2.21,1.87,3.3.32.57.33.58,0,1.16L93,90.56c-.1.19-.23.36-.33.55a.41.41,0,0,1-.39.22l-1.15,0H83.78l-6.64,0H59.54c-.34,0-.68,0-1,0A.53.53,0,0,1,58,91c-.26-.48-.55-.94-.81-1.42l-4-7.48c-.35-.65-.35-.65,0-1.31.56-1,1.11-2,1.68-2.94a.51.51,0,0,0,0-.59c-.22-.39-.4-.81-.61-1.2a1.5,1.5,0,0,1-.17-.75V65.19a2.12,2.12,0,0,0-.11-.66q-2-5.87-4-11.72c-.21-.62-.42-1.24-.65-1.89-.25,0-.51,0-.77,0a1.19,1.19,0,0,1-1-.45c-.54-.63-1.1-1.24-1.64-1.86-.09-.1-.17-.21-.26-.32a1.24,1.24,0,0,1-.26-1c.21-1.86.37-3.71.54-5.57a6,6,0,0,0,0-.85.33.33,0,0,1,.21-.34c.46-.24.91-.49,1.35-.76.67-.43,1.31-.88,2-1.32l10.87-7.15a4.87,4.87,0,0,1,.47-.28c.1.15.2.28.28.42.47.9,1,1.8,1.41,2.71,1.14,2.22,2.27,4.44,3.42,6.66.75,1.44,1.54,2.86,2.31,4.29a.51.51,0,0,0,.52.32c2.1.06,4.2.17,6.3.21,1,0,1.94-.05,2.91-.09l3.32-.11c.32,0,.63,0,1,0a.4.4,0,0,0,.4-.24c.23-.45.47-.9.71-1.35.61-1.13,1.24-2.25,1.83-3.4,1-2,2-3.93,3-5.9.52-1,1-2,1.58-3a5.2,5.2,0,0,1,.3-.47c.15.08.28.15.4.23l5.27,3.45c2.3,1.52,4.61,3,6.9,4.55a19.87,19.87,0,0,0,2.2,1.34s0,0,.08.07,0,.06,0,.09c0,2.12.28,4.22.49,6.32a1.35,1.35,0,0,1-.41,1.44l-1.78,2a1,1,0,0,1-.87.37c-.27,0-.54,0-.84,0-.13.35-.25.7-.37,1-1,2.83-2,5.67-3,8.51-.48,1.37-.94,2.75-1.4,4.14a1.61,1.61,0,0,0-.06.49q0,5.13,0,10.24a1.43,1.43,0,0,1-.17.71C96.24,76.56,96,77.07,95.74,77.58ZM75.19,46.42v.39c0,1.85,0,3.71,0,5.56,0,1.23,0,2.46,0,3.69,0,1.43,0,2.85,0,4.28,0,.33,0,.66,0,1h.19a26.58,26.58,0,0,1,3.22.07,1.59,1.59,0,0,1,1.44.6c1.41,1.34,2.81,2.68,4.2,4,1.12,1.1,2.2,2.24,3.31,3.35s2.12,2.32,3.15,3.51l.25.28.12-.21,4.1-8a.9.9,0,0,0,.1-.39c.05-1,.09-2.07.14-3.11a24.78,24.78,0,0,0-.16-4.13c-.16-1.2-.35-2.41-.54-3.61A11.09,11.09,0,0,0,94.09,51a6.72,6.72,0,0,0-3.92-3.81,13,13,0,0,0-3-.71,39.72,39.72,0,0,0-4.87-.25c-.85,0-1.7,0-2.54,0ZM71.62,64l-1.38-.22a1.57,1.57,0,0,0-1.64.62,1,1,0,0,1-.14.15l-4,4.22-3.75,4a2,2,0,0,0-.57,1.13c-.09.66-.19,1.32-.25,2-.19,1.91-.36,3.82-.53,5.73a7.7,7.7,0,0,0,.09,2.09c.26,1.46.54,2.91.79,4.37a.53.53,0,0,0,.46.5c1.26.32,2.51.66,3.76,1a1.33,1.33,0,0,0,1.07-.14c.75-.41,1.51-.82,2.27-1.21a4.31,4.31,0,0,0,1.68-1.43C71.33,84.14,73.15,81.56,75,79a.6.6,0,0,0,.11-.34c0-1.24-.11-2.48-.15-3.72a2.37,2.37,0,0,0-.75-1.69,13,13,0,0,1-1-1.09c-.91-1.11-1.8-2.23-2.7-3.35-.16-.2-.3-.42-.45-.64a.51.51,0,0,1,0-.57c.12-.23.22-.47.33-.7.38-.81.77-1.61,1.15-2.42C71.52,64.31,71.55,64.15,71.62,64Zm7.47,0c.1.25.17.48.27.69.41.88.83,1.75,1.25,2.63.3.64.32.66-.12,1.21Q79,70.43,77.41,72.32c-.3.37-.65.7-1,1a2.09,2.09,0,0,0-.58,1.13c0,.2,0,.41-.06.61,0,1.15-.09,2.3-.14,3.45a.76.76,0,0,0,.15.5l3.12,4.43c.82,1.17,1.64,2.33,2.47,3.49a2.87,2.87,0,0,0,.93.87l3,1.61a.94.94,0,0,0,.75.07l.92-.23,3.1-.85c.17,0,.27-.1.3-.3.17-1,.36-2,.54-3,.12-.67.25-1.33.34-2a13.5,13.5,0,0,0-.09-3c-.11-1.35-.25-2.69-.39-4-.07-.73-.16-1.46-.26-2.19A2,2,0,0,0,90,72.71c-.8-.85-1.59-1.7-2.39-2.54L83,65.32c-.38-.4-.75-.82-1.13-1.22a1.05,1.05,0,0,0-.76-.39A11,11,0,0,0,79.09,64ZM91.16,32.85c0,.14,0,.19,0,.25q1.58,5.68,3.14,11.39a1,1,0,0,0,.23.44c1.25,1.47,2.51,2.93,3.77,4.4a.48.48,0,0,0,.37.19l3.41.23a.36.36,0,0,0,.35-.15c.57-.76,1.16-1.51,1.74-2.25a.45.45,0,0,0,.11-.38c0-.28,0-.56-.08-.84-.15-1.5-.31-3-.44-4.52a.6.6,0,0,0-.31-.51c-.65-.42-1.29-.86-1.94-1.3l-9.89-6.61ZM90,32.18c0,.07-.09.1-.11.14l-6.68,13a0,0,0,0,0,0,0l0,0h.22c.94,0,1.87.07,2.81.09.37,0,.74,0,1.11,0a.44.44,0,0,0,.42-.29c.11-.23.25-.45.36-.69l2-4.35,1-2.27a1.2,1.2,0,0,0,.09-.79c-.39-1.5-.77-3-1.15-4.5A2.76,2.76,0,0,0,90,32.18Zm-29.12,0h-.09a5.14,5.14,0,0,0-.2.55c-.33,1.25-.67,2.51-1,3.77-.25,1-.33.79.19,1.94C60.47,40,61.21,41.6,62,43.16c.33.69.68,1.38,1,2.07a.42.42,0,0,0,.41.28c.37,0,.74,0,1.12,0l2.8-.1.28,0ZM75.35,72.55l.12-.1,3.66-4.22a.43.43,0,0,0,.11-.37,7.74,7.74,0,0,0-.73-2.53,2.33,2.33,0,0,0-1.39-1.2,5.9,5.9,0,0,0-3-.15A2.65,2.65,0,0,0,72,65.81a9.83,9.83,0,0,0-.5,2,.51.51,0,0,0,.13.46c.42.47.83.95,1.24,1.43ZM88.12,45.74l.35.08c.63.16,1.28.28,1.9.49a6.82,6.82,0,0,1,4.07,3.45A12.45,12.45,0,0,1,95.52,53c0,.18.08.37.13.57,0,0,.06-.05.06-.07.4-1.3.8-2.59,1.19-3.88a.57.57,0,0,0-.08-.49,7.37,7.37,0,0,0-.48-.66c-.71-.84-1.43-1.68-2.17-2.5a3.34,3.34,0,0,1-.83-1.56c-.35-1.47-.72-2.94-1.08-4.4-.11-.44-.23-.88-.37-1.31-.09-.28-.34-.31-.55-.09a1.69,1.69,0,0,0-.21.31c-.13.26-.25.52-.37.79L88.3,45.28C88.24,45.43,88.18,45.57,88.12,45.74ZM54.94,53.25c0-.16.07-.24.09-.33a13.8,13.8,0,0,1,.87-2.66,6.85,6.85,0,0,1,4-3.78c.65-.25,1.34-.4,2-.59.23-.06.47-.1.74-.15-.09-.22-.16-.4-.24-.57-.31-.69-.61-1.39-.92-2.08-.6-1.37-1.21-2.75-1.82-4.12a1.63,1.63,0,0,0-.24-.4.31.31,0,0,0-.56.09,3.88,3.88,0,0,0-.14.45c-.14.54-.28,1.08-.41,1.61-.34,1.35-.68,2.7-1,4a2.09,2.09,0,0,1-.5.91c-.64.73-1.28,1.46-1.91,2.2-.3.35-.59.72-.87,1.08a.82.82,0,0,0-.13.8c.28.88.54,1.77.8,2.66Zm0,11.82a1.44,1.44,0,0,0-.17.3,2.42,2.42,0,0,0,0,.47,17,17,0,0,0,.37,3.33,14,14,0,0,1,.23,2.42c0,1.41,0,2.82.07,4.23a.83.83,0,0,0,.1.38q1.31,2.33,2.63,4.63c0,.07.1.14.17.24,0-.15,0-.25.06-.35.1-1,.19-2,.29-3.07.12-1.31.25-2.63.39-3.94a1.38,1.38,0,0,0-.13-.75c-1.11-2.22-2.21-4.45-3.32-6.67C55.37,65.91,55.16,65.53,54.92,65.07Zm40.88.23h-.11c-.06.11-.13.23-.18.34-.45.89-.91,1.77-1.35,2.66-.75,1.51-1.48,3-2.25,4.53a1.8,1.8,0,0,0-.17,1.07l.6,6.3c0,.28.07.55.1.82a.77.77,0,0,0,.25-.3l2.52-4.42a1.26,1.26,0,0,0,.17-.6c0-1.3,0-2.6.05-3.9,0-.51,0-1,0-1.52s.19-1.14.28-1.71A12.92,12.92,0,0,0,95.92,66C95.9,65.76,95.84,65.53,95.8,65.3ZM100.9,51c-.27,0-.49-.06-.71-.07a9,9,0,0,0-1.16,0,1.27,1.27,0,0,1-1.26-.52.72.72,0,0,0-.5-.31c-.07.17-.16.33-.22.49-.4,1.15-.8,2.31-1.19,3.46a1.52,1.52,0,0,0,0,.56,48.55,48.55,0,0,1,.37,5.64c0,1,0,1.93,0,2.89a1,1,0,0,0,.13.57c.18,0,.21-.11.25-.23s.16-.54.25-.81l3.88-11.13C100.77,51.38,100.82,51.21,100.9,51ZM54.22,63.63h.05a1.1,1.1,0,0,0,0-.18c0-1.2,0-2.4,0-3.59a41.85,41.85,0,0,1,.46-5.7.91.91,0,0,0,0-.4c-.36-1.06-.73-2.11-1.09-3.17-.06-.16-.15-.32-.24-.52a2.41,2.41,0,0,0-.31.2,2.15,2.15,0,0,0-.35.32.77.77,0,0,1-.78.34c-.49,0-1,0-1.46,0a1.28,1.28,0,0,0-.68.12ZM75.37,79.9a.48.48,0,0,0-.1.12c-.42.62-.82,1.24-1.25,1.85l-2.74,3.95a2.71,2.71,0,0,0-.23.37c2.9.12,5.73.13,8.63,0C78.28,84,76.73,82,75.37,79.9Zm-7.5-19.24H68A3.5,3.5,0,0,0,68,60.2l.06-3.11a2.55,2.55,0,0,0-1.31-2.33,5.74,5.74,0,0,0-6.29.14,4.42,4.42,0,0,0-1.92,3.18,4.83,4.83,0,0,0,0,.86l.21-.24c.31-.36.61-.73.94-1.06a3.67,3.67,0,0,1,2.22-1.13,11,11,0,0,1,2.07,0,3.62,3.62,0,0,1,2.14.91,4.88,4.88,0,0,1,1.42,2.27C67.68,60,67.77,60.34,67.87,60.66Zm-8.39-1.52a1.27,1.27,0,0,0-.41,1.16c0,.13,0,.27,0,.4a11.82,11.82,0,0,0,.69,3.06,4.82,4.82,0,0,0,.78,1.38,1.64,1.64,0,0,0,1.19.64,5.69,5.69,0,0,0,3-.6,2.72,2.72,0,0,0,1.17-1.13,3.83,3.83,0,0,1,.53-.78c.36-.37.76-.7,1.14-1.06.09-.08.22-.17.24-.27a1.54,1.54,0,0,0-.23-1.06,1.33,1.33,0,0,0-.24.12l-.36.3a4.86,4.86,0,0,1-5.12.93h0c-.43-.27-.88-.51-1.29-.81a2.48,2.48,0,0,1-1-1.78C59.54,59.48,59.51,59.34,59.48,59.14Zm21.13,4a.49.49,0,0,0-.1-.13c-.42-.3-.83-.61-1.26-.9a.58.58,0,0,0-.32-.07H71.82a.79.79,0,0,0-.38.09c-.38.25-.75.52-1.11.78a2.91,2.91,0,0,0-.25.25l1.28.23a3.06,3.06,0,0,0,1.41-.06A8.39,8.39,0,0,1,74.09,63a9.24,9.24,0,0,1,3.91.3,2.75,2.75,0,0,0,1.24.08l1-.19ZM58.7,59.69,59,59.4c.12-.15.21-.32.34-.46a.32.32,0,0,0,0-.47,2.09,2.09,0,0,0-.56.55A.57.57,0,0,0,58.7,59.69Z"/><path d="M75.19,46.42l4.62-.12c.84,0,1.69,0,2.54,0a39.72,39.72,0,0,1,4.87.25,13,13,0,0,1,3,.71A6.72,6.72,0,0,1,94.09,51a11.09,11.09,0,0,1,.73,2.71c.19,1.2.38,2.41.54,3.61a24.78,24.78,0,0,1,.16,4.13c0,1-.09,2.08-.14,3.11a.9.9,0,0,1-.1.39l-4.1,8-.12.21-.25-.28c-1-1.19-2-2.4-3.15-3.51s-2.19-2.25-3.31-3.35c-1.39-1.36-2.79-2.7-4.2-4a1.59,1.59,0,0,0-1.44-.6,26.58,26.58,0,0,0-3.22-.07H75.3c0-.35,0-.68,0-1,0-1.43,0-2.85,0-4.28,0-1.23,0-2.46,0-3.69,0-1.85,0-3.71,0-5.56ZM92.78,59a4.73,4.73,0,0,0-1-3.5,5.66,5.66,0,0,0-3.41-2,8.28,8.28,0,0,0-2-.09,5.51,5.51,0,0,0-2.44.74,3.24,3.24,0,0,0-1.75,2.69c0,.69-.1,1.38-.19,2.06a5.75,5.75,0,0,0,0,1.55,4.53,4.53,0,0,0,1,2.23c.55.68,1.18,1.28,1.77,1.92A6.24,6.24,0,0,0,87,66.14a3.32,3.32,0,0,0,1.39.24A6.67,6.67,0,0,0,90,66a1.83,1.83,0,0,0,1.07-.88,6.74,6.74,0,0,0,.6-1.44c.17-.63.34-1.26.54-1.88A10.2,10.2,0,0,0,92.78,59Z"/><path d="M71.62,64c-.07.2-.1.36-.17.51-.38.81-.77,1.61-1.15,2.42-.11.23-.21.47-.33.7a.51.51,0,0,0,0,.57c.15.22.29.44.45.64.9,1.12,1.79,2.24,2.7,3.35a13,13,0,0,0,1,1.09,2.37,2.37,0,0,1,.75,1.69c0,1.24.1,2.48.15,3.72A.6.6,0,0,1,75,79c-1.8,2.58-3.62,5.16-5.43,7.74a4.31,4.31,0,0,1-1.68,1.43c-.76.39-1.52.8-2.27,1.21a1.33,1.33,0,0,1-1.07.14c-1.25-.35-2.5-.69-3.76-1a.53.53,0,0,1-.46-.5c-.25-1.46-.53-2.91-.79-4.37a7.7,7.7,0,0,1-.09-2.09c.17-1.91.34-3.82.53-5.73.06-.66.16-1.32.25-2a2,2,0,0,1,.57-1.13l3.75-4,4-4.22a1,1,0,0,0,.14-.15,1.57,1.57,0,0,1,1.64-.62Z"/><path d="M79.09,64a11,11,0,0,1,2-.25,1.05,1.05,0,0,1,.76.39c.38.4.75.82,1.13,1.22l4.59,4.85c.8.84,1.59,1.69,2.39,2.54a2,2,0,0,1,.58,1.19c.1.73.19,1.46.26,2.19.14,1.35.28,2.69.39,4a13.5,13.5,0,0,1,.09,3c-.09.67-.22,1.33-.34,2-.18,1-.37,2-.54,3,0,.2-.13.26-.3.3l-3.1.85-.92.23a.94.94,0,0,1-.75-.07l-3-1.61A2.87,2.87,0,0,1,81.4,87c-.83-1.16-1.65-2.32-2.47-3.49l-3.12-4.43a.76.76,0,0,1-.15-.5c0-1.15.09-2.3.14-3.45,0-.2,0-.41.06-.61a2.09,2.09,0,0,1,.58-1.13c.32-.34.67-.67,1-1q1.56-1.89,3.08-3.83c.44-.55.42-.57.12-1.21-.42-.88-.84-1.75-1.25-2.63C79.26,64.44,79.19,64.21,79.09,64Z"/><path d="M91.16,32.85l.5.34,9.89,6.61c.65.44,1.29.88,1.94,1.3a.6.6,0,0,1,.31.51c.13,1.51.29,3,.44,4.52,0,.28.05.56.08.84a.45.45,0,0,1-.11.38c-.58.74-1.17,1.49-1.74,2.25a.36.36,0,0,1-.35.15l-3.41-.23a.48.48,0,0,1-.37-.19c-1.26-1.47-2.52-2.93-3.77-4.4a1,1,0,0,1-.23-.44q-1.57-5.7-3.14-11.39C91.19,33,91.18,33,91.16,32.85Z"/><path d="M90,32.18a2.76,2.76,0,0,1,.2.44c.38,1.5.76,3,1.15,4.5a1.2,1.2,0,0,1-.09.79l-1,2.27-2,4.35c-.11.24-.25.46-.36.69a.44.44,0,0,1-.42.29c-.37,0-.74,0-1.11,0-.94,0-1.87-.06-2.81-.09H83.2l0,0a0,0,0,0,1,0,0l6.68-13S89.9,32.25,90,32.18Z"/><path d="M60.83,32.2l6.75,13.22-.28,0-2.8.1c-.38,0-.75,0-1.12,0a.42.42,0,0,1-.41-.28c-.34-.69-.69-1.38-1-2.07-.74-1.56-1.48-3.12-2.19-4.69-.52-1.15-.44-.91-.19-1.94.3-1.26.64-2.52,1-3.77a5.14,5.14,0,0,1,.2-.55Z"/><path d="M75.35,72.55l-2.49-2.86c-.41-.48-.82-1-1.24-1.43a.51.51,0,0,1-.13-.46,9.83,9.83,0,0,1,.5-2A2.65,2.65,0,0,1,74.14,64a5.9,5.9,0,0,1,3,.15,2.33,2.33,0,0,1,1.39,1.2,7.74,7.74,0,0,1,.73,2.53.43.43,0,0,1-.11.37l-3.66,4.22Z"/><path d="M88.12,45.74c.06-.17.12-.31.18-.46l2.46-5.61c.12-.27.24-.53.37-.79a1.69,1.69,0,0,1,.21-.31c.21-.22.46-.19.55.09.14.43.26.87.37,1.31.36,1.46.73,2.93,1.08,4.4a3.34,3.34,0,0,0,.83,1.56c.74.82,1.46,1.66,2.17,2.5a7.37,7.37,0,0,1,.48.66.57.57,0,0,1,.08.49c-.39,1.29-.79,2.58-1.19,3.88,0,0,0,0-.06.07-.05-.2-.09-.39-.13-.57a12.45,12.45,0,0,0-1.08-3.2,6.82,6.82,0,0,0-4.07-3.45c-.62-.21-1.27-.33-1.9-.49Z"/><path d="M54.94,53.25l-.28-.84c-.26-.89-.52-1.78-.8-2.66A.82.82,0,0,1,54,49c.28-.36.57-.73.87-1.08.63-.74,1.27-1.47,1.91-2.2a2.09,2.09,0,0,0,.5-.91c.33-1.34.67-2.69,1-4,.13-.53.27-1.07.41-1.61a3.88,3.88,0,0,1,.14-.45.31.31,0,0,1,.56-.09,1.63,1.63,0,0,1,.24.4c.61,1.37,1.22,2.75,1.82,4.12.31.69.61,1.39.92,2.08.08.17.15.35.24.57-.27,0-.51.09-.74.15-.67.19-1.36.34-2,.59a6.85,6.85,0,0,0-4,3.78A13.8,13.8,0,0,0,55,52.92C55,53,55,53.09,54.94,53.25Z"/><path d="M54.92,65.07c.24.46.45.84.64,1.22,1.11,2.22,2.21,4.45,3.32,6.67a1.38,1.38,0,0,1,.13.75c-.14,1.31-.27,2.63-.39,3.94-.1,1-.19,2-.29,3.07,0,.1,0,.2-.06.35-.07-.1-.13-.17-.17-.24q-1.32-2.31-2.63-4.63a.83.83,0,0,1-.1-.38c0-1.41-.07-2.82-.07-4.23a14,14,0,0,0-.23-2.42,17,17,0,0,1-.37-3.33,2.42,2.42,0,0,1,0-.47A1.44,1.44,0,0,1,54.92,65.07Z"/><path d="M95.8,65.3c0,.23.1.46.12.7a12.92,12.92,0,0,1-.17,2.56c-.09.57-.22,1.13-.28,1.71s0,1,0,1.52c0,1.3,0,2.6-.05,3.9a1.26,1.26,0,0,1-.17.6l-2.52,4.42a.77.77,0,0,1-.25.3c0-.27-.07-.54-.1-.82l-.6-6.3a1.8,1.8,0,0,1,.17-1.07c.77-1.5,1.5-3,2.25-4.53.44-.89.9-1.77,1.35-2.66,0-.11.12-.23.18-.34Z"/><path d="M100.9,51c-.08.22-.13.39-.19.55L96.83,62.67c-.09.27-.17.54-.25.81s-.07.25-.25.23a1,1,0,0,1-.13-.57c0-1,0-1.93,0-2.89a48.55,48.55,0,0,0-.37-5.64,1.52,1.52,0,0,1,0-.56c.39-1.15.79-2.31,1.19-3.46.06-.16.15-.32.22-.49a.72.72,0,0,1,.5.31,1.27,1.27,0,0,0,1.26.52,9,9,0,0,1,1.16,0C100.41,50.93,100.63,51,100.9,51Z"/><path d="M54.22,63.63,49.85,51a1.28,1.28,0,0,1,.68-.12c.49,0,1,0,1.46,0a.77.77,0,0,0,.78-.34,2.15,2.15,0,0,1,.35-.32,2.41,2.41,0,0,1,.31-.2c.09.2.18.36.24.52.36,1.06.73,2.11,1.09,3.17a.91.91,0,0,1,0,.4,41.85,41.85,0,0,0-.46,5.7c0,1.19,0,2.39,0,3.59a1.1,1.1,0,0,1,0,.18Z"/><path d="M75.37,79.9C76.73,82,78.28,84,79.68,86.18c-2.9.14-5.73.13-8.63,0a2.71,2.71,0,0,1,.23-.37L74,81.87c.43-.61.83-1.23,1.25-1.85A.48.48,0,0,1,75.37,79.9Z"/><path d="M67.87,60.66c-.1-.32-.19-.64-.3-1a4.88,4.88,0,0,0-1.42-2.27A3.62,3.62,0,0,0,64,56.52a11,11,0,0,0-2.07,0,3.67,3.67,0,0,0-2.22,1.13c-.33.33-.63.7-.94,1.06l-.21.24a4.83,4.83,0,0,1,0-.86A4.42,4.42,0,0,1,60.5,54.9a5.74,5.74,0,0,1,6.29-.14,2.55,2.55,0,0,1,1.31,2.33L68,60.2a3.5,3.5,0,0,1-.07.45Z"/><path d="M59.48,59.14c0,.2.06.34.07.49a2.48,2.48,0,0,0,1,1.78c.41.3.86.54,1.29.81h0A4.86,4.86,0,0,0,67,61.3l.36-.3a1.33,1.33,0,0,1,.24-.12,1.54,1.54,0,0,1,.23,1.06c0,.1-.15.19-.24.27-.38.36-.78.69-1.14,1.06a3.83,3.83,0,0,0-.53.78,2.72,2.72,0,0,1-1.17,1.13,5.69,5.69,0,0,1-3,.6,1.64,1.64,0,0,1-1.19-.64,4.82,4.82,0,0,1-.78-1.38,11.82,11.82,0,0,1-.69-3.06c0-.13,0-.27,0-.4A1.27,1.27,0,0,1,59.48,59.14Z"/><path d="M80.61,63.09l-.33.09-1,.19A2.75,2.75,0,0,1,78,63.29a9.24,9.24,0,0,0-3.91-.3,8.39,8.39,0,0,0-1.32.29,3.06,3.06,0,0,1-1.41.06l-1.28-.23a2.91,2.91,0,0,1,.25-.25c.36-.26.73-.53,1.11-.78a.79.79,0,0,1,.38-.09h7.11a.58.58,0,0,1,.32.07c.43.29.84.6,1.26.9A.49.49,0,0,1,80.61,63.09Z"/><path d="M58.7,59.69a.57.57,0,0,1,0-.67,2.09,2.09,0,0,1,.56-.55.32.32,0,0,1,0,.47c-.13.14-.22.31-.34.46Z"/><path class="cls-1" d="M92.78,59a10.2,10.2,0,0,1-.58,2.82c-.2.62-.37,1.25-.54,1.88a6.74,6.74,0,0,1-.6,1.44A1.83,1.83,0,0,1,90,66a6.67,6.67,0,0,1-1.65.36A3.32,3.32,0,0,1,87,66.14a6.24,6.24,0,0,1-2.25-1.59c-.59-.64-1.22-1.24-1.77-1.92a4.53,4.53,0,0,1-1-2.23,5.75,5.75,0,0,1,0-1.55c.09-.68.14-1.37.19-2.06a3.24,3.24,0,0,1,1.75-2.69,5.51,5.51,0,0,1,2.44-.74,8.28,8.28,0,0,1,2,.09,5.66,5.66,0,0,1,3.41,2A4.73,4.73,0,0,1,92.78,59Zm-.64-.1a.53.53,0,0,0,0-.13,4.44,4.44,0,0,0-1.26-3.29A5.65,5.65,0,0,0,83.62,55a2.22,2.22,0,0,0-1,1.84c0,1,0,2,0,3a1.76,1.76,0,0,0,.16.89c.08-.25.16-.43.21-.62a5.92,5.92,0,0,1,.7-1.68,3.82,3.82,0,0,1,2.63-1.86A12.94,12.94,0,0,1,88,56.46a3.93,3.93,0,0,1,3.12,1.3C91.47,58.12,91.79,58.5,92.14,58.9Zm-9,2a1.51,1.51,0,0,0-.26.72.63.63,0,0,0,.29.69,5.44,5.44,0,0,1,1.7,1.9,2.08,2.08,0,0,0,.77.84,5.47,5.47,0,0,0,3.44.76,1.37,1.37,0,0,0,.77-.33,3,3,0,0,0,.72-.93A10.55,10.55,0,0,0,91.65,60a1.07,1.07,0,0,0-.39-.8.37.37,0,0,0,0,.11,2.51,2.51,0,0,0,0,.27,2.61,2.61,0,0,1-.93,1.78,5,5,0,0,1-2.54,1.17c-.14,0-.27,0-.41.06a5,5,0,0,1-3.64-1.34C83.51,61.1,83.34,61,83.16,60.85Zm8.25-2.39c-.13.19-.14.32,0,.47s.24.33.36.49a3.07,3.07,0,0,0,.26.25l.07,0c0-.14.06-.31,0-.41A2,2,0,0,0,91.41,58.46Z"/><path d="M92.14,58.9c-.35-.4-.67-.78-1-1.14A3.93,3.93,0,0,0,88,56.46a12.94,12.94,0,0,0-1.65.11,3.82,3.82,0,0,0-2.63,1.86,5.92,5.92,0,0,0-.7,1.68c0,.19-.13.37-.21.62a1.76,1.76,0,0,1-.16-.89c0-1,0-2,0-3a2.22,2.22,0,0,1,1-1.84,5.65,5.65,0,0,1,7.29.49,4.44,4.44,0,0,1,1.26,3.29A.53.53,0,0,1,92.14,58.9Z"/><path d="M83.16,60.85c.18.14.35.25.5.39a5,5,0,0,0,3.64,1.34c.14,0,.27,0,.41-.06a5,5,0,0,0,2.54-1.17,2.61,2.61,0,0,0,.93-1.78,2.51,2.51,0,0,1,0-.27.37.37,0,0,1,0-.11,1.07,1.07,0,0,1,.39.8,10.55,10.55,0,0,1-1.06,4.51,3,3,0,0,1-.72.93,1.37,1.37,0,0,1-.77.33A5.47,5.47,0,0,1,85.66,65a2.08,2.08,0,0,1-.77-.84,5.44,5.44,0,0,0-1.7-1.9.63.63,0,0,1-.29-.69A1.51,1.51,0,0,1,83.16,60.85Z"/><path d="M91.41,58.46a2,2,0,0,1,.68.77c0,.1,0,.27,0,.41l-.07,0a3.07,3.07,0,0,1-.26-.25c-.12-.16-.23-.33-.36-.49S91.28,58.65,91.41,58.46Z"/><path class="cls-1" d="M41.54,136.37v-22.3h7.53q6.34,0,6.34,5.65a5.46,5.46,0,0,1-.87,3.13A4.47,4.47,0,0,1,52,124.6v.06a4.41,4.41,0,0,1,3,1.62,5.63,5.63,0,0,1,1.09,3.57,6.77,6.77,0,0,1-1.64,4.71q-1.64,1.81-5.33,1.81Zm4.5-19v5.84h1.28a4.34,4.34,0,0,0,2.73-.69,2.66,2.66,0,0,0,.86-2.24,2.81,2.81,0,0,0-.78-2.24,3.72,3.72,0,0,0-2.47-.67Zm0,9v6.71h1.75a4.16,4.16,0,0,0,2.69-.76,3.21,3.21,0,0,0,.93-2.61q0-3.34-3.43-3.34Z"/><path class="cls-1" d="M59.13,136.37v-22.3H66.5a8.82,8.82,0,0,1,3.17.51A5.6,5.6,0,0,1,71.8,116a6.31,6.31,0,0,1,1.26,2.3,13.89,13.89,0,0,1,.64,3,32.21,32.21,0,0,1,.18,3.67c0,4.1-.56,7-1.66,8.81s-3.1,2.65-6,2.65Zm4.5-19v15.68h2a2.93,2.93,0,0,0,3-1.67q.73-1.66.74-6.36a17.07,17.07,0,0,0-.72-5.92c-.48-1.15-1.52-1.73-3.13-1.73Z"/><path class="cls-1" d="M76.51,129.06c-.09-1-.14-2.32-.14-3.84s0-2.8.14-3.84a17.54,17.54,0,0,1,.6-3.14,6.62,6.62,0,0,1,1.26-2.52,5.74,5.74,0,0,1,2.22-1.51,10.11,10.11,0,0,1,6.75,0,5.74,5.74,0,0,1,2.22,1.51,6.62,6.62,0,0,1,1.26,2.52,17.54,17.54,0,0,1,.6,3.14c.09,1,.14,2.32.14,3.84s0,2.8-.14,3.84a17.38,17.38,0,0,1-.6,3.14,6.54,6.54,0,0,1-1.26,2.52,5.74,5.74,0,0,1-2.22,1.51,10.11,10.11,0,0,1-6.75,0,5.74,5.74,0,0,1-2.22-1.51,6.54,6.54,0,0,1-1.26-2.52A17.38,17.38,0,0,1,76.51,129.06Zm4.36-3.84a23.37,23.37,0,0,0,.6,6.51,2.65,2.65,0,0,0,5,0,23.89,23.89,0,0,0,.59-6.51,24.06,24.06,0,0,0-.59-6.5,2.65,2.65,0,0,0-5,0A23.53,23.53,0,0,0,80.87,125.22Z"/><path class="cls-1" d="M108.43,120.69h-4.31a5.12,5.12,0,0,0-.66-2.59,2.08,2.08,0,0,0-1.91-1.16,2.46,2.46,0,0,0-2.34,1.81,17.8,17.8,0,0,0-.72,6,25.27,25.27,0,0,0,.64,6.61c.43,1.43,1.25,2.14,2.46,2.14a2.63,2.63,0,0,0,1.85-.95,3.59,3.59,0,0,0,.93-2.61v-2.28h-3v-3.31h7.28v12h-3.31v-2.06h-.07a5.1,5.1,0,0,1-4.68,2.5,6.85,6.85,0,0,1-3.36-.73,4.73,4.73,0,0,1-2-2.33,13.18,13.18,0,0,1-1-3.64A40.42,40.42,0,0,1,94,125q0-5.86,1.68-8.61t5.82-2.73q3.63,0,5.28,1.78A7.48,7.48,0,0,1,108.43,120.69Z"/></svg>