<svg id="Layer_1" data-name="Layer 1" xmlns="http://www.w3.org/2000/svg" viewBox="0 0 150 150"><defs><style>.cls-1{fill:#fff;}</style></defs><path class="cls-1" d="M58.63,74.37c.14-2.09.28-4.14.4-6.18.23-4,.46-7.9.66-11.84a1.65,1.65,0,0,0-.41-1.18c-1-.92-2.13-1.76-3.23-2.59-1.35-1-2.79-1.95-4.08-3-.9-.76-1.73-1.7-1.3-3.08a3.33,3.33,0,0,1,3-2.33,2.24,2.24,0,0,1,1.33.29A53.94,53.94,0,0,0,69.54,50a18.31,18.31,0,0,0,3.92.3,60.7,60.7,0,0,0,8.65-.32,26.63,26.63,0,0,0,6.8-2.3c3-1.4,5.93-3.06,8.86-4.67a1.24,1.24,0,0,1,1.47,0,6,6,0,0,1,2.38,2.71,1.3,1.3,0,0,1-.26,1.63c-2.07,2.07-4.1,4.17-6.17,6.23a1.92,1.92,0,0,0-.64,1.5q0,8.58-.06,17.17a1,1,0,0,0,1,1.23c2.65.67,5.27,1.42,7.9,2.13a2.54,2.54,0,0,1,2.18,2.25,2.83,2.83,0,0,1-1.68,3,6.9,6.9,0,0,1-3.18.77c-9.63-.55-19.27-.73-28.91-.34-3.21.13-6.43.22-9.63.46-2,.15-4,.66-6,.82s-4,.11-5.94.12a1.1,1.1,0,0,1-.75-.35A16.29,16.29,0,0,1,47.77,80a1.76,1.76,0,0,1,1-2.75,31.85,31.85,0,0,1,8.63-2.65C57.77,74.53,58.17,74.45,58.63,74.37Zm7.61-17.24c0,1.62,0,2.9,0,4.18-.13,3.61.52,7.24-.15,10.85a1.31,1.31,0,0,0,0,.28c0,.89.5,1.4,1.4,1.36a28.75,28.75,0,0,0,3.06-.28c2.38-.36,3.19-1.13,3.58-3.53.64-3.89-.21-7.72-.48-11.5ZM87,56.68c-1.75.52-3.4,1-5,1.51a1.24,1.24,0,0,0-.68.94c.06,4.27.17,8.54.3,12.81a1.08,1.08,0,0,0,.36.8c2.5,1.65,4.86,2,5.54-2A40,40,0,0,0,87,56.68Z"/><path class="cls-1" d="M35.72,40c3.51-2.62,7-5.3,10.52-7.82a175.43,175.43,0,0,1,29-16.3,2.25,2.25,0,0,1,1.71,0,213.77,213.77,0,0,1,38.55,24.5,3,3,0,0,1,.51.44c.39.49.69,1,.07,1.56-.46.44-.77,1.06-1.26,1.44a2.79,2.79,0,0,1-3.12.53c-2.87-1.42-5.77-2.8-8.63-4.26-5.8-3-11.61-5.91-17.36-9-2.24-1.18-4.32-2.66-6.46-4a5.61,5.61,0,0,0-6-.27c-10.37,5.38-20.8,10.66-31.11,16.15-2.9,1.54-4.31.34-6-2A7.69,7.69,0,0,1,35.72,40Z"/><path class="cls-1" d="M74.48,92.27h5.9c.24.76.23,1.35-.64,1.73a1.16,1.16,0,0,0-.54.84c0,4,0,7.9,0,11.86,0,.48.09.83.67,1,.79.21.71.87.57,1.57h-6c-.2-.82-.09-1.41.85-1.7a1,1,0,0,0,.51-.77c0-1.51,0-3,0-4.54,0-.54-.22-.72-.75-.71-1.86,0-3.73,0-5.59,0-.52,0-.78.13-.77.7,0,1.51,0,3,0,4.53a1.14,1.14,0,0,0,.56.84c.85.31.9.89.75,1.66H64c-.18-.83-.06-1.42.83-1.7a1,1,0,0,0,.46-.8q0-6,0-12a1,1,0,0,0-.46-.79c-.88-.29-1-.88-.82-1.73h6c.15.79.15,1.41-.76,1.72a1,1,0,0,0-.55.74c0,1.31,0,2.63,0,4,0,.55.22.74.74.73,1.9,0,3.8,0,5.69,0a1,1,0,0,0,.64-.67c.07-1.31.06-2.63,0-4a1,1,0,0,0-.51-.75C74.4,93.73,74.31,93.14,74.48,92.27Z"/><path class="cls-1" d="M82.34,126.6c0,1.74,0,3.44,0,5.13a.69.69,0,0,0,.4.55c.9.22.94.84.81,1.64H77.78a1.12,1.12,0,0,1,.62-1.6,1.05,1.05,0,0,0,.49-.79q.09-5.69.08-11.37a.94.94,0,0,0-.53-.72c-.8-.3-.83-.86-.72-1.58a5.16,5.16,0,0,1,.6-.09c2.69,0,5.39,0,8.09.09a6.78,6.78,0,0,1,2.49.63,3.52,3.52,0,0,1,2.2,3.24,3.69,3.69,0,0,1-1.91,3.52,15.4,15.4,0,0,1-1.76.82c.8,1.18,1.57,2.38,2.4,3.55s1.24,2.39,2.74,2.82c.28.08.36.89.61,1.55-1.57,0-2.88,0-4.18,0-.24,0-.51-.34-.67-.58-1.27-1.93-2.51-3.88-3.76-5.82A1.84,1.84,0,0,0,82.34,126.6Zm0-7v4.25c0,.25,0,.5.07,1a26.32,26.32,0,0,0,3.52-.39,2.33,2.33,0,0,0,1.68-2.59,2.37,2.37,0,0,0-2.16-2.23C84.46,119.47,83.47,119.55,82.33,119.55Z"/><path class="cls-1" d="M31.51,127.28c0-2.3,0-4.61,0-6.91a.94.94,0,0,0-.45-.75c-.9-.3-1-.92-.8-1.77h4.89a1.24,1.24,0,0,1-.68,1.72,2,2,0,0,0-.66,1.51c0,3.92,0,7.84,0,11.76v1a2,2,0,0,1-2.58-.88c-2.43-3.55-5-7-7.46-10.54-.18-.25-.38-.49-.57-.74-.1.08-.18.12-.18.15,0,3.06,0,6.11,0,9.16a1.4,1.4,0,0,0,.61,1.06,1.41,1.41,0,0,1,.84,1.86H19.27a1.4,1.4,0,0,1,.82-1.88,1.46,1.46,0,0,0,.58-1.08q.06-5.35,0-10.7a1,1,0,0,0-.49-.77c-.84-.29-1-.84-.73-1.72,1.55,0,3.11,0,4.67,0,.27,0,.57.38.76.65,2,2.7,3.89,5.42,5.84,8.14.18.25.38.5.57.74Z"/><path class="cls-1" d="M92.5,97.77v5.13c-1.14.38-1.55.23-2.08-.75s-1.14-1-2.77-.64v5.81c1.73,0,3.42.1,5.09-.06.52-.05,1-.77,1.42-1.25.23-.28.23-.73.4-1.07a1.17,1.17,0,0,1,1.55-.59c.22.07.37.65.38,1,.05,1.27,0,2.55,0,3.9H82.93c-.17-.75-.11-1.32.72-1.63a.94.94,0,0,0,.47-.7q.07-6.14.06-12.25a.88.88,0,0,0-.46-.68c-1-.26-.93-.91-.79-1.76,2.09,0,4.17,0,6.25,0s4.15-.08,6.28-.13v4.53c-1.42.25-1.63.19-2.17-1.09A2.13,2.13,0,0,0,91,94.05c-.87,0-1.74,0-2.61,0-.55,0-.82.14-.8.76,0,1.32,0,2.63,0,4,0,.53.17.77.72.74,1,0,2,.22,2.47-1.1C90.89,98.06,91.79,98,92.5,97.77Z"/><path class="cls-1" d="M41.24,107.35c0-.2,0-.23,0-.26-.85-2.24-.85-2.24-3.24-2.24-1.06,0-2.12,0-3.18,0a1,1,0,0,0-1.21.81,6.41,6.41,0,0,0-.42,1.07,1,1,0,0,0,.29.82c.82.6.84.57.78,1.71H29a1.33,1.33,0,0,1,.76-1.77,2.71,2.71,0,0,0,1.2-1.28q2.4-5.3,4.67-10.66a2.18,2.18,0,0,0-.13-1.43,1.08,1.08,0,0,1,.57-1.58c.6-.3,1.18-.64,1.87-1,.17.35.33.64.46,1,2.1,4.68,4.19,9.36,6.32,14a2.94,2.94,0,0,0,1.14,1.18c.69.41.61.95.53,1.61H40.11C39.58,108.08,40.39,107.67,41.24,107.35Zm-6.46-4.62h4.53l-2.26-5.14Z"/><path class="cls-1" d="M72,128c-1,.21-1.7.08-2.07-.94-.19-.53-1.94-.84-2.35-.48a.77.77,0,0,0-.18.52c0,1.48,0,3,0,4.43,0,.5.2.69.69.68,1.12,0,2.25,0,3.37,0,1.43-.06,1.86-.41,2.3-1.75.39-1.18.71-1.36,2-1.07v4.62H63c-.17-.68-.21-1.27.64-1.61a1,1,0,0,0,.43-.73q.08-5.73.07-11.47c0-.23-.2-.61-.37-.65-.91-.23-.94-.83-.78-1.82H74.85v4.24c-1.41.29-1.55.26-2.1-1a2,2,0,0,0-2.16-1.39c-.8,0-1.61,0-2.41,0-.56,0-.83.14-.82.75,0,1.23,0,2.45,0,3.67,0,.48.16.71.67.69.89-.05,1.86.25,2.31-1,.11-.32,1-.37,1.63-.59Z"/><path class="cls-1" d="M59.89,92.57V97c-1.48.39-2.15.14-2.58-1.46a2.65,2.65,0,0,0-3.84-1.44,1.79,1.79,0,0,0-.18,3.29,16.63,16.63,0,0,0,2.09,1c.94.41,1.91.75,2.83,1.21,4.32,2.12,3.53,7.24.49,9.2a6.07,6.07,0,0,1-5,.88c-1-.27-2-.84-3.1-.16-.33.19-.88,0-1.41,0v-5.08c1.56-.19,1.67-.13,2.36,1.22,1.17,2.27,3.63,3,5.55,1.61a2.5,2.5,0,0,0-.26-4.46c-.73-.39-1.56-.58-2.32-.93a17.23,17.23,0,0,1-3.32-1.68,4.39,4.39,0,0,1,.51-7.37,5.69,5.69,0,0,1,4.82-.58,4,4,0,0,0,2.37.31A3.56,3.56,0,0,1,59.89,92.57Z"/><path class="cls-1" d="M99.16,109.5v-5.08c1.59-.19,1.73-.15,2.38,1.23a3.66,3.66,0,0,0,5.63,1.54,2.48,2.48,0,0,0-.25-4.36,19,19,0,0,0-2.13-.87c-.89-.37-1.82-.67-2.66-1.12a4.5,4.5,0,0,1-2.59-5A4.76,4.76,0,0,1,104,92.05a17,17,0,0,1,3.3.42,9.3,9.3,0,0,0,1,.09c.48,0,1,0,1.52,0V97c-1.46.38-2.12.13-2.56-1.47a2.64,2.64,0,0,0-3.83-1.44,1.79,1.79,0,0,0-.18,3.29,15.79,15.79,0,0,0,2,1c1,.42,2,.77,2.92,1.24,4.35,2.13,3.53,7.32.41,9.25a6.05,6.05,0,0,1-4.88.83c-1-.27-2-.84-3.11-.16C100.27,109.66,99.72,109.5,99.16,109.5Z"/><path class="cls-1" d="M1.65,117.84H7.44c.23.78.14,1.32-.7,1.63a1,1,0,0,0-.49.78c0,3-.07,6.11,0,9.16,0,1.94,1.33,3,3.35,3.1,2.23.07,4-1.06,4.13-2.88.17-3.08.12-6.16.12-9.24,0-.29-.27-.78-.48-.82-1-.18-1.1-.81-.9-1.72h4.81c.15.74.21,1.35-.69,1.73a1.36,1.36,0,0,0-.56,1c0,2.51,0,5,0,7.52,0,3.78-1.54,5.68-5.29,6.12a11.66,11.66,0,0,1-4.27-.38,4.7,4.7,0,0,1-3.52-4.74c-.05-2.85,0-5.71,0-8.57,0-.6-.06-1-.75-1.23S1.55,118.49,1.65,117.84Z"/><path class="cls-1" d="M105.06,118.28v4c-1.57.31-2.07.13-2.52-1.45-.51-1.79-2.61-1.89-3.71-1.24a1.64,1.64,0,0,0-.1,3,11.64,11.64,0,0,0,1.81.88c.85.37,1.74.67,2.57,1.07,2.35,1.11,3.36,2.73,3.17,5a5.27,5.27,0,0,1-4.1,4.68,10.52,10.52,0,0,1-3.12,0c-.92-.08-1.77-.68-2.74,0-.34.22-.93,0-1.52,0v-4.82c1.54-.27,1.7-.19,2.36,1.07,1.1,2.15,3.28,2.84,5.12,1.64s1.75-3.33-.19-4.3c-1.06-.53-2.22-.84-3.31-1.29a5.38,5.38,0,0,1-3.37-3c-1.07-2.87,1-5.79,4.35-6a5.23,5.23,0,0,1,1.25,0C102.32,117.74,103.63,118,105.06,118.28Z"/><path class="cls-1" d="M45,117.78c1.73,0,3.46,0,5.19,0,.18,0,.53.25.52.38a2.35,2.35,0,0,1-.29,1c-.14.21-.48.29-.84.49l3.95,9.61c1.34-3.39,2.58-6.5,3.83-9.67a1.29,1.29,0,0,1-1-1.79h4.66a1.18,1.18,0,0,1-.65,1.65,2.55,2.55,0,0,0-1,1.21q-2.65,6.23-5.24,12.5c-.25.61-.52,1-1.29,1s-1-.37-1.21-1c-1.71-4.25-3.45-8.49-5.17-12.74a1.83,1.83,0,0,0-1.1-1.21c-.34-.13-.47-.8-.7-1.23Z"/><path class="cls-1" d="M116.22,122v-4.46a109.76,109.76,0,0,0,14.51,0v4.33c-1.12.4-1.57.25-2-.65-.93-1.82-1.22-2-3.44-1.64,0,.29,0,.6,0,.91,0,3.56,0,7.13,0,10.69,0,.6,0,1,.79,1.17s.68.87.55,1.55h-6c-.17-.8-.2-1.46.84-1.67a.81.81,0,0,0,.42-.63c0-4,0-8,0-11.92-1.84-.59-2.82-.16-3.43,1.48C118,122.28,117.18,122.17,116.22,122Z"/><path class="cls-1" d="M132.5,117.82h6.12c.28.92,0,1.46-1.08,1.71l3.6,5.5,3.34-5.38c-.75-.39-1.53-.71-1.07-1.8h4.93c.2.77.09,1.3-.75,1.61a2.3,2.3,0,0,0-1,.91c-1.43,2.09-2.85,4.2-4.23,6.33a2.56,2.56,0,0,0-.36,1.25c-.06,1,0,2,0,3,0,.71,0,1.27.87,1.58.3.11.39.81.64,1.4h-6a1.19,1.19,0,0,1,.76-1.62,1,1,0,0,0,.51-.76c0-1.25,0-2.5,0-3.76a2.11,2.11,0,0,0-.37-1c-1.41-2.18-2.83-4.36-4.28-6.53a2,2,0,0,0-.88-.81C132.44,119.2,132.27,118.69,132.5,117.82Z"/><path class="cls-1" d="M76.22,44a5.32,5.32,0,0,1-5.56-5.07,5.55,5.55,0,0,1,11-.07A5.3,5.3,0,0,1,76.22,44Z"/><path class="cls-1" d="M120.11,92.23c.19.93.12,1.55-.81,1.81a.87.87,0,0,0-.46.68q0,6.07,0,12.15a.9.9,0,0,0,.45.71c1,.21,1,.85.83,1.67h-6.07a1.19,1.19,0,0,1,.7-1.64,1.26,1.26,0,0,0,.62-.89c0-4,0-7.91,0-11.86a1.23,1.23,0,0,0-.62-.87,1,1,0,0,1-.77-1.17c0-.22.34-.56.52-.56C116.36,92.21,118.22,92.23,120.11,92.23Z"/><path class="cls-1" d="M37.18,117.84H43c.15.78.19,1.38-.72,1.65a1,1,0,0,0-.49.78c0,3.72,0,7.45,0,11.17,0,.29.23.78.43.83,1,.24.92.89.8,1.67H37.2c-.22-.8-.07-1.33.74-1.64a1,1,0,0,0,.49-.78q0-5.64,0-11.27a1,1,0,0,0-.48-.77C37.12,119.19,37,118.63,37.18,117.84Z"/><path class="cls-1" d="M114.29,117.77c.21.88.1,1.44-.75,1.71a.91.91,0,0,0-.47.69q0,5.73,0,11.46a.81.81,0,0,0,.41.65c.93.22,1,.83.84,1.66h-5.77c-.19-.75-.18-1.32.68-1.65a1.1,1.1,0,0,0,.52-.86q0-5.58,0-11.18a1.09,1.09,0,0,0-.57-.8,1,1,0,0,1-.71-1.2c.09-.74.67-.46,1.06-.47C111.11,117.75,112.71,117.77,114.29,117.77Z"/></svg>