<svg id="Layer_1" data-name="Layer 1" xmlns="http://www.w3.org/2000/svg" viewBox="0 0 150 150"><defs><style>.cls-1{fill:#fff;}.cls-2{fill:#231f20;}</style></defs><path d="M73.41,121.39H3.27c-1.18,0-1.18,0-1.18-1.15V106.75c0-1.22,0-1.22,1.19-1.22H143.73c1.18,0,1.18,0,1.18,1.14v13.58c0,1.14,0,1.14-1.1,1.14Zm22.54-11H95v5.06h1v1h4v-4H97v1.06h1.38c.84,0,.49.64.54,1s.12.86-.57.84-1.54,0-2.32,0V110.5h4v-1H96Zm22,5.06v1h4v-2h-1c.12.93-.41,1-1.11,1s-1.22,0-1.83,0V110.5c.61,0,1.22.06,1.83,0s1.23,0,1.11,1h1v-2h-4v1h-1v5.06Zm-97,0v1h4v-2H23.94c.27,1.07-.42,1-1.06,1s-1.22,0-1.83,0V110.5c.61,0,1.22.06,1.83,0s1.23,0,1.11,1h1v-2H21v1H20v5.06Zm14.08-1.07v-2H34v-2c-.82.14-1.06-.26-1-1H32v7h1.08c0-1,.05-2,0-3-.06-.74.21-1,.91-1v2h1v1.06c.91-.28,1,.27,1,.91h1v-7H35.94c0,1.38,0,2.71,0,4C36,114.22,35.75,114.48,35.05,114.42Zm32-1v-1H66v-1l-.2.13-.76-.7a3.66,3.66,0,0,1,1-.35c1,0,2,0,3,0v-1.07H64v3h2v1h1v1l.2-.13.76.69a2.91,2.91,0,0,1-.94.35c-1,0-2,0-3,0v1.07h5v-3Zm12-2v-1H78v-1H75v7h4.06c-.19-.86.34-1,.94-1v-4Zm-66,0v-1h-1v-1H9v7h4.06c-.19-.86.34-1,.94-1v-4Zm37.94-1H50v6h1.07c0-.8,0-1.55,0-2.29s.49-.65.94-.64,1-.16,1,.63,0,1.53,0,2.29H54v-7H51v1Zm-3,4.06v2h1v-2H48l.1-.84.88-.12v-4H44v7h1.07c0-.81,0-1.55,0-2.29a.83.83,0,0,1,.34-.62,1.13,1.13,0,0,1,1.64.94Zm90-1.06,0,0,.12-.87.85-.13v-3h-5v7h5v-3Zm-5,3v-7h-1.08v4.86c0,1.07,0,1.07-1.09,1.07-1.78,0-1.78,0-1.78-1.8v-4.12H128v7ZM19,115.39c-.8,0-1.54,0-2.28,0s-.64-.54-.67-1,0-.94.7-.89,1.48,0,2.24,0v-1.13c-.81,0-1.55,0-2.29,0s-.65-.49-.65-.94-.15-1,.64-.94,1.53,0,2.29,0v-1.06H15v7h4Zm83,1.08c0-.81,0-1.58,0-2.35s.57-.57,1-.59.93-.14.89.6,0,1.53,0,2.33H105v-7h-1.07c0,.81,0,1.55,0,2.29s-.49.64-.94.64-1,.15-.94-.64,0-1.53,0-2.28H101v7Zm-72-4.08c-.82,0-1.59,0-2.35,0s-.57-.57-.59-1-.15-.93.59-.89,1.54,0,2.34,0v-1.07H26v7h4v-1.06c-.5,0-.95,0-1.39,0-1.57,0-1.53.22-1.53-1,0-.91,0-.91,1.49-.91H30Zm44,0c-.81,0-1.58,0-2.35,0s-.56-.58-.59-1-.13-.93.61-.89,1.53,0,2.32,0v-1.07H70v7h4v-1.06c-.76,0-1.46,0-2.14,0s-.82-.3-.79-.89-.11-1.08.76-1,1.47,0,2.19,0Zm12-3v7a3.37,3.37,0,0,0,.52,0,4.85,4.85,0,0,0,.55-.07v-1c0-1.81,0-1.81,1.76-1.93.05,0,.1,0,.18-.09v-1c-.46,0-.88,0-1.28,0-.79.07-.66-.48-.66-.93s-.16-1,.64-1,1.53,0,2.29,0v-1.09Zm-23,0H60v1c.88-.12,1,.34,1,1a24.29,24.29,0,0,0,0,2.83c0,.73-.1,1.18-1,1.09v1h3V115.4c-.86.14-1-.29-.94-1,0-.91,0-1.82,0-2.74,0-.71,0-1.36,1-1.24Zm48,0h-5v1.06c.43,0,.82,0,1.19,0,.59-.06.79.17.77.75,0,.92,0,1.83,0,2.75v2.45h1.14c0-1.67,0-3.3,0-4.93,0-.77.17-1.14,1-1a7.79,7.79,0,0,0,1,0Zm-20,7h3v-1c-.88.13-1-.34-1-1a22.11,22.11,0,0,0,0-2.82c0-.73.11-1.19,1-1.1v-1H91v1.05c.85-.13,1,.3.94,1,0,.91,0,1.83,0,2.74,0,.72,0,1.36-1,1.25Zm-53-5.94a8.23,8.23,0,0,0,1,0c.72-.1,1,.14,1,.91a15.76,15.76,0,0,0,0,1.82v3.19h1.13c0-1.56,0-3.06,0-4.55s-.15-1.35,1.29-1.37a4.34,4.34,0,0,0,.63-.07v-1H38Zm89,4.86c-.72,0-1.36,0-2,0s-1-.15-1-1c.07-1.65,0-3.31,0-5H123v7h4Zm-72-6v7h4v-1.07c-.78,0-1.49,0-2.2,0s-.77-.2-.75-.77c0-1,0-2,0-3.07v-2.14Z"/><path class="cls-1" d="M43,57.48c.72,0,1.1-.26.84-1.16-1-.06-2-.14-3.07-.17s-2.08,0-3,0a5.93,5.93,0,0,1,.3,1.21c0,1.16,0,2.33,0,3.49,0,.55-.19.73-.73.72-1.91,0-3.83,0-5.75,0-.5,0-.68-.18-.67-.68,0-1.27,0-2.55,0-3.83,0-.74-.26-1.08-1-1.07-1.2,0-2.39,0-3.58,0a2.93,2.93,0,0,0-.64.13,4,4,0,0,1,.35,1c0,1.22,0,2.44,0,3.66,0,.59-.21.76-.77.75-1.56,0-3.11,0-4.67,0-.46,0-.72-.11-.71-.64,0-1.31,0-2.61,0-3.92a3.51,3.51,0,0,1,.33-.88,7.18,7.18,0,0,0-.81-.06c-1.26,0-2.51,0-3.77.06a.76.76,0,0,0-.58.4,7.37,7.37,0,0,0,0,1.33l0,16.49v1H17.9l.14-.9L20,74.4c0-.76,0-1.5,0-2.24,0-.52.13-.74.7-.73,1.58,0,3.16,0,4.74,0,.22,0,.62.25.63.4,0,1.52,0,3,0,4.61H14V56.58h-1l-.09.87H11.06L11,56.58l-.89-.12V38.57l1-.08c0-1.37,0-2.72,0-4.07,0-.65.15-.91.83-.85s1.27,0,1.95,0l.18.94.85.12.14.88h7c-.09-.83.34-1,1.09-1a11.18,11.18,0,0,0,1.83,0c.68,0,1.17.06,1,.85.61.54,2-.56,2,1.09,1-.12,1,.51,1,1.24,0,1.21,0,2.43,0,3.7l-.93.09v1.88l-1,.13-.08.91-.93.11v9H30V38.6l1.09-.12V34.77c0-1.21,0-1.21,1.22-1.19l.55,0,.19.91.83.11.15.87h7c-.09-.88.43-1,1.16-.94a11.18,11.18,0,0,0,1.83,0c.69-.06,1.1.1,1,.85.62.55,2.06-.59,2,1.13.93-.14,1,.39,1,1.09,0,1.25,0,2.49,0,3.79l-.92.12v1.88l-1,.11v9l1,0c-.07-1.09.64-1,1.37-1s1.7,0,2.63,0v-15l1.08-.14c0-1.27,0-2.56,0-3.85,0-.85.19-1.13,1.05-1.06s1.82,0,2.76,0l.15,1c.73,0,1.48,0,2.21,0,.53,0,.75.13.73.7,0,1.38,0,2.76,0,4.18l-.93.09v1.91l-1,.09v12h4c-.08-1,.64-1,1.36-.94.52,0,1,0,1.6,0l0-1-1-.15-.1-.86L62,48.44V46.6l-1-.15L61,45.59,60,45.45,60,44.58l-.88-.12V41.58l1-.1c0-1,0-2.07,0-3.11,0-.62.18-.84.8-.8a16,16,0,0,0,2.08,0c.67,0,1.22,0,1,.83.64.57,2-.57,2,1.12.7-.05,1.1.24,1,1.06.45,0,.84,0,1.22,0,.59,0,.8.2.75.77a12,12,0,0,0,0,1.21c1-.13,1,.41,1,1.11,0,1.27,0,2.54,0,3.92.78,0,1.44,0,2.09,0s1.1.07.88.89c.56.15,1.3.07,1,1,.71,0,1.22.23,1.07,1.07.9-.12,1,.36,1,1,0,1.6,0,3.2,0,4.84l-.92.07v2H66c.06-.8-.39-.92-1.08-.93s-.9.28-.89,1H60.08L60,59.56c-.83,0-1.68,0-2.53,0-.17,0-.45-.36-.46-.57a15.72,15.72,0,0,1,0-2.17c0-.64-.28-.85-.86-.79-.3,0-.59.13-.89.15s-.87,0-1.3,0-1.29,0-1.61.33-.15,1-.16,1.58a.36.36,0,0,0,.25.28c.85,0,.71.57.71,1.08,0,2,0,4,0,6,0,.66.09,1.1,1,1v4.85l1,.23v2.78l1,.21v2.92l-.87.14-.17.88H54v-1.9l-1-.13V71.58l-1-.14V63.57l-1-.11V59.58h-6l-.08.86-.92.13-.09.88H43ZM16,43.56A11.92,11.92,0,0,0,16,45c0,.18.24.49.38.49,1.52,0,3,0,4.59,0v-2Zm19,0A11.92,11.92,0,0,0,35,45c0,.19.24.49.38.49,1.51,0,3,0,4.59,0v-2ZM47,55.48v-1H46v1Z"/><path d="M106,101.38l-.06-.87-.93-.12-.07-.87-.92-.13-.1-.89-.88-.09L103,97.5l-.9-.09-.08-.94h-1.91l-.09-.94-1-.14V93.47H94.08l-.12-1-.87-.08L93,91.51l-.9-.1L92,90.53l-.92-.13L91,89.49l-.89-.06L90,88.5l-.87-.08-.13-.9-.9-.11L88,86.53l-.92-.12L87,85.5l-.89-.07L86,84.5l-.87-.07L85,83.52l-.9-.11L84,82.53l-.92-.12-.09-.9-.89-.08L82,80.51l-.87-.08-.13-.9-.9-.12L80,78.54l-.91-.13-.1-.9L78,77.43V75.52l-1-.09V68.56l.91-.09V66.56l1-.08.13-.91.9-.11.08-.88.92-.12.09-.91.89-.07.12-.92.87-.08.13-.9.9-.12.08-.87,1-.13V56.57l1-.09V54.57l1-.08.13-.91.9-.11.08-.88.92-.12.09-.91L90,51.5l.12-.93.87-.08.13-.91.9-.11.08-.87,1-.13V46.58l1-.09V44.58l1-.09.13-.91.9-.1.08-.88.92-.13.08-.9.89-.07.13-.93.87-.07.13-1H101l.09-1H103l.08-1,.95-.12V35.59l1-.09.12-.92.91-.09.07-.89.93-.12.07-.87.91-.13.12-.92h1.86l.13-1h7.86l.1.93h1.87l.13,1,.91.08.07.89.93.12.07.87.91.13.11.9.88.08.12.92.91.09.07.89.93.12.07.87.91.13.11.9.88.08.12.91.91.1.06.88.93.13.08.87.91.12.11.9.87.09.13.91.9.1.08.88.92.12.09.93h2.89l.12,1h2.86l.14,1,.91.09.06.89.93.12.08.87.91.13.1.9.92.09v1.9l1,.09v2.9l1,.11v1.87l1,.13V73.41l-.92.11v1.87l-1,.13v2h1.91l.07,1,.92.12v6.86l-.93.08v2.9l-1,.11-.07.87-1,.14v1.9l-.94.06-.12.93-.87.08-.13.91-.9.11-.08.87-.92.13-.1.9-.88.08-.13,1H138l-.07,1H136l-.09.95-.92.13-.09.91-.89.06-.13,1H131l-.08,1H127l-.09,1h-6.85l-.13-.89-.9-.1-.08-.88-.92-.13-.09-.9H116l-.07.94H113l-.09.95ZM117,59.46l-.91.11-.09.88-.91.12-.09.87-.91.14-.09.86-.91.14-.1.86-.89.14-.11.86-.9.15-.1.87-.87.09v5.88l.86.11.15.89.88.11.09.87h7.88l.11-.94h1.86l.15-1,.86-.09.14-.9.86-.11.15-.89.85-.11.15-.89.87-.12.09-.86.92-.14.08-.86.91-.14.1-.86.9-.14.1-.86.9-.15.11-.87.87-.09.13-.91.86-.09.15-.91.85-.09.15-.9.86-.11.14-.89h2.88v.93l-.87.08-.15.91-.85.1-.15.9-.85.1-.15.9-.85.1-.15.9-.88.11-.08.87-.92.14-.08.85-.91.15-.1.85-.9.15-.1.86-.9.14-.11.88-.87.08-.13.92-.86.09-.15.91-1,.1V86.43l-.9.12-.17.94-1,0v-13l-.91.06-.1,1h-1.88l-.13,1h-7.86l-.14,1-.86.08-.15.92-.85.08-.15.91-.85.1-.15.9-.93.11v4.86l-1,.16v1.84l-.93.15-.11.88-.87.08-.14.92-.85.09-.15.9-.86.1-.15.9-.85.11-.15.89-.85.11v1.92h1.86l.16.94.85.11.15.89.87.11.1.89,2,.1V99.4h5.89l.11-1h2.89l.12-1h2.87l.13-1h1.86l.15-1h1.85l.17-1h1.85l.1-.92h1.91v.93l-.86.1-.17,1h-1.85l-.11,1h-1.88l-.12.91-.87.15v2.83h4.85l.12-1h3.86l.15-1h1.84l.18-1h1.85l.1-.92,1.89-.09.12-.89.89-.15.11-.92h1.86l.16-1,.85-.09.15-.9.85-.11.15-.89.87-.12.09-.86.92-.15.08-.85,1-.16V87.51l1-.1V84.52l.94-.11V79.54h-2.86l-.14.92-.86.08-.15.91-.85.1-.16,1-.87,0V80.52l1-.11V78.53l1-.13V76.53l1-.13V74.55l1-.16V71.55l.92-.15V61.56l-1-.13V58.56l-1-.12V55.57l-1-.13V53.59l-1-.17V51.58l-.93-.15-.1-.85-.9-.15-.11-.87-.88-.09-.12-1h-2.86l-.15-.93H129l-.1,1H127l-.09.91-.91.15-.1.86-.9.14-.1.86-.9.14-.1.86-.9.14-.1.86-.9.15-.11.87-.87.08-.14.92-.86.08-.14.92-.86.09-.14.9-.86.11-.14.89-.88.11ZM93,88.51l.08.88.91.15.11.87h5.84l.15-.9.85-.11.15-.89.88-.11.08-.87.92-.14.08-.85.91-.15.1-.86.88-.14V82.55l-.86-.12-.15-.89-.85-.1-.15-.9-.88-.11-.09-.87-.91-.14-.09-.85-.9-.15-.1-.86-.9-.14-.11-.86L98,76.41l-.11-.87-.87-.09-.14-.91-.86-.09-.14-.91-.86-.09-.15-.9-.85-.11-.15-.89-.85-.11-.15-.89L92,70.44l-.09-.87L91,69.43l-.08-.86L90,68.43l-.08-.86L89,67.42l-.1-.85-.9-.15-.1-.85-.9-.15-.1-.85-.9-.15-.1-.86H84.07l-.14.9-.86.1-.15.9-.87.11-.09.87-.91.14-.09.86-1,.15v1.84l-.92.15v4.85l1,.11v1.88l.91.11.15.9.88.11.08.87.92.13.08.86.91.15.1.85.9.15.11.85.89.15.11.88.88.08.13.92.86.08.14.91.86.1.15.9.85.11.15.89.87.11.09.87.92.14.09.88Zm11-10,.11.9h2.85l.15-.9.85-.1.15-.9.85-.1.15-.9.87-.1V73.55l-1-.1v-1.9l-1-.11V65.56l-.91-.11-.15-.9-.85-.1-.15-.9-.85-.1-.15-.9-.88-.1-.08-.88-.92-.13-.08-.87-.92-.14-.08-.85-.91-.15-.1-.85-.9-.15-.1-.86-.9-.14-.1-.86-.9-.14-.1-.85-.9-.15-.11-.88-.87-.08-.13-.92-.87-.08-.14-.92-.86-.08-.14-.9H92.05l-.09.88-.92.13-.08.86-.92.15-.08.85-.91.15-.1.85-1,.16v1.84l-.91.15v4.85l.87.1.14.9.86.1.14.9.86.1.15.9.87.11.09.87.91.13.09.86.92.15.08.85.91.15.1.85.9.15.1.85.9.15.11.88.87.08.13.92.86.08.15.91.85.1.15.9.86.11.14.89.86.1.15.9.87.11.09.86.91.15.09.88Zm1-37.93h-2.89l-.12,1h-1.88l-.11.9-.89.15-.12.88-.87.08-.13.92-1,.09v1.89l-.91.11-.15.9-.87.1v2.86l.91.14.09.86.91.14.09.86.91.14.09.86.9.14.11.86.89.14.11.86.89.15.11.87.88.09.13.91.86.09.14.91.86.09.15.91.85.09.15.9.85.11.15.89.85.1.15.9.88.11.09.87h1.88l.11-.87.89-.14.11-.88.88-.09.13-.91.86-.09.14-.91.86-.08.15-.91.85-.1.15-.9.85-.11.15-.89.85-.1.15-.9.87-.1V53.58l-.9-.15-.11-.85-.89-.15-.1-.85-.9-.15-.11-.88-.88-.08-.13-.92-.86-.08-.14-.92-.86-.08-.14-.92-.86-.08-.15-.91-.85-.1-.15-.9-.85-.1-.15-.9-.85-.1-.15-.9-.85-.1-.15-.9-.88-.1-.08-.88-.92-.13Zm16-5-.9-.1-.14-.9-.88-.1-.09-1H117l-.1-.92h-5.88l-.13,1h-1.87l-.11.91-.9.15-.1.85-.9.15-.11.87-.87.09v2.89l.87.11.14.89.86.1.15.9.85.1.15.9.85.1.15.9.88.11.08.87.92.13.08.87.92.13.08.86.92.15.08.85.91.15.1.85.9.15.1.85.9.15.1.85.9.15.1.85.9.15.1.87h1.86l.15-.9.85-.11.15-.89.85-.11.15-.9.85-.1.15-.89.88-.11.08-.88.92-.13.09-1h1.89l.12-1h2l-.06-.94-.89-.09-.13-.91-.87-.09-.13-.91-.87-.09-.13-.91-.86-.08-.15-.92-.85-.08-.15-.92-.85-.09-.15-.9-.86-.1-.14-.9-.86-.1-.14-.9-.88-.1Z"/><path class="cls-1" d="M67.93,96.47H66l-.1-.92-.87-.11-.15-.9-.85-.1-.15-.91-.86-.08-.14-.92-.87-.09-.11-.87-.89-.15-.11-.85-.9-.15L60,89.57l-1-.16V87.56l-.93-.12-.15-.91-.83,0-.12.91-.89.15-.11.85-.9.15-.1.85-.91.15-.09.89H52.12l-.17,1-.85.11-.15.9-.85.09-.16.94H48.09L48,94.4l-.89.15-.12.89-1.88.08-.11.93H43.12l-.17,1H41.12l-.17,1H38.07v-2.9l.91-.09v-2h2.9l.19-1H43.9l.14-1,1.88-.1.12-.92h1.84l.18-1,.85-.1.13-.9,1.88-.1.11-.88.86-.13.16-.89.85-.1.14-.9,1.88-.1.1-.88.87-.13.16-.89.85-.11.12-.86.86-.14.17-.89H59l.13.86.93.17v1.85l.93.11.13.87.89.16.11.85.86.13.16.89.84.1.14.87.88.16.11.85.9.15.1.86.86.12.17.94H69l.14,1,1.88.09.11.94h3.85v3l-.89.11v1.88h-4l-.12-.91H68.05Z"/><path class="cls-1" d="M26,93.4h3.91l.14-.91.89,0v3l-.93.08V97.4l-1,.09-.12.93H25V84.53H9.08v-3l.91-.09V79.52H26Z"/><path class="cls-1" d="M31,79.49H49.94v2.9l-.93.13v1.93H31Z"/><path class="cls-1" d="M42.11,74.6l-.11.86-.86.13-.17.89H31c0-1.58,0-3.12,0-4.66,0-.13.32-.36.49-.36,2,0,4,0,6,0,.43,0,.59.17.58.59,0,.77,0,1.54,0,2.36h1.83l.14-.9,1.84-.08.17-.91.92,0,.09,2Z"/><path class="cls-1" d="M70,67.44l-2,.09V69.4l-1,.12v1.9l-1,.09V73.4l-1,.12v1.87l-1,.14v1.91l-2,.09v-1l.9-.13V74.53l1-.16L64,72.54l1-.21V70.48c1,.1,1.07-.39,1-1.11s0-1.2,0-1.86c1.69,0,.68-1.31,1.12-2,1.55,0,.56-1.31,1-2,.56,0,1-.22.9-1h2v2.94l-.91.09Z"/><path class="cls-1" d="M31,64.5h6c0-.37.07-.64.1-.9.91-.31,1-.23,1,.66,0,1.22,0,2.44,0,3.66,0,.45-.15.64-.62.63-2,0-3.93,0-5.9,0-.2,0-.55-.25-.56-.39C31,67,31,65.78,31,64.5Z"/><path class="cls-1" d="M20,64.52h4.95l.15-.94c.91-.27,1-.21,1,.7,0,1.19,0,2.38,0,3.57,0,.55-.19.71-.73.71-1.57,0-3.15,0-4.73,0-.42,0-.68-.08-.67-.59C20,66.86,20,65.75,20,64.52Z"/><path class="cls-1" d="M138,113.43h1v3h-5v-7h5v3l-.85.13-.12.87c-.77,0-1.54,0-2.31.09-.22,0-.57.16-.62.33-.35,1.06,0,1.52,1.09,1.52.36,0,.72,0,1.07,0s.71-.14.69-.66A11.39,11.39,0,0,1,138,113.43Zm-1-2a1.31,1.31,0,0,0,.29-.06l.64-.42c-.23-.15-.45-.4-.69-.43a7,7,0,0,0-1.58,0c-.2,0-.55.25-.56.39,0,.47-.07,1.12.2,1.38C135.82,112.83,136.87,112.28,137,111.46Z"/><path class="cls-1" d="M48,114.49h-.9a1.13,1.13,0,0,0-1.64-.94.83.83,0,0,0-.34.62c0,.74,0,1.48,0,2.29H44v-7h5v4l-.88.12-.1.84Zm-1.48-2.1h0a3,3,0,0,0,1,0,.75.75,0,0,0,.43-.59c0-.42-.13-1.14-.31-1.18a9.08,9.08,0,0,0-2.15,0,.46.46,0,0,0-.35.27c-.37,1,0,1.57,1.06,1.57Z"/><path class="cls-1" d="M51,110.46v-1h3v7H52.94c0-.76,0-1.52,0-2.29s-.5-.63-1-.63-1-.15-.94.64,0,1.49,0,2.29H50v-6h1c0,.25.07.49.07.74,0,1.32,0,1.32,1.34,1.23.82-.05.47-.65.52-1s.12-.87-.56-.84C51.91,110.54,51.44,110.48,51,110.46Z"/><path class="cls-1" d="M133,116.47h-5v-7h1.06v4.12c0,1.8,0,1.8,1.78,1.8,1.09,0,1.09,0,1.09-1.07v-4.86H133Z"/><path class="cls-1" d="M13.06,111.43h1v4c-.6,0-1.13.13-.94,1H9v-7h3v1l-.07.08a7.37,7.37,0,0,0-1.33,0c-.21,0-.53.31-.54.49,0,1.27,0,2.55,0,3.83a.61.61,0,0,0,.3.49,1.14,1.14,0,0,0,1.66-.94c.89.15.95-.4.9-1.1s0-1.21,0-1.82Z"/><path class="cls-1" d="M79,111.43h1v4c-.6,0-1.13.13-.94,1H75v-7h3v1l-.07.08a7.22,7.22,0,0,0-1.32,0c-.22,0-.54.31-.55.49,0,1.27,0,2.55,0,3.83a.61.61,0,0,0,.3.49,1.13,1.13,0,0,0,1.66-.94c.89.15.95-.4.9-1.1s0-1.21,0-1.82Z"/><path class="cls-1" d="M19,115.39v1.08H15v-7h4v1.06c-.76,0-1.53,0-2.29,0s-.63.49-.64.94-.15,1,.65.94,1.48,0,2.29,0v1.13c-.76,0-1.5,0-2.24,0s-.73.38-.7.89-.18,1,.67,1S18.23,115.39,19,115.39Z"/><path class="cls-1" d="M102.06,116.47H101v-7h1.06c0,.75,0,1.52,0,2.28s.49.64.94.64,1,.16.94-.64,0-1.48,0-2.29H105v7h-1.07c0-.8,0-1.57,0-2.33s-.47-.62-.89-.6-1-.23-1,.59S102.06,115.66,102.06,116.47Z"/><path class="cls-1" d="M30,112.39v1.13H28.57c-1.49,0-1.49,0-1.49.91,0,1.18,0,.94,1.53,1,.44,0,.89,0,1.39,0v1.06H26v-7h4v1.07c-.8,0-1.57,0-2.34,0s-.61.47-.59.89-.24,1,.59,1S29.21,112.39,30,112.39Z"/><path class="cls-1" d="M74,112.39v1.13c-.72,0-1.46.06-2.19,0s-.74.47-.76,1,0,1,.79.89,1.38,0,2.14,0v1.06H70v-7h4v1.07c-.79,0-1.56,0-2.32,0s-.63.46-.61.89-.24,1,.59,1S73.2,112.39,74,112.39Z"/><path class="cls-1" d="M86,109.44h4v1.09c-.76,0-1.53,0-2.29,0s-.63.5-.64,1-.13,1,.66.93c.4,0,.82,0,1.28,0v1c-.08,0-.13.09-.18.09-1.76.12-1.76.12-1.76,1.93v1a4.85,4.85,0,0,1-.55.07,3.37,3.37,0,0,1-.52,0Z"/><path class="cls-1" d="M63,109.45v1c-1-.12-1,.53-1,1.24,0,.92,0,1.83,0,2.74,0,.68.08,1.11.94,1v1.06H60v-1c.85.09,1-.36,1-1.09a24.29,24.29,0,0,1,0-2.83c0-.69-.08-1.15-1-1v-1Z"/><path class="cls-1" d="M111,109.47v1.06a7.79,7.79,0,0,1-1,0c-.83-.12-1,.25-1,1,0,1.63,0,3.26,0,4.93h-1.14V114c0-.92,0-1.83,0-2.75,0-.58-.18-.81-.77-.75-.37,0-.76,0-1.19,0v-1.06Z"/><path class="cls-1" d="M91,116.47v-1c1,.11,1-.53,1-1.25,0-.91,0-1.83,0-2.74,0-.67-.09-1.1-.94-1v-1.05h3v1c-.85-.09-1,.37-1,1.1a22.11,22.11,0,0,1,0,2.82c0,.69.08,1.16,1,1v1Z"/><path class="cls-1" d="M38,110.53v-1.06h5v1a4.34,4.34,0,0,1-.63.07c-1.44,0-1.29-.2-1.29,1.37s0,3,0,4.55H39.94v-3.19a15.76,15.76,0,0,1,0-1.82c.08-.77-.23-1-1-.91A8.23,8.23,0,0,1,38,110.53Z"/><path class="cls-1" d="M127,115.39v1.07h-4v-7h1.07c0,1.69,0,3.35,0,5,0,.8.25,1,1,1S126.29,115.39,127,115.39Z"/><path class="cls-1" d="M55,109.42h1v2.14c0,1,0,2,0,3.07,0,.57.14.81.75.77s1.42,0,2.2,0v1.07H55Z"/><path class="cls-1" d="M34,112.49c-.7-.06-1,.21-.91,1,.07,1,0,2,0,3H32v-7h1c-.05.7.19,1.1,1,1v2Z"/><path class="cls-1" d="M96,115.42c.78,0,1.55,0,2.32,0s.61-.45.57-.84.3-1-.54-1H97v-1.06h3v4H96v-1Z"/><path class="cls-1" d="M66,112.49H64v-3h5v1.07c-1,0-2,0-3,0a3.66,3.66,0,0,0-1,.35l.76.7.2-.13v1Z"/><path class="cls-1" d="M67,113.43h2v3H64v-1.07c1,0,2,0,3,0a2.91,2.91,0,0,0,.94-.35l-.76-.69-.2.13v-1Z"/><path class="cls-1" d="M35.05,114.42c.7.06,1-.2.91-1-.07-1.31,0-2.64,0-4H37v7H36c0-.64-.11-1.19-1-.91V114.5Z"/><path class="cls-1" d="M21.05,110.5v4.92l-.08.07H20v-5.06h1Z"/><path class="cls-1" d="M118,110.5v4.92l-.07.07h-1v-5.06h1Z"/><path class="cls-1" d="M21,110.43v-1H25v2H24c.12-.93-.41-1-1.11-1s-1.22,0-1.83,0Z"/><path class="cls-1" d="M96,110.5v4.92l-.07.07H95v-5.06h1Z"/><path class="cls-1" d="M118,110.43v-1h4v2h-1c.12-.93-.41-1-1.11-1s-1.22,0-1.83,0Z"/><path class="cls-1" d="M21.05,115.42c.61,0,1.22,0,1.83,0s1.33.12,1.06-1H25v2H21v-1Z"/><path class="cls-1" d="M118,115.42c.61,0,1.22-.06,1.83,0s1.23,0,1.11-1h1v2h-4v-1Z"/><path class="cls-1" d="M96,110.43v-1h4v1H96Z"/><path class="cls-1" d="M35,114.5H34v-2l.07-.07h1v2Z"/><path class="cls-1" d="M48,114.42h1v2H48v-2Z"/><path class="cls-1" d="M12.05,110.42h1v1l-.08.07H12v-1Z"/><path class="cls-1" d="M78,110.42h1v1l-.08.07H78v-1Z"/><path class="cls-1" d="M66,112.42h1v1l-.07.07H66v-1Z"/><path class="cls-2" d="M16,43.56h5v2c-1.56,0-3.07,0-4.59,0-.14,0-.36-.31-.38-.49A11.92,11.92,0,0,1,16,43.56Z"/><path class="cls-2" d="M35,43.56h5v2c-1.56,0-3.08,0-4.59,0-.14,0-.36-.3-.38-.49A11.92,11.92,0,0,1,35,43.56Z"/><path class="cls-1" d="M47,55.48H46v-1h1Z"/><path class="cls-1" d="M117,59.46l.09-.89.88-.11.14-.89.86-.11.14-.9.86-.09.14-.92.86-.08.14-.92.87-.08.11-.87.9-.15.1-.86.9-.14.1-.86.9-.14.1-.86.9-.14.1-.86.91-.15.09-.91h1.9l.1-1h5.86l.15.93h2.86l.12,1,.88.09.11.87.9.15.1.85.93.15v1.84l1,.17v1.85l1,.13v2.87l1,.12v2.87l1,.13V71.4l-.92.15v2.84l-1,.16V76.4l-1,.13V78.4l-1,.13v1.88l-1,.11v1.93l.87,0,.16-1,.85-.1.15-.91.86-.08.14-.92h2.86v4.87l-.94.11v2.89l-1,.1v1.86l-1,.16-.08.85-.92.15-.09.86-.87.12-.15.89-.85.11-.15.9-.85.09-.16,1H137l-.11.92-.89.15-.12.89L134,96.5l-.1.92h-1.85l-.18,1h-1.84l-.15,1H126l-.12,1h-4.85V97.56l.87-.15.12-.91h1.88l.11-1h1.85l.17-1,.86-.1v-.93H125l-.1.92h-1.85l-.17,1h-1.85l-.15,1H119l-.13,1H116l-.12,1H113l-.11,1H107V97.51l-2-.1-.1-.89-.87-.11-.15-.89-.85-.11-.16-.94h-1.86V92.55l.85-.11.15-.89.85-.11.15-.9.86-.1.15-.9.85-.09.14-.92.87-.08.11-.88.93-.15V85.58l1-.16V80.56l.93-.11.15-.9.85-.1.15-.91.85-.08.15-.92.86-.08.14-1h7.86l.13-1h1.88l.1-1,.91-.06v13l1,0,.17-.94.9-.12V71.56l1-.1.15-.91.86-.09.13-.92.87-.08.11-.88.9-.14.1-.86.9-.15.1-.85.91-.15.08-.85.92-.14.08-.87.88-.11.15-.9.85-.1.15-.9.85-.1.15-.9.85-.1.15-.91.87-.08v-.93h-2.88l-.14.89-.86.11-.15.9-.85.09-.15.91-.86.09-.13.91-.87.09-.11.87-.9.15-.1.86-.9.14-.1.86-.91.14-.08.86-.92.14-.09.86-.87.12-.15.89-.85.11-.15.89-.86.11-.14.9-.86.09-.15,1H120l-.11.94h-7.88l-.09-.87-.88-.11-.15-.89-.86-.11V65.55l.87-.09.1-.87.9-.15.11-.86.89-.14.1-.86.91-.14.09-.86.91-.14.09-.87.91-.12.09-.88Z"/><path class="cls-1" d="M93,88.51l-.91-.09L92,87.54l-.92-.14L91,86.53l-.87-.11-.15-.89-.85-.11-.15-.9-.86-.1-.14-.91-.86-.08L87,82.51l-.88-.08L86,81.55l-.89-.15L85,80.55l-.9-.15-.1-.85-.91-.15L83,78.54l-.92-.13L82,77.54l-.88-.11-.15-.9L80,76.42V74.54l-1-.11V69.58l.92-.15V67.59l1-.15.09-.86.91-.14.09-.87.87-.11.15-.9.86-.1.14-.9h1.86l.1.86.9.15.1.85.9.15.1.85.9.15.1.85.91.15.08.86.92.14.08.86.92.14.09.87.87.11.15.89.85.11.15.89.85.11.15.9.86.09.14.91.86.09.14.91.87.09.11.87.89.15.11.86.9.14.1.86.9.15.09.85.91.14.09.87.88.11.15.9.85.1.15.89.86.12v2.84l-.88.14-.1.86-.91.15-.08.85-.92.14-.08.87-.88.11-.15.89-.85.11-.15.9H94.07L94,89.54l-.91-.15Z"/><path class="cls-1" d="M104,78.52l-.9-.09-.09-.88-.91-.15-.09-.86-.87-.11-.15-.9-.86-.1-.14-.89-.86-.11-.15-.9-.85-.1-.15-.91-.86-.08-.13-.92-.87-.08L96,70.56l-.9-.15-.1-.85-.9-.15-.1-.85-.91-.15L93,67.56l-.92-.15L92,66.55l-.91-.13L91,65.55l-.87-.11-.15-.9-.86-.1-.14-.9-.86-.1-.14-.9-.87-.1V57.59l.91-.15V55.6l1-.16.1-.85.91-.15.08-.85.92-.15.08-.86.92-.13.09-.88h1.86l.14.9.86.08.14.92.87.08.13.92.87.08.11.88.9.15.1.85.9.14.1.86.9.14.1.86.9.15.1.85.91.15.08.85.92.14.08.87.92.13.08.88.88.1.15.9.85.1.15.9.85.1.15.9.91.11v5.88l1,.11v1.9l1,.1v2.87l-.87.1-.15.9-.85.1-.15.9-.85.1-.15.9h-2.85Z"/><path class="cls-1" d="M104.94,40.59l.08.86.92.13.08.88.88.1.15.9.85.1.15.9.85.1.15.9.85.1.15.9.85.1.15.91.86.08.14.92.86.08.14.92.86.08.13.92.88.08.11.88.9.15.1.85.89.15.11.85.9.15v1.86l-.87.1-.15.9-.85.1-.15.89-.85.11-.15.9-.85.1-.15.91-.86.08-.14.91-.86.09-.13.91-.88.09-.11.88-.89.14-.11.87h-1.88l-.09-.87-.88-.11-.15-.9-.85-.1-.15-.89-.85-.11-.15-.9-.85-.09-.15-.91-.86-.09-.14-.91-.86-.09-.13-.91-.88-.09-.11-.87-.89-.15-.11-.86-.89-.14L99,53.57l-.9-.14L98,52.57l-.91-.14L97,51.57l-.91-.14L96,50.57l-.91-.14V47.57l.87-.1.15-.9.91-.11V44.57l1-.09.13-.92.87-.08.12-.88.89-.15.11-.9h1.88l.12-1Z"/><path class="cls-1" d="M120.94,35.57l.08.9.88.1.14.9.86.1.14.9.86.1.15.9.85.09.15.92.85.08.15.92.86.08.13.91.87.09.13.91.87.09.13.91.89.09.06.94h-2l-.12,1H126l-.09,1-.92.13-.08.88-.88.11-.15.89-.85.1-.15.9-.85.11-.15.89-.85.11-.15.9h-1.86l-.1-.87-.9-.15-.1-.85-.9-.15-.1-.85-.9-.15-.1-.85-.9-.15-.1-.85-.91-.15-.08-.85-.92-.15-.08-.86-.92-.13-.08-.87-.92-.13-.08-.87-.88-.11-.15-.9-.85-.1-.15-.9-.85-.1-.15-.9-.86-.1-.14-.89-.87-.11V36.57l.87-.09.11-.87.9-.15.1-.85.9-.15.11-.91h1.87l.13-1h5.88l.1.92h1.9l.09,1,.88.1.14.9Z"/><path d="M138,113.43a11.39,11.39,0,0,0,0,1.31c0,.52-.2.69-.69.66s-.71,0-1.07,0c-1.09,0-1.44-.46-1.09-1.52,0-.17.4-.31.62-.33.77-.06,1.54-.06,2.31-.09Z"/><path d="M137,111.46c-.11.82-1.16,1.37-1.7.85-.27-.26-.21-.91-.2-1.38,0-.14.36-.36.56-.39a7,7,0,0,1,1.58,0c.24,0,.46.28.69.43l-.64.42A1.31,1.31,0,0,1,137,111.46Z"/><path d="M46.49,112.39h-.33c-1,0-1.43-.62-1.06-1.57a.46.46,0,0,1,.35-.27,9.08,9.08,0,0,1,2.15,0c.18,0,.29.76.31,1.18a.75.75,0,0,1-.43.59,3,3,0,0,1-1,0Z"/><path d="M51,110.46c.47,0,.94.08,1.4.06.68,0,.6.44.56.84s.3,1-.52,1c-1.3.09-1.32.09-1.34-1.23,0-.25,0-.49-.07-.74Z"/><path d="M12,110.5v1h1c0,.61-.06,1.22,0,1.82s0,1.25-.9,1.1a1.14,1.14,0,0,1-1.66.94.61.61,0,0,1-.3-.49c0-1.28,0-2.56,0-3.83,0-.18.33-.45.54-.49A7.37,7.37,0,0,1,12,110.5Z"/><path d="M78,110.5v1h1c0,.61-.06,1.22,0,1.82s0,1.25-.9,1.1a1.13,1.13,0,0,1-1.66.94.61.61,0,0,1-.3-.49c0-1.28,0-2.56,0-3.83,0-.18.33-.45.55-.49A7.22,7.22,0,0,1,78,110.5Z"/></svg>