<svg id="Layer_1" data-name="Layer 1" xmlns="http://www.w3.org/2000/svg" xmlns:xlink="http://www.w3.org/1999/xlink" viewBox="0 0 150 150"><defs><style>.cls-1{fill:none;}.cls-2{fill:#fff;}.cls-3{fill:#f1f2f3;}.cls-4{clip-path:url(#clip-path);}.cls-5{clip-path:url(#clip-path-2);}.cls-6{fill:#f3f3f3;}</style><clipPath id="clip-path"><path class="cls-1" d="M9.94,119.76s58.93-25.11,130.12,0V147.4H9.94Z"/></clipPath><clipPath id="clip-path-2"><rect class="cls-1" x="46.93" y="122.25" width="62.66" height="8.56"/></clipPath></defs><path class="cls-2" d="M56.3,78.41l-1.76,14,3.46,5H84.47l13.21.48s.78-7.08,1.18-7.52-.77-11.55-.77-11.55l-3.18-6.49Z"/><path class="cls-2" d="M51.47,133.2l-.67-8.51-2.17.18-.38-4.42-1.41.14-1.67.18-4.57.55-4,.49-2.81-22.2,4.05-.5c1.62-.2,3.26-.4,4.88-.58l4-.45v0l3.06-.29,2.05-.17c1.22-.1,2.45-.2,3.67-.28l4.63-.31v0c1.59-.09,3.22-.17,4.86-.23v0l7.47-.21v0c2,0,4-.05,5.88-.05l5.78.07c2,0,4,.1,5.93.17l3.75.17c1.68.08,3.38.18,5.06.29l2.06.15,1.37.1v0l7,.67c2.78.28,5.56.59,8.31.93l4.05.5-.84,6.64L118,111l-.9-.11-1.23,10.55-4-.46-4.61-.5-3.74-.35-1,13-4.06-.3c-1.5-.11-2.24-.16-3.74-.25l-1.49-.09L90,132.28l-1,0c-2.52-.09-5.07-.16-7.57-.2H75.41l-2.92,0-4.66.13-3.23.13-5.54.31c-1.43.09-2.12.14-3.53.26Zm4.23-14.28.67,8.55,2.34-.16.87-.06,4.76-.26,3.32-.14,4.7-.12,3,0h5.21l1,0c2.54,0,5.13.11,7.69.2l1,0c1.33.06,2,.09,3.31.17l1.51.08,2.55.17,1-13,2.67.21,2.69.22,3.86.36,3.4.37,1.24-10.6,2.74.33.44-.76,0-.24c-3.08-.37-6.21-.7-9.31-1l-1.66-.15-4.2-.33-2-.14c-1.71-.12-3.44-.22-5.15-.3l-3.51-.16c-2.66-.09-5.39-.16-8.09-.21l-3.42,0c-2.74,0-5.59,0-8.48.1l-2.11.06c-2.54.08-5.07.19-7.51.33l-.33,0h0l-1.76.11-2.3.15-3.57.28-2,.17c-1.72.15-3.44.31-5.15.49l-1.75.19-3.58.42,1.46,11.62,3.38-.4,1.71-.18c1.38-.15,2.78-.28,4.16-.41l2.66-.24.39,4.46Z"/><path class="cls-3" d="M52.83,131.62l-.67-8.53-2.19.19-.38-4.44-2.9.29-1.68.18-4.59.54-2.58.32-2.43-19.28,2.59-.32c1.61-.2,3.25-.39,4.86-.57l2.55-.29h0c1.48-.15,3-.29,4.45-.42l2-.17c1.21-.1,2.44-.2,3.66-.28l3.32-.22h0L60,98.57h0c2.11-.12,4.27-.22,6.45-.29h0l4.52-.13h0c2.5-.05,5-.07,7.35-.07h1.35l3,.05c2.45,0,4.92.11,7.34.19l3.56.16c1.73.09,3.49.19,5.22.3l2,.15c1,.07,2,.14,3,.23v0l4.06.38c3.21.31,6.44.67,9.6,1.06l2.59.32-.62,4.87-2.12,3.64-1.4-.18-1.23,10.57L112,119.5c-1.53-.18-3.09-.35-4.62-.5l-3.8-.36-1.46-.12-1,13-2.59-.19c-1.51-.11-2.25-.16-3.76-.25l-1.5-.09-3.25-.16-1,0c-2.54-.09-5.1-.16-7.61-.2h-1c-1.1,0-1.75,0-2.58,0H75.4l-2.94,0-4.67.12-3.25.14-5.58.31c-1.43.09-2.13.14-3.55.26Zm1.52-11.11.67,8.54h.21c1.43-.12,2.13-.17,3.58-.26l.87-.06,4.74-.26,3.29-.13,4.69-.13,3,0H78l2.61,0h1c2.53,0,5.11.11,7.66.21l1,0c1.32,0,2,.09,3.29.16l1.5.09c1.53.09,2.27.14,3.79.25l.21,0,1-13,1.2.1,2.67.22,3.84.36c1.54.16,3.1.33,4.64.51l.21,0,1.23-10.59,2.23.27,1.09-1.85.25-2-.21,0c-3.5-.43-7.07-.82-10.61-1.16l-1.67-.15-4.22-.33-2-.14c-1.72-.12-3.46-.22-5.18-.31l-3.52-.15c-2.68-.1-5.41-.17-8.13-.21l-3.44,0c-2.75,0-5.61,0-8.52.1l-2.12.05c-2.55.08-5.09.2-7.54.33H60l-2,.12-1,.07h0l-1.24.08c-1.2.08-2.41.18-3.61.28l-2,.17c-1.71.15-3.45.32-5.16.5l-1.77.19c-1.62.18-3.25.37-4.85.57l-.21,0,1.83,14.54.21,0,4.62-.54,1.7-.19c1.37-.14,2.76-.28,4.13-.4l1.19-.11.38,4.45Z"/><path d="M117.24,101.76c-3.53-.44-7.11-.83-10.65-1.16h0l-.5,0-1.18-.11h0c-1.41-.13-2.83-.24-4.24-.34l-1-.08h-.37l-.63-.05c-1.73-.11-3.47-.21-5.2-.3L92,99.59h0l-1,0h-.32l-.86,0c-2.7-.1-5.44-.17-8.15-.22H78.29c-2.83,0-5.7,0-8.54.1h0l-.89,0-1.25,0h0c-2.58.08-5.12.19-7.57.33h0l-2.12.13h0l-1.4.09-.75,0h-.13c-1.21.08-2.43.18-3.64.28l-1,.08h-.13l-.23,0h0l-.63.06c-1.72.15-3.47.32-5.19.5l-.39,0h0l-.78.09-.22,0h0l-.4,0c-1.61.18-3.24.38-4.85.58l-1.4.17,2.14,16.91,1.39-.17,4.61-.55.47-.05,1.21-.13c1.37-.14,2.75-.28,4.11-.4l.39,4.45,1.4-.12.79-.07.67,8.54,1.4-.11c1.43-.12,2.13-.17,3.56-.26l.88-.06,4.72-.26,3.28-.13,4.67-.12,3,0h6.14c2.54,0,5.11.11,7.63.21h.28l.7,0,3.27.16.76,0,.74.05c1.52.09,2.26.14,3.77.25l1.4.1,1-13,2.66.22,1.26.11h0l1.25.11,1.32.14,4.63.5,1.39.16,1.23-10.58.9.11.92.11.46-.8,1-1.69.15-.25.44-3.44Z"/><path class="cls-3" d="M40.1,117.28q-.9-7.07-1.79-14.13l4.84-.57q.78,7.07,1.57,14.15C43.18,116.9,41.64,117.08,40.1,117.28Z"/><path class="cls-3" d="M53.28,108.23l-1-4.75-.15-1.76c1.5-.13,3-.24,4.5-.34l1,14.21c-1.65.11-3.29.23-4.93.37-.92-2.13-1.85-4.24-2.79-6.35l-.37,0c.35,1.58.7,3.15,1,4.73l.16,1.76c-1.42.13-2.85.26-4.27.41q-.73-7.07-1.48-14.15c1.72-.18,3.44-.35,5.16-.5q1.42,3.18,2.8,6.37Z"/><path class="cls-3" d="M58.25,106l-.19-3a1.78,1.78,0,0,1,1.85-1.88c2.82-.17,5.65-.29,8.47-.37l.06,1.75-.7,1.85L63,104.6l0,.65,4.27,2.41A2.39,2.39,0,0,1,68.66,110l.09,3.23A1.75,1.75,0,0,1,67,115.1q-4.05.16-8.11.4L58.62,112c1.79-.11,3.57-.21,5.36-.29l0-.93c-1.41-.79-2.83-1.58-4.25-2.35A2.41,2.41,0,0,1,58.25,106Z"/><path class="cls-3" d="M69.15,104.37l-.1-3.58c3.65-.09,7.29-.13,10.94-.11l0,1.77c-.31.72-.47,1.08-.78,1.81H76.87l0,10.66-4.66,0c-.07-3.55-.13-7.1-.2-10.66Z"/><path class="cls-3" d="M89.85,100.91q.84,6.27,1.62,12.55c0,.7,0,1.06-.09,1.76l-4.66-.17c-.07-1.15-.11-1.73-.19-2.88l-2.07,0c-.14,1.14-.21,1.71-.36,2.86-1.55,0-3.09,0-4.64-.06v-1.77q1.09-6.24,2.26-12.45C84.44,100.74,87.14,100.81,89.85,100.91Zm-3.57,7.69c-.1-1.41-.21-2.82-.32-4.24h-.53l-.54,4.22Z"/><path class="cls-3" d="M100.72,108.13c-.09-1.62-.18-3.24-.28-4.86,0-.7.08-1.06.13-1.76q2.25.17,4.5.36-.63,7.09-1.24,14.18l-4.93-.39Q98,112.3,97.12,109l-.37,0,.3,4.83-.11,1.77c-1.43-.09-2.85-.18-4.28-.25q.36-7.11.71-14.22c1.73.09,3.45.19,5.17.31q.92,3.36,1.79,6.73Z"/><path class="cls-3" d="M105.86,105.53l.32-3.56c3.64.34,7.26.73,10.89,1.18l-.23,1.76-1,1.7-2.3-.28-1.23,10.59q-2.32-.27-4.65-.51l1.07-10.6Z"/><path class="cls-2" d="M52.34,120.47l-.25-2.87q4.15-.36,8.33-.6l.08,1.42-.5,1.49-1.77.11c.19,2.85.37,5.7.56,8.55-1.43.09-2.15.14-3.58.26-.22-2.85-.45-5.7-.67-8.54C53.66,120.35,53.22,120.39,52.34,120.47Z"/><path class="cls-2" d="M63.34,128.3A1.37,1.37,0,0,1,61.82,127c-.16-2.86-.31-5.73-.47-8.59a1.39,1.39,0,0,1,1.42-1.5q3-.14,5.94-.24A1.39,1.39,0,0,1,70.24,118c.08,2.86.15,5.73.22,8.59a1.37,1.37,0,0,1-1.41,1.46C67.15,128.13,65.24,128.21,63.34,128.3Zm1.78-8.66.24,5.71,1.44-.06-.21-5.7Z"/><path class="cls-2" d="M76.85,116.5h3.54v1.42c-.47,1.32-.93,2.64-1.39,4q.81,2.31,1.59,4.64V128c-1.43,0-2.14,0-3.57,0l-1-4.42h-.67c0,1.48,0,3,0,4.43-1.43,0-2.15,0-3.57,0l-.24-11.44,3.71,0,0,4.15H76C76.27,119.27,76.56,117.89,76.85,116.5Z"/><path class="cls-2" d="M81.55,128l.16-11.44q4,.06,8,.21l-.06,1.42L89,119.59c-1.45,0-2.18-.08-3.63-.11l0,1.27c1.45,0,2.17.06,3.61.12l-.11,2.86c-1.43-.06-2.14-.08-3.57-.12l0,1.57c1.37,0,2.75.08,4.13.14,0,1.14-.07,1.71-.11,2.86C86.66,128.08,84.11,128,81.55,128Z"/><path class="cls-2" d="M96.35,122.39c-.1-1.56-.14-2.34-.24-3.9l.08-1.42,3.44.24-.84,11.41-3.8-.25c-.45-1.8-.92-3.59-1.39-5.37l-.29,0c.11,1.55.16,2.33.26,3.88l-.08,1.42c-1.32-.07-2-.11-3.29-.16.16-3.81.33-7.63.5-11.44l4,.2c.47,1.8.94,3.59,1.4,5.39Z"/><g class="cls-4"><path class="cls-3" d="M40.1,117.28q-.9-7.07-1.79-14.13l4.84-.57q.78,7.07,1.57,14.15C43.18,116.9,41.64,117.08,40.1,117.28Z"/><path class="cls-3" d="M53.28,108.23l-1-4.75-.15-1.76c1.5-.13,3-.24,4.5-.34l1,14.21c-1.65.11-3.29.23-4.93.37-.92-2.13-1.85-4.24-2.79-6.35l-.37,0c.35,1.58.7,3.15,1,4.73l.16,1.76c-1.42.13-2.85.26-4.27.41q-.73-7.07-1.48-14.15c1.72-.18,3.44-.35,5.16-.5q1.42,3.18,2.8,6.37Z"/><path class="cls-3" d="M58.25,106l-.19-3a1.78,1.78,0,0,1,1.85-1.88c2.82-.17,5.65-.29,8.47-.37l.06,1.75-.7,1.85L63,104.6l0,.65,4.27,2.41A2.39,2.39,0,0,1,68.66,110l.09,3.23A1.75,1.75,0,0,1,67,115.1q-4.05.16-8.11.4L58.62,112c1.79-.11,3.57-.21,5.36-.29l0-.93c-1.41-.79-2.83-1.58-4.25-2.35A2.41,2.41,0,0,1,58.25,106Z"/><path class="cls-3" d="M69.15,104.37l-.1-3.58c3.65-.09,7.29-.13,10.94-.11l0,1.77c-.31.72-.47,1.08-.78,1.81H76.87l0,10.66-4.66,0c-.07-3.55-.13-7.1-.2-10.66Z"/><path class="cls-3" d="M89.85,100.91q.84,6.27,1.62,12.55c0,.7,0,1.06-.09,1.76l-4.66-.17c-.07-1.15-.11-1.73-.19-2.88l-2.07,0c-.14,1.14-.21,1.71-.36,2.86-1.55,0-3.09,0-4.64-.06v-1.77q1.09-6.24,2.26-12.45C84.44,100.74,87.14,100.81,89.85,100.91Zm-3.57,7.69c-.1-1.41-.21-2.82-.32-4.24h-.53l-.54,4.22Z"/><path class="cls-3" d="M100.72,108.13c-.09-1.62-.18-3.24-.28-4.86,0-.7.08-1.06.13-1.76q2.25.17,4.5.36-.63,7.09-1.24,14.18l-4.93-.39Q98,112.3,97.12,109l-.37,0,.3,4.83-.11,1.77c-1.43-.09-2.85-.18-4.28-.25q.36-7.11.71-14.22c1.73.09,3.45.19,5.17.31q.92,3.36,1.79,6.73Z"/><path class="cls-3" d="M105.86,105.53l.32-3.56c3.64.34,7.26.73,10.89,1.18l-.23,1.76-1,1.7-2.3-.28-1.23,10.59q-2.32-.27-4.65-.51l1.07-10.6Z"/></g><g class="cls-5"><path class="cls-6" d="M52.34,120.47l-.25-2.87q4.15-.36,8.33-.6l.08,1.42-.5,1.49-1.77.11c.19,2.85.37,5.7.56,8.55-1.43.09-2.15.14-3.58.26-.22-2.85-.45-5.7-.67-8.54C53.66,120.35,53.22,120.39,52.34,120.47Z"/><path class="cls-6" d="M63.34,128.3A1.37,1.37,0,0,1,61.82,127c-.16-2.86-.31-5.73-.47-8.59a1.39,1.39,0,0,1,1.42-1.5q3-.14,5.94-.24A1.39,1.39,0,0,1,70.24,118c.08,2.86.15,5.73.22,8.59a1.37,1.37,0,0,1-1.41,1.46C67.15,128.13,65.24,128.21,63.34,128.3Zm1.78-8.66.24,5.71,1.44-.06-.21-5.7Z"/><path class="cls-6" d="M76.85,116.5h3.54v1.42c-.47,1.32-.93,2.64-1.39,4q.81,2.31,1.59,4.64V128c-1.43,0-2.14,0-3.57,0l-1-4.42h-.67c0,1.48,0,3,0,4.43-1.43,0-2.15,0-3.57,0l-.24-11.44,3.71,0,0,4.15H76C76.27,119.27,76.56,117.89,76.85,116.5Z"/><path class="cls-6" d="M81.55,128l.16-11.44q4,.06,8,.21l-.06,1.42L89,119.59c-1.45,0-2.18-.08-3.63-.11l0,1.27c1.45,0,2.17.06,3.61.12l-.11,2.86c-1.43-.06-2.14-.08-3.57-.12l0,1.57c1.37,0,2.75.08,4.13.14,0,1.14-.07,1.71-.11,2.86C86.66,128.08,84.11,128,81.55,128Z"/><path class="cls-6" d="M96.35,122.39c-.1-1.56-.14-2.34-.24-3.9l.08-1.42,3.44.24-.84,11.41-3.8-.25c-.45-1.8-.92-3.59-1.39-5.37l-.29,0c.11,1.55.16,2.33.26,3.88l-.08,1.42c-1.32-.07-2-.11-3.29-.16.16-3.81.33-7.63.5-11.44l4,.2c.47,1.8.94,3.59,1.4,5.39Z"/></g><path class="cls-2" d="M120,8a6.16,6.16,0,0,0-.21-1.2,5.56,5.56,0,0,0-1.38-2.46,5.64,5.64,0,0,0-2.38-1.42,4.36,4.36,0,0,0-.44-.12l-.16,0-.15,0-.44-.07c-.19,0-.37,0-.53,0a5,5,0,0,0-.53,0h-.06a14.14,14.14,0,0,0-1.82.13c-.29,0-.56.08-.81.12l-.25,0-.3.06h0l-.42.11a18.51,18.51,0,0,0-3.38,1.16A23.81,23.81,0,0,0,101,8c-.77.66-1.56,1.42-2.41,2.3s-1.46,1.6-2.17,2.48A55.33,55.33,0,0,0,92.66,18a84.93,84.93,0,0,0-5.89,11.28c-.35.79-.8,1.84-1.22,2.93s-.75,2-1,2.87a23,23,0,0,0-9-2.06h-.32l-4.36.19,2.25,2.88L72,36.27h0l-.09,0a17.88,17.88,0,0,0-2.59.76c0-.11-.07-.23-.11-.34-.29-.9-.62-1.83-1-2.83s-.77-2-1.12-2.77c-.43-1-.84-1.86-1.28-2.74-.53-1.05-1-1.91-1.47-2.7a26.47,26.47,0,0,0-1.8-2.63l-.34-.41-.17-.2,0,0L61.63,22l-.18-.19h0c-.17-.17-.34-.33-.49-.46l-.15-.14,0,0a6.06,6.06,0,0,0-.53-.42l-.17-.13-.66-.52-.75,0h0a15.79,15.79,0,0,0-2.06.15c-.72.09-1.37.19-2,.32a31.44,31.44,0,0,0-3.89,1l-.48.15-.47.18c-.25.08-.48.18-.71.27l-.25.11h0l-.39.18-.08,0-.54.26-.48.26-.08,0a4,4,0,0,0-.51.37l-.18.16-.18.2a5.77,5.77,0,0,0-.86,1.26h0a9,9,0,0,0-.49,1.1,17.57,17.57,0,0,0-.64,2,34.93,34.93,0,0,0-.77,3.92c-.17,1.21-.3,2.49-.39,3.91S43,38.73,43,40a36.57,36.57,0,0,0,.25,4,21.36,21.36,0,0,0,.87,4.12,10.08,10.08,0,0,0,1,2.21h0a6.59,6.59,0,0,0,.94,1.16h0l.22.2.05,0,.3.23.06,0a2.1,2.1,0,0,0,.37.23l0,0a3.31,3.31,0,0,0,.39.19l0,0a5.19,5.19,0,0,0,1.65.41h.35a4.65,4.65,0,0,0,1.49-.24,5.46,5.46,0,0,0,1.47-.77,7.58,7.58,0,0,0,1-1,10.76,10.76,0,0,0,1.36-2A18.86,18.86,0,0,0,55.89,47a32.56,32.56,0,0,0,1.29-3.79c.09-.32.18-.65.26-1l2.38,2.39A32.48,32.48,0,0,0,57,49.56a41.62,41.62,0,0,0-1.82,4.49c-.9.09-1.79.22-2.65.35l-1,.14A1.75,1.75,0,0,0,50,56.7c.16.83.32,1.51.48,2.15A2.46,2.46,0,0,0,52,60.63a6.28,6.28,0,0,1,.25.73l.36,1.42c.05.19.09.39.14.58l-.16.19c-3,3.69-4.94,6.69-4.4,9.35,1.33,7,8.41,10.53,8.71,10.67l2.34,1.14.47-1.48a15.3,15.3,0,0,0,4.1,1.89c2,3.26,4.87,5.36,7.84,5.68L73,94.38l4.52.13,4.77.73,1.56-4.46a8.55,8.55,0,0,0,5.5-2.63,11,11,0,0,0,2.05-3.06l.47-.12v0a16.22,16.22,0,0,0,3.47-1.55v2.45l3.38-2c5.57-3.24,8.71-7.35,8.6-11.27-.09-3.56-3.25-6.95-5-8.55-.15-1.18-.33-2.35-.54-3.47l.08,0a2.2,2.2,0,0,0,1.3-1.35c.24-.84.42-1.65.63-2.55a1.73,1.73,0,0,0-.26-1.35,1.82,1.82,0,0,0-1.27-.75l-.85-.12-1.19-.17a38,38,0,0,0-3.45-7.88,29.78,29.78,0,0,0-3.9-5.26l.59-.63c.64-.64,1.35-1.29,2.15-2,1.24-1.06,2.51-2.06,3.85-3.11l.87-.68c1.9-1.49,3.45-2.73,4.88-3.93.88-.73,1.67-1.41,2.41-2.07s1.6-1.47,2.35-2.2l.56-.56.57-.59c.37-.38.75-.79,1.12-1.2.71-.8,1.42-1.65,2.1-2.53A37.69,37.69,0,0,0,117.93,16a23.46,23.46,0,0,0,1.37-3.18,15.44,15.44,0,0,0,.5-1.77,11.2,11.2,0,0,0,.27-2A6.86,6.86,0,0,0,120,8Z"/><path class="cls-2" d="M108,28.34s-7.06,3.6-9,13.47c-1.34,6.81.85,9.69,1.22,12.44,1,7-8.58-.81-8.58-.81L87.33,37.9Z"/><path class="cls-2" d="M50,56.7s-.73-3.24-1.92-4.57,4.63-2.21,4.63-2.21l3.16-7.69,2.67-1.69,2.14,2.67V46l-3.46,5.41-2,4Z"/><path class="cls-3" d="M77.66,73.71s-1.89,2.4.09,8.67l-.61-.1s-2.5-4-4.85-4.07l.94-2.74Z"/><path class="cls-3" d="M63.5,44.93s-.91,3.78.62,6.53,5,4.22,5,4.22.6.62-.38.41-11.58,0-11.58,0,.63-4.08.77-4.43,3.86-5.9,3.86-6S63.31,44,63.5,44.93Z"/><path class="cls-3" d="M74.24,43.71c-.15,1.14-.39,2.26-.51,3.41,0,.49.18,2.46-.5,2.63-.38.09-2.54,1-2.63.63a24.34,24.34,0,0,1,1.26-3.68c0-.14,2.09-3.28,2.09-3.28"/><path class="cls-3" d="M57.17,21.64l1.32,3.92a20.56,20.56,0,0,0-4.84,1.82c-1.9,1.13-2,16.34-1.59,17.83s-3,6-3.65,5.17a24,24,0,0,1-2.81-11c.19-4.63,2.16-13.9,2.16-13.9l6.83-2.55Z"/><path class="cls-3" d="M65.84,79.54s1.09,3.79,3.44,4.95a42.18,42.18,0,0,0,6.58,2.21s1,1.91-1.73,1.9H71.35l-3.7-1.76L65.19,83.3Z"/><path class="cls-3" d="M53.66,65.58a12.83,12.83,0,0,0,3,4.6c1.47,1.17,3.36,5.47,4.63,7.14a9.87,9.87,0,0,0,4.33,3.26c.61.12-1.1,2.46-1.1,2.46l-5.64-3.5-1.05,1.83L53,78.05l-2.8-5.67,1-2.87Z"/><rect x="80.81" y="60.16" width="18.21" height="1.86"/><rect x="81.75" y="64.49" width="16.34" height="1.86"/><rect x="55.02" y="60.16" width="18.21" height="1.86"/><rect x="55.95" y="64.49" width="16.34" height="1.86"/><path d="M63.33,71a15.11,15.11,0,0,1-4.44-.65A5.4,5.4,0,0,1,56,68a11.83,11.83,0,0,1-1.51-3.76c-.29-1.08-.54-2.16-.82-3.25a6.68,6.68,0,0,0-.33-1,1.17,1.17,0,0,0-.77-.73,1.05,1.05,0,0,1-.73-.82c-.18-.69-.33-1.38-.47-2.08-.06-.3,0-.45.35-.49,1.32-.18,2.63-.4,3.95-.52a51,51,0,0,1,7.1-.27c2.34.11,4.69.31,7,.62a29.7,29.7,0,0,1,4.59,1,10.65,10.65,0,0,0,3,.29c1.53,0,2.92-.63,4.38-.86s3-.46,4.57-.63a57.66,57.66,0,0,1,12.39-.05c1.13.12,2.26.3,3.4.46.22,0,.4.16.35.41-.19.82-.38,1.65-.61,2.46a.83.83,0,0,1-.45.43,1.69,1.69,0,0,0-1.08,1.2c-.28,1-.53,2.11-.8,3.16a20,20,0,0,1-1.18,3.53,6,6,0,0,1-4.69,3.56A22,22,0,0,1,90.5,71,18.37,18.37,0,0,1,86,70.4,6.6,6.6,0,0,1,83.09,69a12.24,12.24,0,0,1-2-2.65,37.35,37.35,0,0,1-2.27-4.73c-.11-.25-.23-.49-.34-.74-.36-.81-.77-.94-1.7-.94A1.51,1.51,0,0,0,75.24,61c-.54,1.28-1.11,2.55-1.7,3.8a19,19,0,0,1-2,3.19,6.48,6.48,0,0,1-3.83,2.42A22.75,22.75,0,0,1,63.33,71ZM90.81,56.37c-1.17.06-2,.1-2.84.16a17,17,0,0,0-4.57.92,4,4,0,0,0-1.74,1.09,1.47,1.47,0,0,0-.44,1A11.82,11.82,0,0,0,81.35,61a17.64,17.64,0,0,0,1.16,4.4A6.25,6.25,0,0,0,87,69.17a17.49,17.49,0,0,0,6.49.08,4,4,0,0,0,3.07-2.16,15.49,15.49,0,0,0,1-2.54,10.58,10.58,0,0,0,.33-5.21,2.64,2.64,0,0,0-1.6-2.12,6.56,6.56,0,0,0-1.71-.5C93.23,56.55,91.86,56.46,90.81,56.37Zm-27.53.1H61.55a15.67,15.67,0,0,0-3.2.41,3,3,0,0,0-2.52,2.56A10.47,10.47,0,0,0,55.72,62,12.62,12.62,0,0,0,57,66.74a4.25,4.25,0,0,0,3.19,2.49,17.82,17.82,0,0,0,5.83.08,7.07,7.07,0,0,0,2.77-.94,7,7,0,0,0,2.76-3.7,23.55,23.55,0,0,0,1-4.31,2.08,2.08,0,0,0-.7-2.11,6.2,6.2,0,0,0-2.33-1.08A21,21,0,0,0,63.28,56.47Z"/><path d="M72.45,89.44c-2.88,0-5.83-2.1-7.71-5.54A14.36,14.36,0,0,1,59,81l-.57,1.78-.87-.43c-.28-.13-6.76-3.34-8-9.68-.46-2.24,1.7-5.26,4.11-8.18.2-.25.42-.52.52-.66s.07-.35.11-.58a50.35,50.35,0,0,1,3.91-13.05c3.32-7,8-11.19,14-12.49h0a18.46,18.46,0,0,1,3.61-.24l-2.24-2.88,1.63-.07A22,22,0,0,1,86.9,38a26.31,26.31,0,0,1,8.68,9.11c2.78,4.72,4.6,10.67,5.43,17.67,1,.92,4.82,4.46,4.91,7.89s-2.79,7-7.91,10l-1.27.73V80.64a14.64,14.64,0,0,1-6.34,3.24l0,0c-.58,1.37-2.34,5.51-7.53,5.51h-.16a7.1,7.1,0,0,1-4.92-2.25,9.06,9.06,0,0,1-4.72,2.24Q72.75,89.44,72.45,89.44ZM58.15,78l1,.89a12.87,12.87,0,0,0,6.27,3.44l.44,0,.21.4c1.65,3.23,4.4,5.23,6.84,5a8,8,0,0,0,4.33-2.36l.71-.76.6.84a5.77,5.77,0,0,0,4.18,2.27h.16c3.6,0,5.08-2.39,6-4.48a3.43,3.43,0,0,1,.32-.62l.19-.25.31-.06a12.78,12.78,0,0,0,7.26-4.26L98.43,76v4.42c3.77-2.47,5.87-5.25,5.8-7.74s-3.31-5.83-4.56-6.86l-.26-.22,0-.34C98,52.94,93.36,44,86,39.4a21.75,21.75,0,0,0-8.9-3.15l2.57,3.29-2.09-.31a18.29,18.29,0,0,0-5,.09C64.13,41.17,58.4,49.53,56,63.5a4.19,4.19,0,0,1-.23,1,7.49,7.49,0,0,1-.76,1c-1.13,1.37-4.13,5-3.76,6.78v0c.8,4.23,4.48,6.94,6.18,8Z"/><path d="M85.84,75.47A19.49,19.49,0,0,1,87.57,77a15.39,15.39,0,0,1,1.54,1.77,11.61,11.61,0,0,1,.67,1,6.78,6.78,0,0,1,.53,1.12,4.51,4.51,0,0,1,.29,1.28,3.44,3.44,0,0,1-.19,1.41l-1.29-.56a2.06,2.06,0,0,0,.25-.84,3.38,3.38,0,0,0-.07-1,6.4,6.4,0,0,0-.31-1,8.36,8.36,0,0,0-.47-1,15.64,15.64,0,0,0-1.22-1.93A22.24,22.24,0,0,0,85.84,75.47Z"/><path d="M69.13,75.47c-.44.6-.84,1.23-1.23,1.86s-.73,1.28-1.05,1.94a13.08,13.08,0,0,0-.77,2,7,7,0,0,0-.18,1,2.57,2.57,0,0,0,.06.89l-1.39.22a4,4,0,0,1,.12-1.32,6.77,6.77,0,0,1,.4-1.15,13.67,13.67,0,0,1,1.16-2,21.72,21.72,0,0,1,1.37-1.79C68.1,76.55,68.6,76,69.13,75.47Z"/><path d="M86.82,48.3c-1,.22-2,.47-3,.75s-2,.59-2.88,1a17.38,17.38,0,0,0-2.66,1.33A10.9,10.9,0,0,0,76,53.15L74.8,54.5,75,52.79c0-.11,0-.19,0-.28l.06-.25c0-.17.09-.34.14-.5.09-.33.21-.65.33-1A14.47,14.47,0,0,1,76.49,49a11,11,0,0,1,1.16-1.64,9.76,9.76,0,0,1,.71-.73,6.89,6.89,0,0,1,.78-.65l.3.64c-.37.16-.75.35-1.12.54l-1.09.61c-.37.21-.72.43-1.07.65s-.7.44-1,.67a21.83,21.83,0,0,0-2,1.49,21.32,21.32,0,0,0-1.74,1.68l-.79.85-.55-1,0-.07L70,52a.13.13,0,0,1,0-.08.65.65,0,0,1,0-.13,1,1,0,0,1,0-.23,2,2,0,0,1,0-.41,4.59,4.59,0,0,1,0-.75,7.73,7.73,0,0,1,.34-1.32,13.15,13.15,0,0,1,1.14-2.32q.33-.54.69-1.05c.24-.34.49-.67.76-1a20.69,20.69,0,0,1,1.66-1.85l.13.1-1.12,2.19c-.09.18-.19.36-.27.54l-.27.55-.25.54-.24.55a16.08,16.08,0,0,0-.78,2.2,5.92,5.92,0,0,0-.19,1.06,2.62,2.62,0,0,0,0,.48,1.12,1.12,0,0,0,0,.2.25.25,0,0,1,0,.07h0l0,0-1.33-.14a14,14,0,0,1,2-1.82,20,20,0,0,1,2.2-1.46c.38-.22.77-.43,1.16-.62s.8-.36,1.2-.53a21.35,21.35,0,0,1,2.5-.79l2.84-.72-2.54,1.36A6.25,6.25,0,0,0,78,47.68a6.4,6.4,0,0,0-1.1,1.53A7.17,7.17,0,0,0,76.3,51c-.06.31-.1.62-.13.93l0,.47v.23a1.41,1.41,0,0,0,0,.21l-1-.37a7.86,7.86,0,0,1,2.39-2.31,13,13,0,0,1,3-1.33,17,17,0,0,1,3.14-.65,15.26,15.26,0,0,1,3.17,0Z"/><polygon points="81.35 93.68 76.88 93 76.88 86.47 78.56 86.47 78.56 91.55 80.22 91.8 81.25 88.86 82.84 89.42 81.35 93.68"/><polygon points="77.69 93.11 73.98 93 72.55 89.2 74.13 88.61 75.16 91.35 77.74 91.43 77.69 93.11"/><path d="M71.36,78.89l.74.06A4.21,4.21,0,0,1,74.63,80a10.41,10.41,0,0,1,1.53,2.12,4.53,4.53,0,0,1,1,2.42v.14l.48-.09a5.09,5.09,0,0,0,.92,0A4,4,0,0,1,79,82.79a16.59,16.59,0,0,1,.86-1.47,4.44,4.44,0,0,1,1-1.17,4.66,4.66,0,0,1,2.45-1l.67-.08,0-.67a6.28,6.28,0,0,0-12.39-.22ZM73,77.65a4.95,4.95,0,0,1,9.34.21,6.26,6.26,0,0,0-4.58,4.52C76.67,79.64,75.1,78.08,73,77.65Z"/><rect x="77.14" y="82.28" width="1.4" height="4.42"/><path d="M78.68,86.84H77v-4.7h1.68Zm-1.4-.28H78.4V82.42H77.28Z"/><path d="M84.31,41.76c.15-1,.37-2.06.62-3.07s.55-2,.87-3,.68-2,1-2.93.79-1.93,1.21-2.88a84.82,84.82,0,0,1,5.79-11.1,53.79,53.79,0,0,1,3.65-5.14c.67-.82,1.36-1.62,2.1-2.39s1.5-1.51,2.31-2.21a22.58,22.58,0,0,1,5.43-3.54,17.7,17.7,0,0,1,3.12-1.08l.41-.09.41-.08c.27,0,.54-.1.82-.13A15.27,15.27,0,0,1,113.79,4l.46,0,.46,0,.46.08a4.27,4.27,0,0,1,.48.13,4.14,4.14,0,0,1,1.79,1.06,4,4,0,0,1,1,1.84,4.61,4.61,0,0,1,.17,1,7.13,7.13,0,0,1,0,.92,10.61,10.61,0,0,1-.24,1.73A14.35,14.35,0,0,1,118,12.4a23.43,23.43,0,0,1-1.29,3,36,36,0,0,1-3.46,5.38c-.64.84-1.32,1.65-2,2.44q-.52.6-1.08,1.17l-.55.56-.56.56c-.75.73-1.52,1.45-2.3,2.15s-1.57,1.38-2.37,2.05c-1.6,1.33-3.22,2.63-4.84,3.9s-3.24,2.51-4.78,3.83c-.76.66-1.51,1.34-2.23,2.07a26.6,26.6,0,0,0-2,2.31l-.11-.06a13.89,13.89,0,0,1,1.44-2.82,22.33,22.33,0,0,1,1.92-2.52,45.3,45.3,0,0,1,4.53-4.35c1.57-1.35,3.18-2.64,4.73-4,.78-.66,1.54-1.34,2.29-2s1.48-1.39,2.2-2.11l.53-.54.53-.55c.35-.37.68-.74,1-1.12.66-.75,1.3-1.53,1.9-2.33s1.19-1.62,1.72-2.47,1-1.7,1.5-2.58a20.39,20.39,0,0,0,1.16-2.69,10.44,10.44,0,0,0,.57-2.7,4.09,4.09,0,0,0-.11-1.19,1.92,1.92,0,0,0-.45-.85,1.5,1.5,0,0,0-.37-.28,2.67,2.67,0,0,0-.48-.21,4.46,4.46,0,0,0-1.2-.17c-.09,0-.22,0-.34,0l-.35,0h-.35l-.35,0c-.24,0-.48.07-.71.11l-.35.06L111,6.6a15.69,15.69,0,0,0-2.74.9,21.38,21.38,0,0,0-5,3.15,28.26,28.26,0,0,0-2.2,2c-.71.71-1.38,1.46-2,2.23a53.22,53.22,0,0,0-3.63,4.88,83.39,83.39,0,0,0-5.9,10.74c-1.7,3.73-3.29,7.5-5.11,11.25Z"/><path d="M69,42.94c-.44-.87-.86-1.75-1.27-2.63s-.8-1.75-1.19-2.63L65.35,35c-.38-.88-.79-1.75-1.2-2.61s-.83-1.72-1.27-2.56-.9-1.68-1.38-2.48A26.91,26.91,0,0,0,60,25.05a11.72,11.72,0,0,0-1.78-2l.51.17h0a13.64,13.64,0,0,0-1.73.19c-.59.09-1.19.21-1.78.34a29.44,29.44,0,0,0-3.48,1l-.42.14-.42.17c-.28.1-.54.22-.82.34l-.39.18-.39.2-.38.2s0,0,0,0l0,0,0,.05a2.25,2.25,0,0,0-.36.57,7.37,7.37,0,0,0-.33.75,14.28,14.28,0,0,0-.5,1.68,34.23,34.23,0,0,0-.67,3.55c-.16,1.21-.28,2.42-.36,3.64a43,43,0,0,0,.11,7.27A17.52,17.52,0,0,0,47.36,47,6.43,6.43,0,0,0,48,48.5a3.09,3.09,0,0,0,.43.55l.11.1.12.09.12.07.14.06a2,2,0,0,0,.59.17,1.46,1.46,0,0,0,.55-.06,2.69,2.69,0,0,0,1.12-.78,8.12,8.12,0,0,0,1-1.34A16.45,16.45,0,0,0,53,45.79a32.13,32.13,0,0,0,1.24-3.41c.35-1.17.67-2.36,1-3.55s.64-2.38,1-3.58.67-2.4,1.07-3.59l.14,0a33.68,33.68,0,0,1-.16,3.76c-.12,1.25-.29,2.5-.51,3.73s-.52,2.47-.86,3.69a33.08,33.08,0,0,1-1.24,3.63,15.84,15.84,0,0,1-.84,1.77A9.34,9.34,0,0,1,52.56,50a6,6,0,0,1-.82.76,4.17,4.17,0,0,1-1.09.57,3.44,3.44,0,0,1-1.28.16,4,4,0,0,1-1.21-.31,1.38,1.38,0,0,1-.28-.13,1.61,1.61,0,0,1-.28-.17,2.48,2.48,0,0,1-.26-.19l-.24-.2a4.65,4.65,0,0,1-.73-.9,8.87,8.87,0,0,1-.89-1.91,19.69,19.69,0,0,1-.8-3.85A32.78,32.78,0,0,1,44.44,40q0-1.9.09-3.81c.08-1.26.2-2.53.38-3.79a35.84,35.84,0,0,1,.74-3.77,15.77,15.77,0,0,1,.59-1.89,8.63,8.63,0,0,1,.42-.95,4.28,4.28,0,0,1,.67-1l.11-.13.15-.13a2.5,2.5,0,0,1,.34-.24l.44-.23.45-.22.46-.2c.3-.12.6-.25.91-.36l.45-.17L51.1,23a32.78,32.78,0,0,1,3.72-1c.63-.12,1.26-.22,1.9-.3a14.11,14.11,0,0,1,2-.13h0l.27,0,.24.19c.21.16.44.32.64.5s.39.35.57.54.36.37.53.57l.49.59a22.7,22.7,0,0,1,1.7,2.48c.51.85,1,1.72,1.42,2.6s.85,1.77,1.24,2.67.75,1.81,1.1,2.72.69,1.83,1,2.75S68.46,39,68.7,40s.44,1.91.58,2.88Z"/><path d="M112.17,11.39a1.14,1.14,0,0,0-.76-.34,3.46,3.46,0,0,0-1.55.33,23.46,23.46,0,0,0-9.33,6.53,64.8,64.8,0,0,0-5.66,8.35c-1.91,3.25-3.66,6.6-5.36,10l-1.77,3.49a4,4,0,0,0-.41,2,7.33,7.33,0,0,0,.51,1.83c.1.27.31.18.38,0A13.19,13.19,0,0,1,89,41.4c.34-.67.75-1.31,1.14-2C91,38,92,36.67,93,35.35l.65-.85a50,50,0,0,1,5.32-6c1.94-1.82,4.09-3.41,6-5.23a34.91,34.91,0,0,0,4.89-5.75,27.16,27.16,0,0,0,2-3.23C112.18,13.49,112.83,12.16,112.17,11.39Z"/><path d="M57.29,31.67s11.25,10,6.9,15.36L56,38.81Z"/><path class="cls-2" d="M125.78,86.43l-.58-2.6A2.68,2.68,0,0,0,124,82.11a2.61,2.61,0,0,0-1-.36l-.45-1a2.64,2.64,0,0,0-3.61-1.27L114.5,81.7a10,10,0,0,0-5-1.34,9.23,9.23,0,0,0-1.4.1,35.93,35.93,0,0,0-7.66,2.25l-.68.27c-3.79,1.47-8.08,3.15-11.43,5.92l-.07.06A5,5,0,0,0,86,92.46c-.05,1.05.3,3,3.16,4a16.44,16.44,0,0,0,4,.73h.2c2,.19,4.12.28,6.16.28,1.41,0,2.81,0,4.19-.13H104A27,27,0,0,0,112.14,96a10,10,0,0,0,4.68-3.69c1.35.1,3.59.24,4.78.24h0a3.75,3.75,0,0,0,1.12-.11c1-.31,1.85-1.44,1.86-3.33a2.44,2.44,0,0,0,.81-.72A2.4,2.4,0,0,0,125.78,86.43Z"/><path class="cls-3" d="M115.05,87.56s-.42-4.4-14.89.51-11.84,5.2-11.84,5.2l3.79-4.36,8.64-3.84,8.5-2.4,4.77,1,1,3.22Z"/><path d="M99.58,96.06q-3,0-6-.26l-.2,0c-1.81-.15-6-.51-5.93-3.25a3.77,3.77,0,0,1,1.71-2.48l.07-.06c3.19-2.64,7.37-4.27,11.06-5.7l.67-.27a34.91,34.91,0,0,1,7.36-2.17c3-.45,6.83.81,8.09,4a5.78,5.78,0,0,1-.11,4.54,8.27,8.27,0,0,1-4.62,4.25,26,26,0,0,1-7.79,1.28h-.16Q101.64,96.06,99.58,96.06Zm9.93-12.48a6,6,0,0,0-1,.08,33,33,0,0,0-7,2.06l-.68.27c-3.74,1.45-7.6,3-10.55,5.4l-.07.06c-.29.24-1.05.86-1.06,1.16h0c0,.23.27,1,4.26,1.35l.22,0a67.72,67.72,0,0,0,9.87.14h.17A24.59,24.59,0,0,0,111,93a6.56,6.56,0,0,0,3.59-3.28,4,4,0,0,0,.1-3.14C113.88,84.52,111.6,83.58,109.51,83.58Z"/><polygon points="106.16 88.91 103.91 83.88 105.25 83.47 106.16 88.91"/><polygon points="111.07 93.09 111.44 89.1 111.45 89.1 112.47 92.97 111.07 93.09"/><polygon points="100.21 90.04 100.87 94.77 99.46 94.77 100.12 90.04 100.21 90.04"/><polygon points="93.59 88.27 93.7 90.41 92.29 88.8 93.59 88.27"/><path d="M114.76,84.72l-.64-1.25,5.39-2.74a1.23,1.23,0,0,1,1.7.6l1.13,2.47-1.28.58L120,82.06Z"/><path d="M116.39,88.77l-.16-1.4,6.72-.75-.47-2.07-6.43,1.76L115.68,85l6.53-1.79a1.27,1.27,0,0,1,1,.14,1.34,1.34,0,0,1,.6.83l.58,2.59a1,1,0,0,1-.88,1.24Z"/><path d="M115.61,90.79s6.09.46,6.69.28,1.13-1.37.75-3.29c-.28-.64-5.85.29-5.85.29l-1.33.84Z"/><path class="cls-2" d="M30.36,86.43l.57-2.6a2.72,2.72,0,0,1,1.25-1.72,2.61,2.61,0,0,1,1-.36l.45-1a2.67,2.67,0,0,1,1.54-1.41,2.62,2.62,0,0,1,.88-.15,2.65,2.65,0,0,1,1.2.29l4.38,2.22a10,10,0,0,1,5-1.34,9.36,9.36,0,0,1,1.41.1,36,36,0,0,1,7.65,2.25l.69.27c3.78,1.47,8.07,3.15,11.42,5.92l.08.06c.8.67,2.15,1.78,2.22,3.5.05,1.05-.3,3-3.17,4a16.36,16.36,0,0,1-4,.73h-.2c-2,.19-4.11.28-6.16.28-1.4,0-2.81,0-4.18-.13h-.18A27,27,0,0,1,44,96a9.9,9.9,0,0,1-4.67-3.69c-1.36.1-3.59.24-4.78.24h0a3.79,3.79,0,0,1-1.13-.11c-1-.31-1.84-1.44-1.86-3.33a2.4,2.4,0,0,1-.8-.72A2.36,2.36,0,0,1,30.36,86.43Z"/><path class="cls-3" d="M41.09,87.56s.42-4.4,14.88.51,11.85,5.2,11.85,5.2L64,88.91l-8.64-3.84-8.49-2.4-4.77,1-1,3.22Z"/><path d="M52.45,95.94h-.17a26.09,26.09,0,0,1-7.79-1.28,8.28,8.28,0,0,1-4.61-4.25,5.78,5.78,0,0,1-.12-4.54c1.27-3.2,5.12-4.46,8.1-4A34.65,34.65,0,0,1,55.21,84l.68.27c3.69,1.43,7.87,3.06,11,5.7l.07.06a3.75,3.75,0,0,1,1.72,2.48c.12,2.74-4.12,3.1-5.93,3.25l-.21,0c-2,.17-4,.26-6,.26C55.18,96.06,53.81,96,52.45,95.94Zm-11-9.41a4,4,0,0,0,.09,3.14A6.56,6.56,0,0,0,45.14,93a24.66,24.66,0,0,0,7.25,1.16h.17A67.74,67.74,0,0,0,62.43,94l.22,0c4-.34,4.26-1.12,4.25-1.35h0c0-.3-.77-.92-1.05-1.16l-.07-.06c-3-2.45-6.82-4-10.55-5.4l-.68-.27a33,33,0,0,0-7-2.06,6.14,6.14,0,0,0-1-.08C44.54,83.58,42.25,84.52,41.46,86.53Z"/><polygon points="49.98 88.91 52.23 83.88 50.88 83.47 49.98 88.91"/><polygon points="45.06 93.09 44.7 89.1 44.68 89.1 43.66 92.97 45.06 93.09"/><polygon points="55.92 90.04 55.27 94.77 56.67 94.77 56.02 90.04 55.92 90.04"/><polygon points="62.54 88.27 62.43 90.41 63.84 88.8 62.54 88.27"/><path d="M41.38,84.72,42,83.47l-5.39-2.74a1.28,1.28,0,0,0-1-.07,1.31,1.31,0,0,0-.72.67L33.8,83.8l1.28.58,1.05-2.32Z"/><path d="M39.74,88.77l.16-1.4-6.71-.75.46-2.07,6.43,1.76L40.45,85l-6.52-1.79a1.26,1.26,0,0,0-1,.14,1.32,1.32,0,0,0-.61.83l-.58,2.59a1,1,0,0,0,.17.82,1.07,1.07,0,0,0,.71.42Z"/><path d="M40.52,90.79s-6.08.46-6.69.28-1.12-1.37-.75-3.29c.28-.64,5.85.29,5.85.29l1.34.84Z"/></svg>