<svg id="Layer_1" data-name="Layer 1" xmlns="http://www.w3.org/2000/svg" viewBox="0 0 150 150"><defs><style>.cls-1{fill:#fff;}</style></defs><path d="M29.2,85.25a.54.54,0,0,1-.12.09,3,3,0,0,1-1.47.24,3.34,3.34,0,0,1-2.15-1.09,4.32,4.32,0,0,1-.68-.95.91.91,0,0,1-.1-.16,2,2,0,0,0-.06.27,6,6,0,0,1-.44,1.5A6.54,6.54,0,0,1,20,89a6.18,6.18,0,0,1-1,.25,4.83,4.83,0,0,1-2.68-.36,5.1,5.1,0,0,1-1.89-1.46,5.87,5.87,0,0,1-1.29-2.95,6.37,6.37,0,0,1,.26-3,6.12,6.12,0,0,1,2.32-3.14,5.06,5.06,0,0,1,1.71-.76,3.13,3.13,0,0,1,.53-.12,4.67,4.67,0,0,1,2.65.4l.12,0a.7.7,0,0,0,.11-.42l-.2-.11a5.94,5.94,0,0,0-2.07-.55,6.6,6.6,0,0,0-6.11,3.07,6.66,6.66,0,0,0-.77,1.75.21.21,0,0,1-.07.15,6.52,6.52,0,0,1,9.18-5.57c.06,0,0-.09,0-.13a6.22,6.22,0,0,1-.37-1A5.45,5.45,0,0,1,20.21,73a4,4,0,0,1,.57-1.62,3.09,3.09,0,0,1,.6-.7l.08-.06,0,0c0,.05,0,.08,0,.1a3.13,3.13,0,0,0-.6,1,3.86,3.86,0,0,0-.18,1.62,4.92,4.92,0,0,0,.82,2.34l.1.14s0,0,.06,0l.12-.1c.16-.14.31-.29.47-.42a2.85,2.85,0,0,1,1.36-.55,2.69,2.69,0,0,1,1.75.39,3.6,3.6,0,0,1,.87.74s.07.12.15.14.08-.1.11-.16a3.45,3.45,0,0,0,.32-1.3,4.86,4.86,0,0,0-1.27-3.54L25.46,71a0,0,0,0,0,0,0s.06,0,.08,0a4.85,4.85,0,0,1,.67.69,5.72,5.72,0,0,1,1.22,2.87,4.75,4.75,0,0,1-.13,2c-.07.22-.16.42-.24.63a.22.22,0,0,0,0,.22l.08.05h.1a3.15,3.15,0,0,1,2.19.53,3.7,3.7,0,0,1,.94.91,4.68,4.68,0,0,1,.92,2.77,1.49,1.49,0,0,1,0,.21h0c0-.11,0-.22,0-.33a4,4,0,0,0-.79-2,3.17,3.17,0,0,0-1.17-1,2.56,2.56,0,0,0-1.66-.19.59.59,0,0,0-.26.1.31.31,0,0,0,0,.23,5.07,5.07,0,0,1-.57,2.54,3.84,3.84,0,0,1-1.11,1.29l-.13.11a.27.27,0,0,0,0,.13,3.72,3.72,0,0,0,1.08,1.8,2.82,2.82,0,0,0,1.36.7,2.36,2.36,0,0,0,1,0l.29,0Zm-5.61-.64a.75.75,0,0,0,.07-.12,5.7,5.7,0,0,0,.24-1.23s0-.08,0-.12l-.36,0-.07,0s0,0,0,0a1.21,1.21,0,0,0,.05.18,2.77,2.77,0,0,1,.07,1.28,0,0,0,0,1,0,0h0Zm-6.88-5.9a4.92,4.92,0,0,1,1.43.12c.23,0,.46.12.68.19a2.29,2.29,0,0,0,1.63-.08s.09,0,.08-.1a.33.33,0,0,0-.1-.06l-.59-.26a4.17,4.17,0,0,0-2.27-.13,3.83,3.83,0,0,0-.75.23s-.1,0-.11.09h0Zm-1,6.91h0l-.07.13a2.23,2.23,0,0,0,0,1.4,1.82,1.82,0,0,0,.49.79,3.7,3.7,0,0,0,1.49.82h.1a.15.15,0,0,0,.06,0,.11.11,0,0,0,0-.06l-.18,0a2.61,2.61,0,0,1-.8-.4,1.38,1.38,0,0,1-.46-.61,1.82,1.82,0,0,1-.08-1.13,2.06,2.06,0,0,1,1-1.28,3.46,3.46,0,0,1,1.66-.47H19c.1,0,.13,0,.14.14a.06.06,0,0,1,0,0,3,3,0,0,1-.07.73,1.78,1.78,0,0,1-.72,1,3.73,3.73,0,0,1-.83.4,1.3,1.3,0,0,0-.37.19.37.37,0,0,0-.14.29,1,1,0,0,1,0,.17s0,0,0,.08a.22.22,0,0,1-.07-.07.55.55,0,0,1,0-.6,1,1,0,0,1,.3-.33l.47-.33.36-.28a1.19,1.19,0,0,0,.37-.54.8.8,0,0,0,0-.15l-.13,0-.35,0a1.79,1.79,0,0,0-1,.53,1.41,1.41,0,0,0-.06,1.87,1.71,1.71,0,0,0,.56.43.33.33,0,0,0,.13,0V88a.45.45,0,0,1,.12-.26s0-.06.08,0a2.25,2.25,0,0,0-.08.24.42.42,0,0,0,.16.46c.09.07.15.06.21,0a1.74,1.74,0,0,0,.11-.18c.11-.21.23-.43.33-.65A3.77,3.77,0,0,1,19.8,86a2.43,2.43,0,0,1,1.54-.48h.55a1,1,0,0,0,.83-.45,2.19,2.19,0,0,0,.37-1.49,1.09,1.09,0,0,0-.16-.49.72.72,0,0,0-.58-.33.32.32,0,0,0-.3.15,1.22,1.22,0,0,0-.15.27,1.43,1.43,0,0,1-.72.79,1.13,1.13,0,0,0-.43.38c-.08.12-.15.25-.23.38a.35.35,0,0,0-.06.09.24.24,0,0,1,0-.18A3.84,3.84,0,0,1,20.6,84a1.66,1.66,0,0,0,.06-.7l-.13,0a1.21,1.21,0,0,1-1-.74c-.08-.16,0-.25.16-.23a.24.24,0,0,1,.19.11.41.41,0,0,1,.08.19,1,1,0,0,1,0,.24.19.19,0,0,0,.1.18,1.51,1.51,0,0,0,.45.2s.07,0,.1,0a.4.4,0,0,0-.13-.13,2.21,2.21,0,0,1-.44-.52,1.84,1.84,0,0,1-.19-1.36A.49.49,0,0,1,20,81a.34.34,0,0,1,.12.06.48.48,0,0,1,.2.33,1.61,1.61,0,0,1,0,.31,1.14,1.14,0,0,1-.12.48.31.31,0,0,0,0,.28,2.06,2.06,0,0,0,.42.55l.1,0,0-.15c0-.12-.09-.23-.12-.35A2.24,2.24,0,0,1,20.69,81a1.55,1.55,0,0,1,.12-.22.31.31,0,0,0,0-.28c-.06-.17-.09-.35-.14-.53s0-.1-.05-.14l-.05,0-.21,0a2.68,2.68,0,0,1-1.46,0l-.49-.19a4.64,4.64,0,0,0-1.51-.41,2.3,2.3,0,0,0-2.08.89,5.74,5.74,0,0,0-1.25,4,.68.68,0,0,0,0,.12,1,1,0,0,0,.06-.31,4.47,4.47,0,0,1,1-2.45A3.81,3.81,0,0,1,18.45,80a5.71,5.71,0,0,1,1.27.41s0,0,0,0,0,0,0,0a5.28,5.28,0,0,1-.76,1,2.63,2.63,0,0,1-1.89.8c-.38,0-.75,0-1.13-.07a3.48,3.48,0,0,0-.79,0,.79.79,0,0,0-.65.49,5.07,5.07,0,0,0-.46,1.66,3.37,3.37,0,0,0,0,.84,1.13,1.13,0,0,0,0-.18,3.67,3.67,0,0,1,.29-1.26,1.92,1.92,0,0,1,.32-.53s0-.07.08,0l-.09.16a3,3,0,0,0-.32.86,4.43,4.43,0,0,0,0,1.54A4,4,0,0,0,17.47,89a.21.21,0,0,0,.11,0l.05,0a.24.24,0,0,0-.18-.08,3.73,3.73,0,0,1-2.86-3.21,2.6,2.6,0,0,1,.54-1.94A2.81,2.81,0,0,1,16,83a4.24,4.24,0,0,1,1.78-.5,4.91,4.91,0,0,1,1.37.14.18.18,0,0,1,.09,0l0,.12c-.1.2-.19.4-.29.59a3.56,3.56,0,0,1-.4.61,2.69,2.69,0,0,1-1.92,1l-.86.08a1.36,1.36,0,0,0-.55.17.33.33,0,0,0-.19.34,3.18,3.18,0,0,0,.35,1.28l.05,0v-.1c0-.13,0-.25,0-.38a1.8,1.8,0,0,1,.18-.64S15.68,85.63,15.75,85.62Zm6-9.61a1.47,1.47,0,0,0,.1.13c.1.11.21.22.32.32a3.38,3.38,0,0,0,1.34.79,2.41,2.41,0,0,0,1.13.09,2.28,2.28,0,0,0,1.54-1s0-.08.07-.12l-.08-.13a3.2,3.2,0,0,0-1.13-.94A2.47,2.47,0,0,0,23.49,75a2.9,2.9,0,0,0-1.65,1S21.81,76,21.78,76Zm-.29,3.88a.32.32,0,0,1,.06.22,1.35,1.35,0,0,1-.24.89c-.07.1-.06.11.05.22s0,0,.05,0l.47-.42a2,2,0,0,0,.19-.22,1.1,1.1,0,0,0,.24-.55l0-.31s0-.07.06-.07l.07.09c.06.12.13.24.19.37a1.51,1.51,0,0,1,.13.46.64.64,0,0,1-.35.66,1.71,1.71,0,0,1-.38.13c-.15,0-.31.06-.47.09a.26.26,0,0,0-.1,0l.06.14.3.37a.33.33,0,0,0,.29.14,1.3,1.3,0,0,1,1,.51,2.14,2.14,0,0,1,.13.19.25.25,0,0,0,.15.1l.38,0,.14,0c0-.08,0-.15,0-.22,0-.24,0-.48,0-.71a5.75,5.75,0,0,0-.8-2.38,5.57,5.57,0,0,0-1.92-1.94.45.45,0,0,0-.22-.1.79.79,0,0,0-.08.43c.14.1.27.19.4.3a3.9,3.9,0,0,1,.38.33A3.76,3.76,0,0,1,22,79s0,0,0,.06l-.1.08a4.6,4.6,0,0,1-.86.5l-.19.1a1.59,1.59,0,0,0,.15.65H21l.21-.25A1.09,1.09,0,0,1,21.49,79.89Zm5.57-1.27a.39.39,0,0,0-.24.09,2.87,2.87,0,0,0-1,1.1,3.93,3.93,0,0,0-.42,2.54.37.37,0,0,0,.05.11.39.39,0,0,0,.19-.1,3.55,3.55,0,0,0,.81-.92,4.8,4.8,0,0,0,.69-2.59.88.88,0,0,0,0-.16A.15.15,0,0,0,27.06,78.62ZM23.58,79c0,.08,0,.16,0,.25a1.55,1.55,0,0,0,.24.68.67.67,0,0,0,.44.29.22.22,0,0,0,.14,0,.66.66,0,0,0,.36-.27,2,2,0,0,0,.17-.32,1.56,1.56,0,0,0,.1-.57,1.66,1.66,0,0,0-.15-.79.9.9,0,0,0-.25-.35.48.48,0,0,0-.67,0,1,1,0,0,0-.26.37A1.78,1.78,0,0,0,23.58,79Zm-4.81,1.82a3.51,3.51,0,0,0-2.07,0,3.1,3.1,0,0,0-1.55,1.08.65.65,0,0,0,.14,0c.2,0,.4,0,.6-.06l.77,0a5.83,5.83,0,0,0,.59,0,2.16,2.16,0,0,0,1.46-.84S18.74,80.81,18.77,80.77ZM15.08,85l.09,0a1.83,1.83,0,0,1,.6-.28l.56-.14a6.09,6.09,0,0,0,.61-.17,2.38,2.38,0,0,0,1.25-1s.07-.09,0-.16a.34.34,0,0,0-.2,0,4.57,4.57,0,0,0-.83,0,2.74,2.74,0,0,0-1.46.63,2,2,0,0,0-.65,1.06A.41.41,0,0,0,15.08,85Zm4,2.78s.06,0,.07,0a2.58,2.58,0,0,0,.4,0,1.65,1.65,0,0,0,.63-.26s.07-.07.14,0A1.54,1.54,0,0,1,20,88a2,2,0,0,1-.65.42l-.49.17s-.07,0-.08.07h.06a2.62,2.62,0,0,0,.62-.12,1.68,1.68,0,0,0,1-.78l.18-.35.17-.45a1.81,1.81,0,0,1,.91-1.1s.07,0,.05-.08l-.08,0a1.41,1.41,0,0,0-.86.65,2.31,2.31,0,0,0-.18.35,1.39,1.39,0,0,1-.45.54,1.83,1.83,0,0,1-.49.28Zm2.67-5.68-.43-.55h0l-.07,0a1.57,1.57,0,0,0-.31,1s0,0,0,.07l.24-.22a2.61,2.61,0,0,1,.27-.19Zm-1,.81s0-.06,0-.09a.49.49,0,0,0,0-.12,1.71,1.71,0,0,1,.33-1.22l.06-.09a.06.06,0,0,0,0,0c0-.06,0-.12-.1-.14l-.33.15a.17.17,0,0,0-.11.11l0,.12a2.28,2.28,0,0,0,.09,1.24Zm1.7-2.66s-.05,0-.05.07a1.88,1.88,0,0,1-.54.65l-.27.23s-.06,0,0,.09l.51-.17.19-.08A.51.51,0,0,0,22.48,80.27Zm-2.37,1.9a1.15,1.15,0,0,0,.05-.63c0-.07,0-.14-.1-.17a.91.91,0,0,0,0,.49A.49.49,0,0,0,20.11,82.17ZM21,80.89a1,1,0,0,0-.19.35.31.31,0,0,0,.2-.12C21.05,81.05,21.05,81,21,80.89Zm.33-.38c-.08,0-.09,0-.12.07a.26.26,0,0,0-.07.11.12.12,0,0,0,.08.14A.62.62,0,0,0,21.29,80.51Zm-1.4,2.23c0-.15,0-.17-.12-.2A.32.32,0,0,0,19.89,82.74Z"/><polygon points="21.62 70.48 21.63 70.48 21.62 70.49 21.62 70.48"/><path d="M29.2,85.26h0Z"/><path class="cls-1" d="M15.75,85.62c-.07,0-.1.07-.13.12a1.8,1.8,0,0,0-.18.64c0,.13,0,.25,0,.38v.1l-.05,0A3.18,3.18,0,0,1,15,85.56a.33.33,0,0,1,.19-.34,1.36,1.36,0,0,1,.55-.17l.86-.08a2.69,2.69,0,0,0,1.92-1,3.56,3.56,0,0,0,.4-.61c.1-.19.19-.39.29-.59l0-.12a.18.18,0,0,0-.09,0,4.91,4.91,0,0,0-1.37-.14A4.24,4.24,0,0,0,16,83a2.81,2.81,0,0,0-.89.75,2.6,2.6,0,0,0-.54,1.94,3.73,3.73,0,0,0,2.86,3.21.24.24,0,0,1,.18.08l-.05,0a.21.21,0,0,1-.11,0,4,4,0,0,1-3.08-3.21,4.43,4.43,0,0,1,0-1.54,3,3,0,0,1,.32-.86l.09-.16c-.05,0-.07,0-.08,0a1.92,1.92,0,0,0-.32.53A3.67,3.67,0,0,0,14.11,85a1.13,1.13,0,0,1,0,.18,3.37,3.37,0,0,1,0-.84,5.07,5.07,0,0,1,.46-1.66.79.79,0,0,1,.65-.49,3.48,3.48,0,0,1,.79,0c.38,0,.75.07,1.13.07a2.63,2.63,0,0,0,1.89-.8,5.28,5.28,0,0,0,.76-1s0,0,0,0,0,0,0,0A5.71,5.71,0,0,0,18.45,80a3.81,3.81,0,0,0-3.8,1.42,4.47,4.47,0,0,0-1,2.45,1,1,0,0,1-.06.31.68.68,0,0,1,0-.12,5.74,5.74,0,0,1,1.25-4,2.3,2.3,0,0,1,2.08-.89,4.64,4.64,0,0,1,1.51.41l.49.19a2.68,2.68,0,0,0,1.46,0l.21,0,.05,0s0,.09.05.14.08.36.14.53a.31.31,0,0,1,0,.28,1.55,1.55,0,0,0-.12.22,2.24,2.24,0,0,0-.12,1.61c0,.12.08.23.12.35l0,.15-.1,0a2.06,2.06,0,0,1-.42-.55.31.31,0,0,1,0-.28,1.14,1.14,0,0,0,.12-.48,1.61,1.61,0,0,0,0-.31.48.48,0,0,0-.2-.33A.34.34,0,0,0,20,81a.49.49,0,0,0-.06.13,1.84,1.84,0,0,0,.19,1.36,2.21,2.21,0,0,0,.44.52.4.4,0,0,1,.13.13s-.06,0-.1,0a1.51,1.51,0,0,1-.45-.2.19.19,0,0,1-.1-.18,1,1,0,0,0,0-.24.41.41,0,0,0-.08-.19.24.24,0,0,0-.19-.11c-.17,0-.24.07-.16.23a1.21,1.21,0,0,0,1,.74l.13,0a1.66,1.66,0,0,1-.06.7,3.84,3.84,0,0,0-.16.67.24.24,0,0,0,0,.18.35.35,0,0,1,.06-.09c.08-.13.15-.26.23-.38a1.13,1.13,0,0,1,.43-.38,1.43,1.43,0,0,0,.72-.79,1.22,1.22,0,0,1,.15-.27.32.32,0,0,1,.3-.15.72.72,0,0,1,.58.33,1.09,1.09,0,0,1,.16.49,2.19,2.19,0,0,1-.37,1.49,1,1,0,0,1-.83.45h-.55A2.43,2.43,0,0,0,19.8,86a3.77,3.77,0,0,0-1.26,1.51c-.1.22-.22.44-.33.65a1.74,1.74,0,0,1-.11.18c-.06.09-.12.1-.21,0a.42.42,0,0,1-.16-.46,2.25,2.25,0,0,1,.08-.24s-.06,0-.08,0a.45.45,0,0,0-.12.26v.41a.33.33,0,0,1-.13,0,1.71,1.71,0,0,1-.56-.43A1.41,1.41,0,0,1,17,86.05a1.79,1.79,0,0,1,1-.53l.35,0,.13,0a.8.8,0,0,1,0,.15,1.19,1.19,0,0,1-.37.54l-.36.28-.47.33a1,1,0,0,0-.3.33.55.55,0,0,0,0,.6.22.22,0,0,0,.07.07s0-.06,0-.08a1,1,0,0,0,0-.17.37.37,0,0,1,.14-.29,1.3,1.3,0,0,1,.37-.19,3.73,3.73,0,0,0,.83-.4,1.78,1.78,0,0,0,.72-1,3,3,0,0,0,.07-.73.06.06,0,0,0,0,0c0-.1,0-.14-.14-.14h-.12a3.46,3.46,0,0,0-1.66.47,2.06,2.06,0,0,0-1,1.28,1.82,1.82,0,0,0,.08,1.13,1.38,1.38,0,0,0,.46.61,2.61,2.61,0,0,0,.8.4l.18,0a.11.11,0,0,1,0,.06.15.15,0,0,1-.06,0h-.1a3.7,3.7,0,0,1-1.49-.82,1.82,1.82,0,0,1-.49-.79,2.23,2.23,0,0,1,0-1.4l.07-.13h0Z"/><path class="cls-1" d="M21.78,76s0-.07.06-.09a2.9,2.9,0,0,1,1.65-1,2.47,2.47,0,0,1,1.58.23,3.2,3.2,0,0,1,1.13.94l.08.13s-.05.09-.07.12a2.28,2.28,0,0,1-1.54,1,2.41,2.41,0,0,1-1.13-.09,3.38,3.38,0,0,1-1.34-.79c-.11-.1-.22-.21-.32-.32A1.47,1.47,0,0,1,21.78,76Z"/><path class="cls-1" d="M21.49,79.89a1.09,1.09,0,0,0-.24.24l-.21.25H21a1.59,1.59,0,0,1-.15-.65l.19-.1a4.6,4.6,0,0,0,.86-.5L22,79s0,0,0-.06a3.76,3.76,0,0,0-.35-.34,3.9,3.9,0,0,0-.38-.33c-.13-.11-.26-.2-.4-.3a.79.79,0,0,1,.08-.43.45.45,0,0,1,.22.1,5.57,5.57,0,0,1,1.92,1.94A5.75,5.75,0,0,1,23.9,82c0,.23,0,.47,0,.71,0,.07,0,.14,0,.22l-.14,0-.38,0a.25.25,0,0,1-.15-.1,2.14,2.14,0,0,0-.13-.19,1.3,1.3,0,0,0-1-.51.33.33,0,0,1-.29-.14l-.3-.37-.06-.14a.26.26,0,0,1,.1,0c.16,0,.32,0,.47-.09a1.71,1.71,0,0,0,.38-.13.64.64,0,0,0,.35-.66,1.51,1.51,0,0,0-.13-.46c-.06-.13-.13-.25-.19-.37l-.07-.09c-.06,0-.06,0-.06.07l0,.31a1.1,1.1,0,0,1-.24.55,2,2,0,0,1-.19.22l-.47.42s0,0-.05,0-.12-.12-.05-.22a1.35,1.35,0,0,0,.24-.89A.32.32,0,0,0,21.49,79.89Z"/><path class="cls-1" d="M27.06,78.62a.15.15,0,0,1,0,.07.88.88,0,0,1,0,.16,4.8,4.8,0,0,1-.69,2.59,3.55,3.55,0,0,1-.81.92.39.39,0,0,1-.19.1.37.37,0,0,1-.05-.11,3.93,3.93,0,0,1,.42-2.54,2.87,2.87,0,0,1,1-1.1A.39.39,0,0,1,27.06,78.62Z"/><path class="cls-1" d="M23.58,79a1.78,1.78,0,0,1,.14-.72,1,1,0,0,1,.26-.37.48.48,0,0,1,.67,0,.9.9,0,0,1,.25.35,1.66,1.66,0,0,1,.15.79,1.56,1.56,0,0,1-.1.57,2,2,0,0,1-.17.32.66.66,0,0,1-.36.27.22.22,0,0,1-.14,0,.67.67,0,0,1-.44-.29,1.55,1.55,0,0,1-.24-.68C23.59,79.11,23.59,79,23.58,79Z"/><path class="cls-1" d="M18.77,80.77s0,.08-.06.1a2.16,2.16,0,0,1-1.46.84,5.83,5.83,0,0,1-.59,0l-.77,0c-.2,0-.4,0-.6.06a.65.65,0,0,1-.14,0,3.1,3.1,0,0,1,1.55-1.08A3.51,3.51,0,0,1,18.77,80.77Z"/><path class="cls-1" d="M15.08,85a.41.41,0,0,1,0-.12,2,2,0,0,1,.65-1.06,2.74,2.74,0,0,1,1.46-.63,4.57,4.57,0,0,1,.83,0,.34.34,0,0,1,.2,0c0,.07,0,.11,0,.16a2.38,2.38,0,0,1-1.25,1,6.09,6.09,0,0,1-.61.17l-.56.14a1.83,1.83,0,0,0-.6.28Z"/><path class="cls-1" d="M16.71,78.71c0-.06.07-.07.11-.09a3.83,3.83,0,0,1,.75-.23,4.17,4.17,0,0,1,2.27.13l.59.26a.33.33,0,0,1,.1.06c0,.07,0,.08-.08.1a2.29,2.29,0,0,1-1.63.08c-.22-.07-.45-.14-.68-.19a4.92,4.92,0,0,0-1.43-.12Z"/><path class="cls-1" d="M19.09,87.8l.61-.2a1.83,1.83,0,0,0,.49-.28,1.39,1.39,0,0,0,.45-.54,2.31,2.31,0,0,1,.18-.35,1.41,1.41,0,0,1,.86-.65l.08,0c0,.06,0,.07-.05.08a1.81,1.81,0,0,0-.91,1.1l-.17.45-.18.35a1.68,1.68,0,0,1-1,.78,2.62,2.62,0,0,1-.62.12h-.06s0-.06.08-.07l.49-.17A2,2,0,0,0,20,88a1.54,1.54,0,0,0,.33-.47c-.07,0-.1,0-.14,0a1.65,1.65,0,0,1-.63.26,2.58,2.58,0,0,1-.4,0S19.13,87.82,19.09,87.8Z"/><path class="cls-1" d="M21.76,82.12l-.31.15a2.61,2.61,0,0,0-.27.19l-.24.22s0-.05,0-.07a1.57,1.57,0,0,1,.31-1l.07,0h0Z"/><path class="cls-1" d="M20.78,82.93l-.05-.08a2.28,2.28,0,0,1-.09-1.24l0-.12a.17.17,0,0,1,.11-.11l.33-.15c.07,0,.08.08.1.14a.06.06,0,0,1,0,0l-.06.09a1.71,1.71,0,0,0-.33,1.22.49.49,0,0,1,0,.12S20.8,82.89,20.78,82.93Z"/><path class="cls-1" d="M23.58,84.61a2.77,2.77,0,0,0-.07-1.28,1.21,1.21,0,0,1-.05-.18s0,0,0,0l.07,0,.36,0s0,.08,0,.12a5.7,5.7,0,0,1-.24,1.23.75.75,0,0,1-.07.12Z"/><path class="cls-1" d="M22.48,80.27a.51.51,0,0,1-.19.79l-.19.08-.51.17s0-.07,0-.09l.27-.23a1.88,1.88,0,0,0,.54-.65S22.45,80.3,22.48,80.27Z"/><path class="cls-1" d="M20.11,82.17a.49.49,0,0,1-.1-.31.91.91,0,0,1,0-.49c.08,0,.09.1.1.17A1.15,1.15,0,0,1,20.11,82.17Z"/><path class="cls-1" d="M21,80.89c.09.14.09.16,0,.23a.31.31,0,0,1-.2.12A1,1,0,0,1,21,80.89Z"/><path class="cls-1" d="M21.29,80.51a.62.62,0,0,1-.11.32.12.12,0,0,1-.08-.14.26.26,0,0,1,.07-.11S21.21,80.5,21.29,80.51Z"/><path class="cls-1" d="M19.89,82.74a.32.32,0,0,1-.12-.2C19.88,82.57,19.9,82.59,19.89,82.74Z"/><polygon class="cls-1" points="16.71 78.71 16.7 78.7 16.71 78.71 16.71 78.71"/><path class="cls-1" d="M23.59,84.61v0h0a0,0,0,0,0,0,0Z"/><path d="M15.75,85.62v0h0Z"/><path class="cls-1" d="M21.4,64.4c-1.43,2.09-3.79,5.3-5.28,7.41-2.65,3.75-5.34,7.51-7.79,11.38C6.84,85.35,6,88.35,7.62,90.6a6.18,6.18,0,0,0,3.4,2h-.17l10.47-2.38,10.45-2.46A4.21,4.21,0,0,0,34,85.1a6.16,6.16,0,0,0-.29-3.64,60.4,60.4,0,0,0-3.28-6.9c-1.52-2.79-3.15-5.59-4.85-8.27a5.14,5.14,0,0,0-1.12-1.42,3,3,0,0,0-3.07-.47Zm-.6-.8A4.13,4.13,0,0,1,26.09,66c1.55,2.78,3.17,5.59,4.66,8.4a60.77,60.77,0,0,1,3.35,6.94,6.59,6.59,0,0,1,.32,3.88,4.53,4.53,0,0,1-2.54,3l-10.4,2.65S11.09,93.6,11.06,93.6a5.75,5.75,0,0,1-6.33-6.84c.39-3.31,2.92-5.77,4.68-8.41,2.64-3.6,5.66-7.49,8.42-11,.87-1.07,2.07-2.68,3-3.72Z"/><path class="cls-1" d="M71.63,82.83h-1a.58.58,0,0,1-.19,0,.15.15,0,0,1-.08-.08.37.37,0,0,1,0-.11c0-.11,0-.23,0-.34v-9c0-.27,0-.28.29-.28h1.5a6,6,0,0,1,1.4.18,4,4,0,0,1,1.23.53,3.08,3.08,0,0,1,.44.37,1.82,1.82,0,0,1,.22,2.29,2.75,2.75,0,0,1-.67.69c-.13.1-.27.18-.41.28s0,0,0,.07l0,.05.56.23a3.56,3.56,0,0,1,.85.53,2.16,2.16,0,0,1,.71,1.11,2.23,2.23,0,0,1-.55,2.2,3.64,3.64,0,0,1-1.14.77,6.41,6.41,0,0,1-1.56.41A14.41,14.41,0,0,1,71.63,82.83Zm.09-2.9h0v1.31a2.44,2.44,0,0,0,0,.27.13.13,0,0,0,.09.1.38.38,0,0,0,.15,0c.3,0,.59,0,.88,0a4.76,4.76,0,0,0,1-.21,2.07,2.07,0,0,0,1-.8,1,1,0,0,0,.19-.46,1.23,1.23,0,0,0-.34-1,1.61,1.61,0,0,0-.39-.31,2.53,2.53,0,0,0-.53-.24,5.26,5.26,0,0,0-1.93-.21h0s-.05,0-.05,0a1.11,1.11,0,0,0,0,.19Zm0-4.24V76.8a1.85,1.85,0,0,0,0,.23.11.11,0,0,0,.1.09,3.14,3.14,0,0,0,1.59-.35l.23-.14a2.72,2.72,0,0,0,.24-.24,1.18,1.18,0,0,0-.21-1.73,1.81,1.81,0,0,0-.57-.29,3.06,3.06,0,0,0-.72-.14,4.17,4.17,0,0,0-.5,0,.15.15,0,0,0-.17.15v1.31Z"/><path class="cls-1" d="M106.34,78.69a1,1,0,0,0,.21.32l2.51,3.45c.07.09.13.19.19.28s0,.05,0,.07h-1.41a.21.21,0,0,1-.17-.08l-.21-.28L105,79.17l-.21-.27a.27.27,0,0,0-.31-.06.08.08,0,0,0,0,.06c0,.11,0,.23,0,.34v3.12c0,.11,0,.23,0,.34a.12.12,0,0,1-.12.12h-1.19c-.07,0-.11-.06-.12-.13V73.47c0-.1,0-.2,0-.31a.13.13,0,0,1,.1-.1H104c.37,0,.74,0,1.11,0a7.84,7.84,0,0,1,1.19.08,4.06,4.06,0,0,1,1.64.63,2.6,2.6,0,0,1,.65.59,2.27,2.27,0,0,1,.51,1.79A2.52,2.52,0,0,1,108,78a3.82,3.82,0,0,1-1.14.53l-.41.11A.28.28,0,0,0,106.34,78.69ZM104.46,76v1.38a1.79,1.79,0,0,0,0,.23.14.14,0,0,0,.08.07.2.2,0,0,0,.11,0,7.46,7.46,0,0,0,1.49-.15,2.49,2.49,0,0,0,.84-.36,1.37,1.37,0,0,0,.59-.82,2,2,0,0,0,0-.42,1.4,1.4,0,0,0-.69-1.25,2.19,2.19,0,0,0-.75-.28,9.25,9.25,0,0,0-1.48-.13h-.12a.12.12,0,0,0-.11.13c0,.1,0,.2,0,.3Z"/><path class="cls-1" d="M58.42,77.93V73.55c0-.13,0-.25,0-.38a.12.12,0,0,1,.09-.11h2.23a5.54,5.54,0,0,1,1.4.18,3.74,3.74,0,0,1,1.52.78,2.23,2.23,0,0,1,.74,1.1,2.44,2.44,0,0,1-.28,2.1,2.81,2.81,0,0,1-1,.93,5,5,0,0,1-1.18.45l-.14,0s-.07.07,0,.09l.19.29,2.5,3.41.17.25a.14.14,0,0,1,0,.11s0,0-.09,0H63.21a.23.23,0,0,1-.2-.11l-.2-.28c-.8-1.09-1.59-2.19-2.39-3.29-.06-.08-.12-.17-.19-.25a.27.27,0,0,0-.31-.06.08.08,0,0,0,0,.06c0,.1,0,.2,0,.3v3.35c0,.26,0,.28-.28.28h-.89l-.19,0a.14.14,0,0,1-.07-.08c0-.1,0-.2,0-.3v-4.5Zm1.44-2v1.34a2.45,2.45,0,0,0,0,.27.08.08,0,0,0,.07.08l.19,0,.8-.05a3.9,3.9,0,0,0,1-.23,1.83,1.83,0,0,0,.5-.26,1.5,1.5,0,0,0,.41-.46,1.54,1.54,0,0,0-.43-1.93,2.09,2.09,0,0,0-.84-.35,9.67,9.67,0,0,0-1.53-.13.23.23,0,0,0-.11,0s-.07,0-.07.07a2,2,0,0,0,0,.23Z"/><path class="cls-1" d="M97.6,73.41a8.42,8.42,0,0,1,0,1.42.4.4,0,0,1-.11,0l-.28-.11a7.26,7.26,0,0,0-2-.55,5.42,5.42,0,0,0-1.45,0,5,5,0,0,0-1.15.32A4.37,4.37,0,0,0,91,75.62a3.47,3.47,0,0,0-.81,2.86,3.32,3.32,0,0,0,1,2,4.45,4.45,0,0,0,2.35,1.22,5.72,5.72,0,0,0,1.49.08,5.57,5.57,0,0,0,1.39-.3,6.61,6.61,0,0,0,.92-.38l.18-.06a.11.11,0,0,1,.06,0,.19.19,0,0,1,0,.08v1.23a.19.19,0,0,1-.12.18,6.27,6.27,0,0,1-1.34.47,7.14,7.14,0,0,1-2.48.13,5.61,5.61,0,0,1-2.18-.68A6,6,0,0,1,89.74,81a4.41,4.41,0,0,1-1-2,4.62,4.62,0,0,1,.94-4,5.81,5.81,0,0,1,3.68-2.12,7.5,7.5,0,0,1,2.41,0,9.07,9.07,0,0,1,1.55.41l.21.09S97.58,73.39,97.6,73.41Z"/><path class="cls-1" d="M53.35,82.8a8.54,8.54,0,0,1-1.43,0l-.18-.33c-.28-.59-.57-1.18-.86-1.76a1.11,1.11,0,0,0-.18-.34,1,1,0,0,0-.38,0h-4a.14.14,0,0,0-.12.08l-.15.31c-.29.59-.57,1.18-.85,1.76a2.68,2.68,0,0,1-.12.24.14.14,0,0,1-.13.08h-.54l-.76,0s0,0,0,0a.83.83,0,0,1,.08-.22l.81-1.69,3.75-7.74c0-.11.11-.21.16-.31s.08,0,.09,0l.17.31Q50.3,76.46,52,79.82l1.26,2.59c.05.09.09.19.13.28A.4.4,0,0,1,53.35,82.8Zm-4.91-3.59h0c.48,0,1,0,1.43,0a.65.65,0,0,0,.19,0s0,0,0,0A.64.64,0,0,0,50,79l-1.45-3-.08-.13s-.07,0-.09,0l-.08.14c-.47,1-.94,2-1.42,2.94a1.34,1.34,0,0,1-.07.18s0,.07.07.08h.27C47.6,79.22,48,79.21,48.44,79.21Z"/><path class="cls-1" d="M127,77.93V73.56c0-.13,0-.26,0-.39a.11.11,0,0,1,.12-.11h2a6.37,6.37,0,0,1,1.44.17,4,4,0,0,1,1.27.54,3,3,0,0,1,.68.61,2.34,2.34,0,0,1,.5,1.87,2.44,2.44,0,0,1-.66,1.32,3.26,3.26,0,0,1-1.12.79,5.16,5.16,0,0,1-1.59.4l-1.15.08a.12.12,0,0,0-.12.12c0,.11,0,.23,0,.34v3.38c0,.1,0,.15-.14.15h-1.11a.14.14,0,0,1-.16-.16V77.93Zm1.41-2v1.38a.93.93,0,0,0,0,.23.19.19,0,0,0,.08.07h.15c.26,0,.51,0,.77,0a4.73,4.73,0,0,0,1-.23,2.11,2.11,0,0,0,.52-.26,1.3,1.3,0,0,0,.55-.8,2.32,2.32,0,0,0,0-.46,1.22,1.22,0,0,0-.24-.75,1.47,1.47,0,0,0-.77-.6l-.44-.13a6,6,0,0,0-1-.12c-.18,0-.36,0-.54,0s-.13.06-.14.15V76Z"/><path class="cls-1" d="M120,73.06h1.44a.07.07,0,0,1,.06.11l-.18.29-3,4.58c-.25.38-.21.25-.21.71,0,1.19,0,2.38,0,3.57v.34c0,.12,0,.16-.16.16-.37,0-.75,0-1.12,0a.13.13,0,0,1-.14-.14c0-.12,0-.23,0-.35V78.61a.67.67,0,0,0-.14-.47l-1.94-3c-.39-.6-.78-1.2-1.16-1.8a2.12,2.12,0,0,1-.11-.21l0-.06h1.38a.19.19,0,0,1,.16.08l.2.29c.68,1,1.37,2.1,2.06,3.14l.15.23c.1.16.16.11.22,0l.17-.25,2-3.13C119.77,73.31,119.85,73.2,120,73.06Z"/><path class="cls-1" d="M141.78,78.61v3.8c0,.12,0,.23,0,.35s0,0,0,0h-1.23a.12.12,0,0,1-.1-.1c0-.12,0-.25,0-.38V74.89c0-.13,0-.26,0-.38a.12.12,0,0,0-.13-.12H138a.12.12,0,0,1-.13-.11c0-.36,0-.72,0-1.07a.12.12,0,0,1,.11-.13h6.15a.14.14,0,0,1,.15.13v.16c0,.3,0,.61,0,.92a.13.13,0,0,1-.09.1h-2.31s-.06,0-.08.08a.36.36,0,0,0,0,.11v4Z"/><path class="cls-1" d="M83.4,78v4.34c0,.13,0,.26,0,.38a.12.12,0,0,1-.13.12H82.11a.13.13,0,0,1-.13-.11c0-.09,0-.18,0-.27v-9c0-.09,0-.18,0-.26a.13.13,0,0,1,.13-.12h1.15a.12.12,0,0,1,.13.11c0,.13,0,.26,0,.39Z"/></svg>