<svg id="Layer_1" data-name="Layer 1" xmlns="http://www.w3.org/2000/svg" viewBox="0 0 150 150"><defs><style>.cls-1{fill:#fff;}</style></defs><path class="cls-1" d="M76.81,108.11c-.62-.51-.66-.88-.22-1.48a.82.82,0,0,0,.16-.52,2,2,0,0,0-.2-.71c-.38-.85-.78-1.7-1.18-2.54a6.16,6.16,0,0,0-.75-1.36A7.07,7.07,0,0,1,73.17,98c-.2-1.14-.31-2.3-.5-3.44a7.77,7.77,0,0,0-.43-1.64c-.44-1.06-1-2.1-1.47-3.15-.14-.28-.34-.54-.49-.82a2.81,2.81,0,0,1-.39-.87,8.1,8.1,0,0,1-.15-2.63c.23-1.15.69-2.24,1-3.4A2.68,2.68,0,0,1,71.45,81,1.69,1.69,0,0,0,72,79.49c-.14-.82-.34-1.63-.56-2.44-.11-.41-.32-.77.07-1.16.1-.09.08-.37,0-.55a6.66,6.66,0,0,0-.39-1A8.21,8.21,0,0,1,70.31,72a1.16,1.16,0,0,0-.21-.54,18,18,0,0,0-2.26-3,7.06,7.06,0,0,1-1.49-2.89c.72-.17.73-.65.76-1.2a19.14,19.14,0,0,1,.3-2c0-.17.09-.33.12-.5a2.14,2.14,0,0,0-1.06-2.51,1.28,1.28,0,0,0-.7-.13c-.49,0-1,.13-1.47.21a1.25,1.25,0,0,1-1.63-1,5.78,5.78,0,0,0-.54-1,1.43,1.43,0,0,0-1.4-.66,8.76,8.76,0,0,0-3.23.71c-.78.37-1.57.71-2.34,1.1a1.43,1.43,0,0,1-1.32.08,7,7,0,0,0-1.67-.25,2.5,2.5,0,0,1-.68-.14c.19-.08.37-.17.57-.24A79.17,79.17,0,0,0,79.61,41.53,29.36,29.36,0,0,0,82.68,38c1.93-2.4,3.82-4.84,5.73-7.27.53-.68.36-.69,1.34-.43,1.59.42,3.19.85,4.8,1.24a1.29,1.29,0,0,1,1,.86,2.45,2.45,0,0,0,.42.78,1.93,1.93,0,0,1,.6,1.52.91.91,0,0,0,.36.68,5.12,5.12,0,0,1,1.4,2.13,2,2,0,0,1,.12.87,3.22,3.22,0,0,0,1.17,2.82,3.27,3.27,0,0,1,1.16,2.09c.12.77.42,1.31,1.35,1.26,0,.66.44.92.84,1.3a15,15,0,0,1,2.52,2.76,1.37,1.37,0,0,1,.22.83c0,.24-.13.46.07.67.35.37.53.92,1.08,1.07a.72.72,0,0,0,.43-.05,25,25,0,0,1,4.61-1,5.67,5.67,0,0,0,1.63-.65c.26-.13.47-.25.74-.08a.73.73,0,0,1,.32.7,10.74,10.74,0,0,1-.67,3.12,1.21,1.21,0,0,1,0,.14c-.77,1.67-1.53,3.36-2.33,5a6.25,6.25,0,0,1-.8,1.24A19.2,19.2,0,0,1,107.39,63a13.12,13.12,0,0,0-3,3.49,9.35,9.35,0,0,1-1.56,1.65,1.84,1.84,0,0,0-.53.76c-.25.67-.57,1.31-.86,2a12.65,12.65,0,0,0-.59,1.43,1.09,1.09,0,0,0,.38,1.07,1,1,0,0,1,.22,1.06,4.09,4.09,0,0,0,.79,3.42,2,2,0,0,1,.38,1.23c0,.5-.07,1,0,1.48,0,.89.11,1.77.17,2.66a1.81,1.81,0,0,1,0,.65,4.8,4.8,0,0,1-2.19,2.94c-.46.25-.94.44-1.4.68a3.09,3.09,0,0,0-1.19,1.08,4.1,4.1,0,0,1-.73.71c-.16.15-.36.26-.51.42a5.75,5.75,0,0,0-.94,1c-.27.48.24.86.38,1.27a4.71,4.71,0,0,1,.21,3,1.3,1.3,0,0,0,0,.44c.09.84-.43,1.24-1.11,1.54-.5.22-1,.45-1.46.7a.83.83,0,0,0-.42.8,13,13,0,0,1-.17,1.76,3.12,3.12,0,0,1-1.1,2,3.58,3.58,0,0,0-.82,1,16.14,16.14,0,0,1-2.83,3.39,7.11,7.11,0,0,1-4.46,2.28,14.32,14.32,0,0,0-3.92.47,10.19,10.19,0,0,0-1.11.34.77.77,0,0,1-.88-.06,2.39,2.39,0,0,0-.77-.41c-.57-.18-.58-.16-.47-.75Q76.8,108.2,76.81,108.11Z"/><path class="cls-1" d="M39.47,60.3c1.06-.4,2.12-.79,3.17-1.2A88.42,88.42,0,0,0,64.8,46.74,65.27,65.27,0,0,0,78.06,33.29c1.11-1.54,2-3.19,3.06-4.8a7.63,7.63,0,0,0,.4-.88l-5.7-1.55c.44-.71,12.43-12.25,13.1-12.59L95.8,31.28c-.32-.05-.53-.08-.74-.13L89.7,29.73c-.88-.23-.88-.23-1.42.47l-7.16,9.06a27.34,27.34,0,0,1-4.22,4,78,78,0,0,1-27.25,15,57.22,57.22,0,0,1-9.59,2.12c-.19,0-.39,0-.58,0Z"/><path class="cls-1" d="M110.87,81.68l.57.11c.25-1.24.25-1.24.8-1.6a1.56,1.56,0,0,1,.65.94c.16.54.29,1.09.4,1.64s.15,1,.23,1.52-.13.93-.79,1.17a2.65,2.65,0,0,1,.1.55,2.75,2.75,0,0,1-.15.69c-.17.46-.38.9-.54,1.36-.27.76-.5,1.54-.75,2.31s-.44,1.41-.67,2.11c-.11.33-.27.64-.37,1-.16.51-.25,1-.44,1.55a4.25,4.25,0,0,1-1.13,2.17c-.82.62-2.41.92-3.26,0a1.43,1.43,0,0,1-.46-1,5,5,0,0,0-.32-2,2.11,2.11,0,0,1,.28-2c.29-.43.55-.88.85-1.3a1.54,1.54,0,0,0,.24-1.33c-.12-.53-.21-1.06-.31-1.6a1.59,1.59,0,0,1,.28-1.33c0-.06.11-.12.11-.19.06-.85.75-1,1.36-1.32.23-.1.45-.21.68-.29a3.91,3.91,0,0,0,2.26-2.36C110.6,82.24,110.73,82,110.87,81.68Z"/><path class="cls-1" d="M13.59,128.65h2.07v11.06a10.22,10.22,0,0,1-1.47,0,1.2,1.2,0,0,1-.62-.46c-1.55-1.88-3.09-3.78-4.63-5.67L8,132.46a5.93,5.93,0,0,0-.11,1.8c0,.59,0,1.19,0,1.78v3.61H5.81q0-5.47,0-10.92a2.91,2.91,0,0,1,1.59-.09c.22,0,.43.3.59.51,1.68,2,3.34,4.08,5,6.13l.59.68Z"/><path class="cls-1" d="M94.24,136.07l2.52,3.6c-.81,0-1.45,0-2.07,0-.19,0-.4-.25-.54-.43-.57-.78-1.12-1.56-1.65-2.37a.81.81,0,0,0-.78-.41c-.76,0-1.52,0-2.38,0v3.18h-2c-.18-.48-.25-9.82-.07-11a4.87,4.87,0,0,1,.55-.06h4.29a5.2,5.2,0,0,1,2.35.55,3.84,3.84,0,0,1,.31,6.62Zm-4.86-1.52a12.49,12.49,0,0,0,3.4,0,1.31,1.31,0,0,0,.28-.09,1.92,1.92,0,0,0,1.32-2A1.87,1.87,0,0,0,93,130.54a12,12,0,0,0-3.59-.15Z"/><path class="cls-1" d="M63.94,139.59c.12-.36.18-.57.26-.77l4-9.84c.07-.16.15-.32.21-.48a.88.88,0,0,1,1-.65c.79,0,.84,0,1.15.76q2,5,4.06,9.91c0,.1.07.19.11.28.31.79.25.88-.62.88H64.83C64.57,139.68,64.31,139.63,63.94,139.59Zm8-2.08-2.35-6.07H69.4L67,137.51Z"/><path class="cls-1" d="M38.11,138v1.6a66.26,66.26,0,0,1-8.18.08c-.16-.51-.23-9.76-.07-10.9a55.05,55.05,0,0,1,8,0v1.65H32c-.09.94,0,1.81,0,2.78,1.78.13,3.52,0,5.29.09v1.69c-.87.07-1.75,0-2.63,0s-1.71,0-2.62,0v2.92c.28,0,.55,0,.81,0h4.51C37.53,137.93,37.8,138,38.11,138Z"/><path class="cls-1" d="M59.71,25.56l-.24.21a2.28,2.28,0,0,1-3,.31,2,2,0,0,1-.42-3.28,1.55,1.55,0,0,1,1.78-.35A1.8,1.8,0,0,1,59.13,24a1.44,1.44,0,0,1-.86,1.43,1.24,1.24,0,0,1-1.45-.19A1.16,1.16,0,0,1,56.45,24a.91.91,0,0,1,.77-.71.9.9,0,0,1,.92.36.64.64,0,0,1-.32,1.05.53.53,0,0,1-.48-.17c-.14-.21,0-.36.26-.39l.33-.11c-.23-.12-.39-.27-.48-.23a.73.73,0,0,0-.41.36c-.17.49.35.95.89.82a.85.85,0,0,0,.66-.73,1,1,0,0,0-.4-1,1.34,1.34,0,0,0-1.64,0,1.56,1.56,0,0,0-.17,1.91,2,2,0,0,0,2,.61,1.65,1.65,0,0,0,1-1.67,1.86,1.86,0,0,0-1.65-1.88L56.12,22l.09-1c.61.13,1.13.27,1.66.36a2,2,0,0,0,2.3-2.05,1.37,1.37,0,0,0-.89-1.33,1.78,1.78,0,0,0-1.82.21A1.43,1.43,0,0,0,57,19.71c.11.53.52.77,1.18.77a1.08,1.08,0,0,0,1.14-.76.86.86,0,0,0-1-1.07.62.62,0,0,0-.49.72.41.41,0,0,0,.67.27c0-.07,0-.14-.05-.15-.26-.13-.44-.32-.17-.56s.46,0,.63.17a.61.61,0,0,1-.13.91,1,1,0,0,1-1.11.06,1,1,0,0,1-.45-1A1.32,1.32,0,0,1,58.42,18a1.45,1.45,0,0,1,1.4,1,1.49,1.49,0,0,1-.5,1.66,2,2,0,0,1-2.51,0A2.14,2.14,0,0,1,56.74,18a1.15,1.15,0,0,1,.54-.36,10.45,10.45,0,0,1,1.66-.36,1.58,1.58,0,0,1,1.31.58,5.42,5.42,0,0,1,.37.44,7.23,7.23,0,0,1,1.5-.66,2.28,2.28,0,0,1,2.35.91,2,2,0,0,1-.33,2.8,1.81,1.81,0,0,1-2.26-.1,1.52,1.52,0,0,1-.54-1.9,1.44,1.44,0,0,1,1.49-.87,1.3,1.3,0,0,1,1.1,1.14,1.08,1.08,0,0,1-.69,1.11.93.93,0,0,1-1.05-.33.62.62,0,0,1,.28-1,.58.58,0,0,1,.5.14c.15.22,0,.36-.25.4a.82.82,0,0,0-.19.09c.08.27.28.34.45.22a.8.8,0,0,0,.33-.52c0-.44-.5-.75-1-.61a.93.93,0,0,0-.55,1.21,1.34,1.34,0,0,0,1.94.53,1.51,1.51,0,0,0,0-2.12,1.92,1.92,0,0,0-2.07-.28,1.75,1.75,0,0,0-.67,2,1.79,1.79,0,0,0,1.72,1.46c.54.05,1.07.07,1.67.11l-.17,1.19c-.58-.12-1.11-.2-1.62-.34a2,2,0,0,0-2.31,2,1.32,1.32,0,0,0,.78,1.32A1.85,1.85,0,0,0,63,26a1.36,1.36,0,0,0,.51-1.45,1,1,0,0,0-.88-.89,1.2,1.2,0,0,0-1.27.38.89.89,0,0,0-.11,1,.82.82,0,0,0,.8.43.62.62,0,0,0,.6-.7c0-.3-.18-.38-.73-.34.12.11.22.16.25.25a2,2,0,0,1,.09.44c-.16,0-.35.09-.47,0a.63.63,0,0,1-.07-1.1,1,1,0,0,1,1.16,0,1.06,1.06,0,0,1,.31,1.21,1.32,1.32,0,0,1-1.65.73,1.51,1.51,0,0,1-.7-2.22,2.08,2.08,0,0,1,2-.78,1.65,1.65,0,0,1,1.28,1.46,2,2,0,0,1-1.49,2.37,2.39,2.39,0,0,1-2.76-1C59.85,25.73,59.79,25.67,59.71,25.56Zm.46-4.17c-.45,0-.87.28-.88.62s.45.77.93.78a.75.75,0,0,0,.83-.67A.86.86,0,0,0,60.17,21.39Z"/><path class="cls-1" d="M115.64,139.65h-2c0-.56,4.08-9.69,4.9-11.09h2l5,11a5.85,5.85,0,0,1-2,.07c-.12,0-.25-.22-.32-.36-.25-.54-.49-1.08-.7-1.63a.7.7,0,0,0-.77-.52c-1.48,0-3,0-4.44,0a.68.68,0,0,0-.73.47C116.26,138.29,115.94,139,115.64,139.65Zm1.89-4.34a13.34,13.34,0,0,0,3.9,0l-2-4.54C118.78,132.37,118.15,133.83,117.53,135.31Z"/><path class="cls-1" d="M39.43,138.57l.72-1.62.61.32a6,6,0,0,0,3.92.76,2.5,2.5,0,0,0,1.08-.41,1.05,1.05,0,0,0,0-1.8,5.86,5.86,0,0,0-1.29-.54c-.61-.18-1.24-.3-1.86-.47a8.63,8.63,0,0,1-1.11-.4A2.66,2.66,0,0,1,39.7,132a3,3,0,0,1,1.56-2.89,5.57,5.57,0,0,1,2.85-.67,7.18,7.18,0,0,1,3.16.66c.19.09.37.21.62.36L47.27,131a19.3,19.3,0,0,0-2.34-.68,7.35,7.35,0,0,0-2,.09,1.58,1.58,0,0,0-.76.41,1.08,1.08,0,0,0,.13,1.77,4,4,0,0,0,1,.44c.71.21,1.43.36,2.14.57a9.37,9.37,0,0,1,1.25.46,2.87,2.87,0,0,1,.48,4.89,4.4,4.4,0,0,1-2.1.85,8.22,8.22,0,0,1-4.62-.6C40.15,139,39.84,138.81,39.43,138.57Z"/><path class="cls-1" d="M50.25,36.45l0,.69a2.3,2.3,0,0,1,1.64,1A2.22,2.22,0,0,1,52,39.7a1.89,1.89,0,0,1-2,1.63,2.08,2.08,0,0,1-1.57-.85c-.41-.56-.16-1.2-.27-1.88l-1-.15c-.16.81-.23,1.65-1,2a2.76,2.76,0,0,1-1.42.18,1.9,1.9,0,0,1-1.52-2.14c.09-1.3.7-1.82,2.4-2l.12-.66c-.8-.16-1.65-.2-2-1a2.41,2.41,0,0,1-.16-1.52,1.86,1.86,0,0,1,2.13-1.42c1.31,0,1.75.55,2.07,2.41l1.08.15c.07-.11.12-.14.13-.19a2.12,2.12,0,0,1,3.5-1.18,2,2,0,0,1,.48,2.35,1.76,1.76,0,0,1-1.9,1.1ZM49.12,38.8a1.07,1.07,0,0,0,0,1.52,1.35,1.35,0,0,0,2.17-1.41,1,1,0,0,0-.93-1c-.46-.1-.93-.15-1.39-.21-1.25-.16-2.49-.34-3.74-.49a1.17,1.17,0,0,0-1.43,1.21,3.27,3.27,0,0,0,0,.44,1.06,1.06,0,0,0,.68,1,1.26,1.26,0,0,0,1.33-.13,1.12,1.12,0,0,0,.32-1.36c-.31.12-.2.42-.26.63a.87.87,0,0,1-1.46.45,1.11,1.11,0,0,1-.31-1.15c.07-.61.32-.83.93-.78.34,0,.69.09,1,.13,1.39.19,2.78.39,4.18.57.36,0,.74.16.76.56a2.4,2.4,0,0,1-.2,1.12,1,1,0,0,1-1.1.39c-.39-.12-.55-.38-.56-.92C49.16,39.17,49.14,39,49.12,38.8Zm-2.87-2.15h.16c0-.06.11-.11.11-.17.13-.9.28-1.8.36-2.71a1.22,1.22,0,0,0-.24-.75,1.52,1.52,0,0,0-1.37-.53A1.34,1.34,0,0,0,44,34a1.25,1.25,0,0,0,1.49,1.15c.1,0,.17-.16.31-.31-.33-.08-.57-.13-.8-.2a.82.82,0,0,1-.42-1.31A1.24,1.24,0,0,1,46,33c.44.18.55.4.47,1s-.17,1.31-.24,2C46.23,36.19,46.25,36.42,46.25,36.65Zm4.2-1.2c.71.56,1.34.42,1.69-.27a1.23,1.23,0,0,0,0-1.27,1.46,1.46,0,0,0-1.34-.65c-.5,0-1,.14-1.14.74a11.74,11.74,0,0,0-.27,2.9.82.82,0,0,0,.15-.39c.1-.7.19-1.41.3-2.12.06-.4.17-.78.65-.88a1.43,1.43,0,0,1,1.37.54.9.9,0,0,1-.73,1.39C50.89,35.46,50.67,35.45,50.45,35.45Zm-3.16.62v.75l1.19.11.07-.71Zm-2.17-2.44v.23a1.85,1.85,0,0,0,.44.18c.09,0,.2-.09.3-.14-.07-.11-.13-.29-.22-.31A1.49,1.49,0,0,0,45.12,33.63Zm3.49,1.66a1.63,1.63,0,0,0-1.27-.15A1.2,1.2,0,0,0,48.61,35.29Zm-3.31,3c-.32-.13-.47,0-.52.19s0,.45.38.49ZM50,39.61a.43.43,0,0,0,.36-.53c0-.09-.17-.16-.3-.28C49.89,39.1,49.78,39.32,50,39.61Zm1.27-5c-.08-.12-.13-.24-.19-.25a1.49,1.49,0,0,0-.47,0,.31.31,0,0,0,0,.19,1.34,1.34,0,0,0,.38.14C51,34.72,51.11,34.65,51.25,34.61Z"/><path class="cls-1" d="M129.94,138.52l.86-1.59.67.37a5.12,5.12,0,0,0,3.51.57,1.58,1.58,0,0,0,1.41-1.48,1.32,1.32,0,0,0-.91-1.44,5.11,5.11,0,0,0-1.44-.28c-.81,0-1.63,0-2.44,0l-.83-.05c.19-2,.37-4,.56-6h6.46a4,4,0,0,1,0,1.72h-4.67c-.08.85-.16,1.62-.25,2.5l1,0a6.57,6.57,0,0,1,2.41.33,2.93,2.93,0,0,1,2.19,2.61,3.26,3.26,0,0,1-1.67,3.43,5.32,5.32,0,0,1-3,.61A6.68,6.68,0,0,1,129.94,138.52Z"/><path class="cls-1" d="M113.34,130.3,112,131.54a4.13,4.13,0,0,0-4-1.17,3.67,3.67,0,0,0-2.13,1.36,4,4,0,0,0,.2,5,3.92,3.92,0,0,0,3,1.22,4,4,0,0,0,2.92-1.3l1.3,1.24c-.92,1.48-3.71,2.45-6.3,1.66a5.7,5.7,0,0,1-.33-10.77C109,127.92,112,128.51,113.34,130.3Z"/><path class="cls-1" d="M28.7,128.59c-.17.41-.25.64-.35.86-1.39,3.19-2.79,6.37-4.15,9.57a.93.93,0,0,1-1.1.7c-.41,0-.83,0-1.3,0l-4.86-11.11c.78,0,1.41,0,2,0,.31,0,.38.26.48.49.54,1.24,1.08,2.49,1.61,3.73l1.5,3.46c.08.2.19.4.33.69.15-.29.26-.5.35-.71,1-2.33,2-4.65,3-7a.9.9,0,0,1,1-.69C27.73,128.63,28.14,128.59,28.7,128.59Z"/><path class="cls-1" d="M145.62,135.3v-2.11h2v2.15h1.94v1.78h-1.86l-.08,2.51h-2v-2.47h-6A2.44,2.44,0,0,1,140,135c1.51-1.88,3-3.81,4.41-5.76a1.45,1.45,0,0,1,1.48-.7c.38,0,.77,0,1.35,0l-5.07,6.74Z"/><path class="cls-1" d="M84.56,133.59v1.82H79.28v4.22h-2c-.17-.56-.2-10.18,0-11h8v1.7c-2,.14-3.92,0-5.92.09v3.2Z"/><path class="cls-1" d="M54.54,139.68H52.4v-9.27H48.78v-1.68a86.56,86.56,0,0,1,9.28,0,3,3,0,0,1,0,1.68H54.54Z"/><path class="cls-1" d="M50,25c-.4.09-.58,0-.53-.4s.14-1,.2-1.54c0-.18.1-.41-.31-.46-.06.37-.13.74-.2,1.12s-.11.76-.18,1.21l-1.23-.14c-.58-.07-1.17-.13-1.76-.22-.39-.06-.39-.09-.27-.68l2.77.31c-.28-.64-.76-.42-1.11-.51s-.77-.13-1.19-.2l.05-.58,2.28.23.07-.18c-.1-.08-.2-.22-.31-.24-.44-.08-.88-.12-1.32-.18l-.61-.12c.13-.46.48-.63.78-.86l.4.45c.29-.37.14-1,.83-1l.06,1c.39,0,.37-.29.37-.47a3.85,3.85,0,0,1,.79-2.19c.08-.12.15-.31.26-.33.35-.07.39-.33.44-.6s.23-.42.59-.3l.07,1c.45-.43.89-.23,1.33-.16l2,.3a7.05,7.05,0,0,0-.53,4.06,11.94,11.94,0,0,0-2.38-.05c.69.49,1.53.29,2.28.61l-.1.49-2.28-.1a1,1,0,0,0,0,.2c.85.3,1.78.23,2.7.47l-.08.6-3.3-.42c-.16-.83.32-1.64,0-2.42C50.14,23.42,50.34,24.25,50,25Zm-.46-3.89-.11.8,1.43.18.05-.72a1.45,1.45,0,0,0-.23-.11Zm3.61-1.3a4.28,4.28,0,0,0-.41,2.8,5.22,5.22,0,0,0,.5-2.36A1.64,1.64,0,0,0,53.19,19.81ZM52,19.65a4.93,4.93,0,0,0-.28,2.82,7.35,7.35,0,0,0,.5-2.58C52.23,19.81,52.11,19.74,52,19.65Zm-2.24,0-.14.79,1.45.19.06-.81Z"/><path class="cls-1" d="M43.84,51.41c.07,0,.16,0,.2,0,.22.18.44.26.62,0a.53.53,0,0,0-.06-.74.52.52,0,0,0-.68-.07,1.06,1.06,0,0,0-.43,1.1,1,1,0,0,0,.88.77,1.1,1.1,0,0,0,1.17-1.28A17.42,17.42,0,0,0,45,49.37c-.06-.18-.14-.34-.29-.69a9.16,9.16,0,0,0,5.33.77,5.62,5.62,0,0,0-.44.53,18.73,18.73,0,0,0-1.08,1.75,1,1,0,0,0,.42,1.42A.94.94,0,0,0,50.2,53a1.06,1.06,0,0,0,0-1.36.5.5,0,0,0-.66-.15.84.84,0,0,0-.33.53.36.36,0,0,0,.45.43l.37-.07c-.23.54-.59.62-.94.28a1,1,0,0,1,0-1.34.91.91,0,0,1,1.32,0,1.41,1.41,0,0,1,.08,1.78,1.32,1.32,0,0,1-1.71.4c-.21-.12-.4-.28-.6-.42a1.67,1.67,0,0,0-.12,1.46c1.52-.61,2.4-.36,2.31.73-.43-.51-.84-1-1.57-.65s-.55,1.07-.64,1.74c-.93.39-1.78,1.07-2.94.91a1.4,1.4,0,0,1-1.15-.69c.12-.21.27-.46.43-.69a2.08,2.08,0,0,0,.35-1.41,1.06,1.06,0,0,0-.92-.84,1,1,0,0,0-1,.6,1.1,1.1,0,0,0,.28,1.22.54.54,0,0,0,.79,0,.53.53,0,0,0,0-.74c-.27-.36-.51-.05-.76.07,0-.52.3-.76.74-.56a.94.94,0,0,1,.42,1.26.88.88,0,0,1-1.25.41A1.38,1.38,0,0,1,42.7,54a1.3,1.3,0,0,1,1.89-.53,8.28,8.28,0,0,1,.71.58,2.68,2.68,0,0,0,.25-1.59c-.27.11-.48.22-.71.3A1.3,1.3,0,0,1,43.21,52a1.39,1.39,0,0,1,.62-1.78.9.9,0,0,1,1.2.39,1,1,0,0,1-.35,1.28C44.26,52.13,44,52,43.84,51.41Zm3.55,5.15a12.37,12.37,0,0,1,.67-6l-1.88-.15c.12,2,.21,4-.79,5.8Z"/><path class="cls-1" d="M98.83,128.6h2v11H98.91l0,0s0,0,0-.06a2.23,2.23,0,0,1,0-.36V128.94A2,2,0,0,1,98.83,128.6Z"/><path class="cls-1" d="M3,139.68H1.18a79.5,79.5,0,0,1-.06-8.37A7.65,7.65,0,0,1,3,131.23,71.5,71.5,0,0,1,3,139.68Z"/><path class="cls-1" d="M57.48,33.46a3.77,3.77,0,0,1,2.83,1.26,4.73,4.73,0,0,1-.91,6.9,2.53,2.53,0,0,1-1.89.47c-.43-.08-.89-.07-1.31-.18a2.83,2.83,0,0,1-1.05-.5,4.62,4.62,0,0,1,1.06-7.61A7.2,7.2,0,0,1,57.48,33.46ZM54.36,38a3.83,3.83,0,0,0,.72,2.32,2.84,2.84,0,0,0,4.12.59,4.07,4.07,0,0,0,.77-5.4,2.82,2.82,0,0,0-4.22-.54A3.94,3.94,0,0,0,54.36,38Z"/><path class="cls-1" d="M40.55,39l.31.81a29.47,29.47,0,0,1-3.24-.43c-.1-.4,0-.63.39-.58l1.66.18c-.34-.87-.77-1.56-1.18-2.39l-1.18,1.2c-.41-.25-.39-.52-.13-.81l1.07-1.18-.77-.33.82-.61a.89.89,0,0,1,.11-1l.46.34,1.73-1.86-.84-.25c0-.57,0-.61.46-.57s1.07.15,1.7.24l-.48.75A4.77,4.77,0,0,1,40.55,39ZM39,35.09l1.84.35c.06.54-.18.6-.53.54A3.48,3.48,0,0,0,39,35.9a7.81,7.81,0,0,0,1.26,2.35,3.62,3.62,0,0,0,.58-5.17Z"/><path class="cls-1" d="M72,5.61c.06-.62.09-1.08.17-1.54a.87.87,0,0,0-.25-.8c-.32-.34-.61-.69-1-1.13.55-.12,1-.24,1.4-.3a.87.87,0,0,0,.72-.54c.19-.4.42-.78.7-1.3.27.48.49.85.67,1.24a1,1,0,0,0,.83.63,11.57,11.57,0,0,1,1.32.29c-.36.41-.64.75-1,1.06a1,1,0,0,0-.3.93c.09.43.09.87.15,1.45-.46-.21-.84-.35-1.18-.55a1,1,0,0,0-1.1,0C72.87,5.24,72.5,5.38,72,5.61Z"/><path class="cls-1" d="M38.21,15.11c.06.55.14,1,.15,1.41a1,1,0,0,0,.46.85c.37.25.71.53,1.13.85a3.78,3.78,0,0,1-1.18.52,1,1,0,0,0-.76.8c-.08.38-.23.74-.4,1.26-.36-.42-.65-.74-.91-1.08a1,1,0,0,0-.93-.47c-.41,0-.82,0-1.38-.08.26-.44.44-.81.67-1.13a1,1,0,0,0,.13-1c-.16-.38-.27-.77-.45-1.32.59.15,1,.23,1.47.38a.83.83,0,0,0,.82-.14C37.38,15.66,37.75,15.42,38.21,15.11Z"/><path class="cls-1" d="M79.11,5.47c.16-.59.26-1,.39-1.44a1,1,0,0,0-.15-.91c-.25-.35-.47-.73-.78-1.21.55,0,1-.1,1.37-.09a.91.91,0,0,0,.86-.45C81,1,81.33.68,81.67.24c.2.54.37.94.49,1.36a.9.9,0,0,0,.64.65c.41.13.82.3,1.32.5a8.88,8.88,0,0,1-.69.58A1.6,1.6,0,0,0,82.6,5a6.5,6.5,0,0,1-.07,1c-.45-.3-.81-.51-1.13-.77a.91.91,0,0,0-1-.15C80.06,5.21,79.66,5.31,79.11,5.47Z"/><path class="cls-1" d="M25.53,29.38c.21.57.38.95.5,1.35a1,1,0,0,0,.69.7c.41.14.81.32,1.34.54-.44.32-.78.6-1.14.83a.87.87,0,0,0-.43.79c0,.41,0,.82-.08,1.36a3,3,0,0,1-.62-.36,2,2,0,0,0-2.29-.43,3.2,3.2,0,0,1-.61.09,11.15,11.15,0,0,1,.32-1.16A1.07,1.07,0,0,0,23,31.93c-.24-.3-.42-.64-.72-1.1.6,0,1.06,0,1.51,0a.89.89,0,0,0,.77-.35C24.86,30.15,25.15,29.83,25.53,29.38Z"/><path class="cls-1" d="M103.84,7.31a5.93,5.93,0,0,1-.09,1.07,1.35,1.35,0,0,0,.54,1.54,7.86,7.86,0,0,1,.71.71c-.51.15-.92.28-1.33.38a1.07,1.07,0,0,0-.82.66c-.16.38-.37.74-.58,1.16a1.64,1.64,0,0,1-.66-.88,1.18,1.18,0,0,0-1.14-.76c-.33,0-.67-.09-1.16-.16.35-.42.58-.75.87-1a1.12,1.12,0,0,0,.33-1.13c-.09-.38-.1-.78-.17-1.28.48.18.87.3,1.23.47A1,1,0,0,0,102.62,8C103,7.77,103.34,7.59,103.84,7.31Z"/><path class="cls-1" d="M56.12,8.84H54.7a.87.87,0,0,0-.81.41c-.24.34-.51.66-.85,1.09-.2-.51-.38-.91-.51-1.32a1,1,0,0,0-.73-.75c-.39-.13-.76-.31-1.26-.52a6.74,6.74,0,0,1,.74-.62A1.38,1.38,0,0,0,52,5.67a7.42,7.42,0,0,1,0-1.1c.44.31.77.5,1.06.75a1.12,1.12,0,0,0,1.22.23,10,10,0,0,1,1.17-.29c-.06.31-.1.54-.15.76-.34,1.32-.45.87.34,2.09C55.82,8.29,55.91,8.49,56.12,8.84Z"/><path class="cls-1" d="M115.66,19.16c-.59,0-1,.09-1.42.08a1,1,0,0,0-.88.43c-.25.36-.55.68-.92,1.12-.18-.54-.34-.94-.45-1.36a.83.83,0,0,0-.62-.65c-.39-.13-.77-.3-1.29-.5.43-.35.75-.64,1.11-.88a1,1,0,0,0,.5-.91c0-.42.08-.83.13-1.33a3,3,0,0,1,.56.33,1.8,1.8,0,0,0,2.21.36,3.16,3.16,0,0,1,.53-.13,1.45,1.45,0,0,1-.21,1.07,1.29,1.29,0,0,0,.17,1.43A9,9,0,0,1,115.66,19.16Z"/><path class="cls-1" d="M68.55,5.86c-.56-.18-1-.3-1.39-.44a.83.83,0,0,0-.83.12c-.35.26-.71.49-1.2.81,0-.59-.09-1-.08-1.45A1,1,0,0,0,64.63,4c-.33-.25-.64-.53-1.06-.89.47-.19.84-.36,1.22-.48a1,1,0,0,0,.73-.74c.11-.4.28-.79.47-1.3a11.71,11.71,0,0,1,.8,1,1.09,1.09,0,0,0,1,.57c.36,0,.73,0,1.23.06a9.5,9.5,0,0,1-.63,1,1.23,1.23,0,0,0-.2,1.3A9.26,9.26,0,0,1,68.55,5.86Z"/><path class="cls-1" d="M22.57,35a9.65,9.65,0,0,1,.51,1.08,1.32,1.32,0,0,0,1.11.95,10.27,10.27,0,0,1,1.14.36c-.42.36-.74.66-1.08.93a.82.82,0,0,0-.37.82c0,.42.05.83.08,1.33a2,2,0,0,1-.5-.18,2.15,2.15,0,0,0-2.58-.3,2.28,2.28,0,0,1-.53.14c.09-.42.13-.78.23-1.13a1.16,1.16,0,0,0-.3-1.27c-.25-.26-.45-.57-.78-1,.56-.06,1-.14,1.41-.14a.91.91,0,0,0,.86-.46C22,35.81,22.24,35.48,22.57,35Z"/><path class="cls-1" d="M25,84.09c-.5.2-.87.39-1.26.52a1.13,1.13,0,0,0-.81.86c-.1.37-.26.73-.44,1.22-.29-.34-.52-.56-.7-.81a1.27,1.27,0,0,0-1.32-.6,8.85,8.85,0,0,1-1.17,0,11.27,11.27,0,0,1,.68-1.1A1.07,1.07,0,0,0,20.16,83c-.14-.33-.21-.69-.35-1.15a7.42,7.42,0,0,1,1,.17,1.52,1.52,0,0,0,1.69-.34,4.93,4.93,0,0,1,.73-.5.78.78,0,0,1,.2.77,1.45,1.45,0,0,0,.9,1.6A6.5,6.5,0,0,1,25,84.09Z"/><path class="cls-1" d="M43.39,10.81c0,.55,0,1,0,1.42a1,1,0,0,0,.37.9c.34.28.64.6,1.06,1-.56.15-1,.28-1.4.36a.85.85,0,0,0-.69.58c-.15.39-.34.76-.57,1.27a7.62,7.62,0,0,1-.69-1,1.37,1.37,0,0,0-1.24-.78c-.33,0-.67-.11-1.12-.18a7.11,7.11,0,0,1,.65-.82A1.34,1.34,0,0,0,40.12,12a8.74,8.74,0,0,1-.22-1.08A12,12,0,0,1,41,11.4a1.22,1.22,0,0,0,1.38-.06A7.48,7.48,0,0,1,43.39,10.81Z"/><path class="cls-1" d="M25.86,24.89a10.54,10.54,0,0,1,1.13.16,1.32,1.32,0,0,0,1.45-.43,7.51,7.51,0,0,1,.79-.68,4.36,4.36,0,0,1,.23.87,1.63,1.63,0,0,0,1.14,1.55,8,8,0,0,1,.78.47c-.5.27-.88.49-1.27.68a.79.79,0,0,0-.5.66c-.06.44-.17.86-.29,1.42-.38-.34-.69-.58-.95-.86a1.23,1.23,0,0,0-1.18-.43c-.38.06-.77.05-1.28.08a11.43,11.43,0,0,1,.52-1.14,1,1,0,0,0,0-1.17C26.22,25.73,26.08,25.37,25.86,24.89Z"/><path class="cls-1" d="M30.19,98.3a4.35,4.35,0,0,1,.72,0A1.91,1.91,0,0,0,33,97.32a1.82,1.82,0,0,1,.31-.31s.09,0,.2-.07a4.68,4.68,0,0,1,.23.76A1.41,1.41,0,0,0,34.9,99a4.73,4.73,0,0,1,.72.31,1.82,1.82,0,0,1-.83.71,1.33,1.33,0,0,0-.77,1.24,6.24,6.24,0,0,1-.18,1.12c-.41-.29-.76-.51-1.07-.77a.94.94,0,0,0-1-.19c-.39.12-.81.19-1.35.32a9.12,9.12,0,0,1,.34-1,1.34,1.34,0,0,0-.11-1.57A7.85,7.85,0,0,1,30.19,98.3Z"/><path class="cls-1" d="M127.17,34.22c-.59-.13-1-.2-1.45-.33a.86.86,0,0,0-.83.17c-.35.26-.72.5-1.14.79a2.38,2.38,0,0,1-.19-1.26.94.94,0,0,0-.5-.91c-.33-.2-.64-.45-1.07-.75a12.21,12.21,0,0,1,1.21-.52,1.18,1.18,0,0,0,.87-.9c.1-.36.25-.69.41-1.13.21.2.37.34.51.49.91,1.06.54.91,1.91.87h.81c-.31.49-.52.87-.78,1.21a.91.91,0,0,0-.14,1C126.93,33.29,127,33.7,127.17,34.22Z"/><path class="cls-1" d="M15,50c.59-.19,1-.34,1.42-.44a.9.9,0,0,0,.68-.61c.14-.39.32-.76.53-1.27.35.42.63.74.88,1.08a1.06,1.06,0,0,0,.93.49c.41,0,.82,0,1.3.09a2.85,2.85,0,0,1-.7,1.09,1,1,0,0,0-.2,1c.12.36.19.74.32,1.25-.53-.15-.93-.22-1.31-.37a1.06,1.06,0,0,0-1.1.13c-.33.22-.68.39-1.14.66,0-.5-.06-.9,0-1.3a1,1,0,0,0-.45-.94C15.81,50.6,15.5,50.32,15,50Z"/><path class="cls-1" d="M22.83,43.2c-.42.43-.72.76-1,1.06a.79.79,0,0,0-.26.79c.08.43.12.87.19,1.44-.53-.24-1-.41-1.36-.62a.9.9,0,0,0-.91,0c-.39.19-.8.34-1.32.56a8.55,8.55,0,0,1,.12-1.25A1.1,1.1,0,0,0,17.84,44c-.27-.24-.51-.52-.87-.91.56-.1,1-.21,1.4-.25a.94.94,0,0,0,.81-.55c.18-.36.41-.71.68-1.19.29.48.53.84.73,1.22a1,1,0,0,0,.79.57C21.82,43,22.24,43.07,22.83,43.2Z"/><path class="cls-1" d="M105.2,14c.22-.16.43-.34.65-.49a1.6,1.6,0,0,0,.72-1.78,4.74,4.74,0,0,1,0-.86c.44.22.81.38,1.15.59a1,1,0,0,0,1.05.06c.37-.19.77-.32,1.29-.53a12.48,12.48,0,0,1-.24,1.24,1.15,1.15,0,0,0,.27,1.22,8.73,8.73,0,0,1,.76.95c-.52.09-.92.17-1.32.22a1.12,1.12,0,0,0-.94.61c-.2.36-.45.69-.75,1.16a6.46,6.46,0,0,1-.45-1,1.29,1.29,0,0,0-1.22-1c-.29,0-.56-.14-.85-.21Z"/><path class="cls-1" d="M26.23,93.33c.61,0,1.06,0,1.5,0A.9.9,0,0,0,28.5,93c.29-.35.61-.69,1-1.13.15.49.29.85.37,1.22a1,1,0,0,0,.73.83c.37.12.73.28,1.23.49-.42.3-.71.55-1,.74a1.27,1.27,0,0,0-.68,1.14c0,.36-.09.71-.15,1.21-.43-.31-.77-.54-1.09-.79a.94.94,0,0,0-1-.19c-.4.12-.81.2-1.29.32a2,2,0,0,1,.3-1.08,1.27,1.27,0,0,0-.14-1.44C26.61,94,26.47,93.75,26.23,93.33Z"/><path class="cls-1" d="M120.79,23.92c.45.39.79.67,1.11,1a.76.76,0,0,0,.73.22c.46-.09.92-.13,1.52-.22-.22.5-.38.9-.58,1.28a.9.9,0,0,0,0,1c.2.36.35.75.57,1.23-.54,0-1,0-1.4-.08a1.09,1.09,0,0,0-1,.37c-.29.29-.61.55-1,.91-.11-.55-.23-1-.29-1.4a.78.78,0,0,0-.5-.67c-.39-.18-.76-.4-1.27-.67.5-.3.86-.54,1.25-.73a1,1,0,0,0,.57-.79C120.55,24.9,120.66,24.5,120.79,23.92Z"/><path class="cls-1" d="M92.33,8c.36-.57.61-1,.87-1.35a.8.8,0,0,0,.12-.76C93.19,5.47,93.1,5,93,4.45c.55.13,1,.21,1.39.34a.82.82,0,0,0,.82-.15c.35-.27.72-.5,1.21-.84A10.23,10.23,0,0,1,96.43,5a1.21,1.21,0,0,0,.63,1.24c.28.18.54.41.9.7a8.06,8.06,0,0,1-1.08.46,1.33,1.33,0,0,0-1,1c-.09.33-.24.64-.4,1.1-.34-.41-.63-.72-.87-1.07A.86.86,0,0,0,93.74,8C93.33,8,92.92,8,92.33,8Z"/><path class="cls-1" d="M52,116.41c-.07-.57-.14-1-.16-1.43a.91.91,0,0,0-.46-.78c-.37-.23-.72-.48-1.16-.78a6.56,6.56,0,0,1,1-.48,1.46,1.46,0,0,0,1.06-1.27,9.67,9.67,0,0,1,.3-1c.35.37.63.63.86.93a1,1,0,0,0,1,.41c.38,0,.78,0,1.24,0a2.17,2.17,0,0,1-.23.55,1.9,1.9,0,0,0-.22,2.31,1.43,1.43,0,0,1,.11.43s0,.08-.06.2c-.37-.07-.75-.12-1.13-.22a1,1,0,0,0-1,.24C52.79,115.82,52.46,116.06,52,116.41Z"/><path class="cls-1" d="M62.11,3.25c-.2.49-.31.84-.48,1.17a1.2,1.2,0,0,0,0,1.25c.19.34.33.71.55,1.18-.48,0-.84-.07-1.19-.13a1.12,1.12,0,0,0-1.18.39A12.29,12.29,0,0,1,59,8c-.12-.52-.24-.92-.31-1.32A1.12,1.12,0,0,0,58,5.74c-.36-.17-.71-.41-1.17-.68.44-.26.76-.48,1.1-.66a1,1,0,0,0,.63-.91,11.57,11.57,0,0,1,.23-1.35c.42.39.74.65,1,.95a1,1,0,0,0,1,.33C61.17,3.36,61.56,3.32,62.11,3.25Z"/><path class="cls-1" d="M50.13,11.25a7.35,7.35,0,0,1-1.11.16,1.18,1.18,0,0,0-1.19.79,8,8,0,0,1-.51.86,1.79,1.79,0,0,1-.61-.94,1.39,1.39,0,0,0-1.19-.95c-.31-.05-.6-.16-1.05-.28a6,6,0,0,1,.65-.71,1.37,1.37,0,0,0,.56-1.6,6.82,6.82,0,0,1-.07-1,8.5,8.5,0,0,1,1,.52,1.32,1.32,0,0,0,1.57.08,9.23,9.23,0,0,1,.93-.36c-.06.53-.08.94-.16,1.34a1.08,1.08,0,0,0,.28,1C49.51,10.46,49.77,10.81,50.13,11.25Z"/><path class="cls-1" d="M126.24,40.56c0-.55,0-1,.07-1.36a.89.89,0,0,0-.38-.89c-.33-.25-.63-.54-1.05-.9a10.94,10.94,0,0,1,1.24-.4,1.21,1.21,0,0,0,.95-.82,11.77,11.77,0,0,1,.53-1.13c.27.36.51.63.69.93a1.16,1.16,0,0,0,1.13.65,7.37,7.37,0,0,1,1.21.13,4.57,4.57,0,0,1-.48.65,1.61,1.61,0,0,0-.47,1.92,4.69,4.69,0,0,1,.12.81c-.48-.15-.88-.26-1.26-.41a1,1,0,0,0-1,.1C127.14,40.08,126.74,40.28,126.24,40.56Z"/><path class="cls-1" d="M86.11,6.34c.28-.58.47-1,.68-1.41a.81.81,0,0,0,0-.77c-.19-.42-.35-.86-.58-1.42.54.06,1,.08,1.39.16a.84.84,0,0,0,.86-.27c.31-.31.64-.6,1.07-1,.09.5.18.87.22,1.25a1.14,1.14,0,0,0,.69,1,11.6,11.6,0,0,1,1.08.63,6.49,6.49,0,0,1-.88.5,1.56,1.56,0,0,0-1,1.45,7,7,0,0,1-.22,1c-.37-.36-.66-.62-.91-.91a1,1,0,0,0-1-.36A9.9,9.9,0,0,1,86.11,6.34Z"/><path class="cls-1" d="M114.31,99.38a10.74,10.74,0,0,1,1-.44,1.16,1.16,0,0,0,.91-1,8.13,8.13,0,0,1,.32-1.09,10.55,10.55,0,0,1,.78.85,1.32,1.32,0,0,0,1.33.58c.33,0,.67,0,1.15,0a11.07,11.07,0,0,1-.57,1,1.13,1.13,0,0,0-.11,1.3,11.45,11.45,0,0,1,.42,1.17c-.43-.1-.76-.16-1.07-.26a1.31,1.31,0,0,0-1.48.3,6.58,6.58,0,0,1-.85.61c-.08-.56-.16-1-.2-1.43a.87.87,0,0,0-.43-.72C115.18,100,114.81,99.73,114.31,99.38Z"/><path class="cls-1" d="M33.53,19.38a11.19,11.19,0,0,1,.09,1.26,1.16,1.16,0,0,0,.59,1.1c.33.21.61.47,1,.8-.54.21-.94.37-1.35.51a.82.82,0,0,0-.58.6c-.12.41-.28.82-.47,1.35-.31-.37-.58-.63-.78-.93a1.31,1.31,0,0,0-1.31-.64c-.31,0-.63,0-1.12,0,.28-.47.46-.83.69-1.15a1,1,0,0,0,.14-1.1c-.15-.36-.25-.75-.42-1.26a12.76,12.76,0,0,1,1.28.34,1.07,1.07,0,0,0,1.16-.18A11,11,0,0,1,33.53,19.38Z"/><path class="cls-1" d="M63.49,117.18a2.81,2.81,0,0,1,.54-.28,1.84,1.84,0,0,0,1.58-1.69,3.55,3.55,0,0,1,.24-.56c.32.41.61.74.86,1.09a.91.91,0,0,0,.81.42c.41,0,.82,0,1.37,0-.26.44-.43.79-.65,1.09a1.13,1.13,0,0,0-.17,1.18c.14.37.21.75.35,1.26-.48-.12-.88-.21-1.26-.34a1,1,0,0,0-1,.18c-.29.24-.63.44-1.06.74,0-.53-.07-.91-.07-1.29a1.24,1.24,0,0,0-.55-1.07A11.4,11.4,0,0,1,63.49,117.18Z"/><path class="cls-1" d="M19.59,62.94a9.38,9.38,0,0,1-.4,1,1.2,1.2,0,0,0,.11,1.43c.19.26.32.55.53.91-.56,0-1,0-1.47,0a1,1,0,0,0-.85.33c-.29.32-.61.62-1,1a7.35,7.35,0,0,1-.33-1.07,1.2,1.2,0,0,0-.92-1,11.48,11.48,0,0,1-1.07-.47c.44-.29.76-.53,1.11-.73a1,1,0,0,0,.61-.92,8.73,8.73,0,0,1,.16-1.11c.37,0,.57.2.77.39a1.62,1.62,0,0,0,1.81.42A5.78,5.78,0,0,1,19.59,62.94Z"/><path class="cls-1" d="M17.77,75.34a3.58,3.58,0,0,1,.78.25,1.8,1.8,0,0,0,2.06-.18,3.91,3.91,0,0,1,.68-.34,8.41,8.41,0,0,1,0,1.24,1,1,0,0,0,.42,1c.31.24.58.51,1,.85-.54.15-.95.3-1.38.39a1,1,0,0,0-.81.67c-.15.38-.36.73-.61,1.24-.3-.46-.55-.78-.76-1.13a1,1,0,0,0-.9-.53c-.4,0-.81-.08-1.36-.13.36-.44.59-.75.86-1A1,1,0,0,0,18,76.6,10.46,10.46,0,0,1,17.77,75.34Z"/><path class="cls-1" d="M127.38,43.35c.54-.12.94-.22,1.35-.28a1.12,1.12,0,0,0,.9-.65c.17-.36.4-.68.67-1.13.26.42.49.76.67,1.11a1,1,0,0,0,.86.6c.41,0,.81.14,1.36.24-.4.42-.68.75-1,1a.88.88,0,0,0-.3.85c.08.43.09.86.14,1.4-.5-.2-.89-.33-1.26-.52a1,1,0,0,0-1,0c-.36.2-.75.35-1.21.56a4.58,4.58,0,0,1,.12-1.37.86.86,0,0,0-.28-.86C128.06,44.08,127.77,43.75,127.38,43.35Z"/><path class="cls-1" d="M123.7,93.34c-.27.47-.43.82-.65,1.14a1,1,0,0,0-.09,1.1c.16.35.27.72.45,1.22-.51-.11-.9-.16-1.26-.28a1.08,1.08,0,0,0-1.16.22c-.27.24-.58.43-1,.73a10.58,10.58,0,0,1-.16-1.28,1.13,1.13,0,0,0-.6-1c-.34-.2-.64-.45-1.08-.77.45-.19.79-.36,1.14-.47a1,1,0,0,0,.79-.87c.08-.36.2-.71.35-1.21.33.38.61.64.83.94a1.24,1.24,0,0,0,1.2.55C122.84,93.31,123.2,93.34,123.7,93.34Z"/><path class="cls-1" d="M127.47,86.65a5.42,5.42,0,0,1-.34-.87,1.61,1.61,0,0,0-1.29-1.33c-.25-.08-.49-.21-.86-.37.42-.3.73-.55,1.08-.76a.93.93,0,0,0,.49-.84c0-.39.07-.78.12-1.31a10.18,10.18,0,0,1,1,.67,1.24,1.24,0,0,0,1.29.26,10.33,10.33,0,0,1,1.19-.24,8.68,8.68,0,0,1-.33,1.07,1.17,1.17,0,0,0,.19,1.35,10.22,10.22,0,0,1,.64,1c-.54,0-1,0-1.35,0a1,1,0,0,0-1,.44C128.07,86,127.81,86.26,127.47,86.65Z"/><path class="cls-1" d="M104.84,108a7.49,7.49,0,0,1,1-.41,1.18,1.18,0,0,0,1-1.06,10.64,10.64,0,0,1,.33-1c.36.42.66.74.92,1.08a1,1,0,0,0,.89.43c.41,0,.82,0,1.38,0-.27.47-.44.83-.67,1.17a.92.92,0,0,0-.11,1c.16.38.27.79.45,1.31-.49-.12-.9-.18-1.27-.31a1,1,0,0,0-1.1.2c-.28.23-.59.42-1,.72a5.55,5.55,0,0,1-.13-1,1.41,1.41,0,0,0-.78-1.39A10.18,10.18,0,0,1,104.84,108Z"/><path class="cls-1" d="M25.77,86.65c.08.49.16.82.19,1.16a1.16,1.16,0,0,0,.76,1.07,7.81,7.81,0,0,1,1,.56c-.46.27-.82.5-1.2.69a1,1,0,0,0-.64.83c-.06.41-.19.8-.32,1.33a10.58,10.58,0,0,1-.88-.8,1.18,1.18,0,0,0-1.19-.39c-.36.07-.72.1-1.23.17.14-.32.23-.53.33-.74.61-1.27.59-.78.07-2-.08-.2-.15-.41-.26-.71.54,0,1,.07,1.45.13a.84.84,0,0,0,.74-.23C24.94,87.37,25.29,87.07,25.77,86.65Z"/><path class="cls-1" d="M16.46,55.27c.42.45.73.77,1,1.1a1,1,0,0,0,.85.33c.43,0,.87,0,1.41,0-.24.43-.41.8-.64,1.13a.87.87,0,0,0-.09,1c.17.35.28.73.48,1.24a11.47,11.47,0,0,1-1.31-.2,1.09,1.09,0,0,0-1.14.26c-.28.24-.59.44-1,.74a3.45,3.45,0,0,1-.16-.76,1.62,1.62,0,0,0-1.05-1.68,4.72,4.72,0,0,1-.69-.47,11.77,11.77,0,0,1,1.15-.52,1.06,1.06,0,0,0,.79-.87A11.22,11.22,0,0,1,16.46,55.27Z"/><path class="cls-1" d="M14.89,71.86c.43-.38.7-.67,1-.9a1.06,1.06,0,0,0,.43-1c0-.38,0-.77,0-1.27.48.24.87.42,1.25.63a1,1,0,0,0,.91,0c.4-.18.81-.31,1.37-.52-.1.53-.15.93-.24,1.32a.92.92,0,0,0,.23.94c.29.3.54.63.88,1-.47.08-.82.15-1.18.18a1.34,1.34,0,0,0-1.19.72,9.72,9.72,0,0,1-.69,1,8.51,8.51,0,0,1-.5-1,1.21,1.21,0,0,0-1.09-.85C15.74,72.09,15.41,72,14.89,71.86Z"/><path class="cls-1" d="M119.89,19.92c-.16.54-.27,1-.42,1.37a.86.86,0,0,0,.11.9c.23.34.44.7.71,1.12a2.07,2.07,0,0,1-.56.1,2,2,0,0,0-2.2,1.11l-.24.46-.2-.13a4.06,4.06,0,0,1-.25-.66,1.51,1.51,0,0,0-1.34-1.35,4.53,4.53,0,0,1-.67-.26,1.85,1.85,0,0,1,.81-.74,1.41,1.41,0,0,0,.71-1.28,11.2,11.2,0,0,1,.11-1.13,6.63,6.63,0,0,1,.85.55,1.28,1.28,0,0,0,1.49.24A9.6,9.6,0,0,1,119.89,19.92Z"/><path class="cls-1" d="M50,109.48c-.3.43-.51.79-.76,1.11a1.1,1.1,0,0,0-.2,1.1c.11.37.18.75.31,1.26a11.8,11.8,0,0,1-1.18-.32,1.09,1.09,0,0,0-1.17.18c-.28.23-.61.41-1,.7a11.08,11.08,0,0,1,0-1.24,1.14,1.14,0,0,0-.54-1.12c-.3-.21-.56-.46-.94-.78.49-.18.84-.34,1.21-.45a1.11,1.11,0,0,0,.85-.83c.12-.38.31-.75.51-1.24.26.36.47.6.63.87a1.18,1.18,0,0,0,1.2.68A7.51,7.51,0,0,1,50,109.48Z"/><path class="cls-1" d="M38.59,106.52c-.49-.27-.84-.43-1.17-.64a1,1,0,0,0-1-.07c-.38.17-.77.29-1.29.49.12-.54.2-1,.31-1.34a1,1,0,0,0-.22-1c-.25-.28-.46-.61-.77-1,.57-.09,1-.19,1.42-.22a.93.93,0,0,0,.77-.48c.24-.37.5-.72.82-1.18a5.15,5.15,0,0,1,.35.74A1.51,1.51,0,0,0,39.21,103a4.61,4.61,0,0,1,.8.25c-.36.33-.62.61-.93.85a1.15,1.15,0,0,0-.5,1.14A10.07,10.07,0,0,1,38.59,106.52Z"/><path class="cls-1" d="M94.24,112.08c.31.42.57.71.77,1a1.26,1.26,0,0,0,1.1.63c.36,0,.71.06,1.17.1-.15.27-.24.44-.34.59-.84,1.2-.73.7-.38,2.14,0,.14.07.29.1.43a.84.84,0,0,1-.08.21,10.58,10.58,0,0,1-1.08-.37,1.1,1.1,0,0,0-1.18.13c-.27.2-.58.35-.92.56a2.85,2.85,0,0,1-.17-1.29,1.14,1.14,0,0,0-.5-1c-.31-.23-.6-.5-1-.85.5-.16.88-.31,1.27-.4a.94.94,0,0,0,.76-.71C93.88,112.92,94,112.57,94.24,112.08Z"/><path class="cls-1" d="M84.94,115.94c.57-.1,1-.19,1.38-.23a.78.78,0,0,0,.69-.46c.21-.38.44-.75.73-1.23.24.46.45.79.6,1.15a1.15,1.15,0,0,0,.93.74,11.08,11.08,0,0,1,1.25.34c-.33.34-.56.62-.83.85a1.15,1.15,0,0,0-.41,1.12c.07.38.08.77.13,1.28-.46-.23-.84-.39-1.19-.6a1,1,0,0,0-1-.06c-.35.18-.72.3-1.2.5a10.77,10.77,0,0,1,.15-1.32A1,1,0,0,0,85.8,117C85.53,116.68,85.29,116.36,84.94,115.94Z"/><path class="cls-1" d="M133.45,53.34c-.46-.26-.79-.42-1.09-.63a1.13,1.13,0,0,0-1.17-.14c-.36.15-.75.23-1.26.38a12.38,12.38,0,0,1,.29-1.22,1,1,0,0,0-.2-1.08c-.24-.27-.44-.58-.71-.93a2.14,2.14,0,0,1,1.26-.21,1.12,1.12,0,0,0,1-.55c.21-.33.47-.61.8-1,.21.49.4.85.54,1.23a.92.92,0,0,0,.71.66c.4.09.79.24,1.34.42a7.44,7.44,0,0,1-.78.66,1.44,1.44,0,0,0-.73,1.48A9.2,9.2,0,0,1,133.45,53.34Z"/><path class="cls-1" d="M45,106.59a9.47,9.47,0,0,1-.78.94,1.27,1.27,0,0,0-.37,1.34c.07.33.09.67.16,1.13a11.85,11.85,0,0,1-1.19-.44,1,1,0,0,0-1.11.09c-.31.19-.64.35-1.08.6a6.39,6.39,0,0,1,0-1.17,1.19,1.19,0,0,0-.49-1.28c-.25-.2-.45-.45-.77-.77.52-.15.92-.29,1.34-.39a1,1,0,0,0,.75-.63c.18-.4.39-.78.64-1.29.26.43.48.72.64,1a1,1,0,0,0,1,.66A12,12,0,0,1,45,106.59Z"/><path class="cls-1" d="M56.1,115.74c.4-.27.67-.48,1-.64a1.23,1.23,0,0,0,.76-1.15,9.75,9.75,0,0,1,.22-1.22c.4.36.72.61,1,.9a.91.91,0,0,0,.94.25c.38-.09.76-.15,1.28-.25-.1.3-.16.52-.24.74-.51,1.33-.53.87.06,2.11a4.89,4.89,0,0,1,.2.48s0,.09,0,.17c-.39,0-.78,0-1.17,0a1,1,0,0,0-1,.39c-.25.29-.53.57-.9,1-.12-.49-.25-.85-.3-1.22a1.13,1.13,0,0,0-.77-1A12,12,0,0,1,56.1,115.74Z"/><path class="cls-1" d="M124.2,86.68c.43.38.77.65,1.08.95a1,1,0,0,0,.93.29c.38-.07.78-.06,1.31-.1-.18.46-.29.82-.46,1.16a1,1,0,0,0,0,1c.2.36.36.74.59,1.22-.54-.06-1-.09-1.36-.16a1,1,0,0,0-1,.34c-.25.27-.53.51-.82.79a1.82,1.82,0,0,1-.37-1.06,1.31,1.31,0,0,0-.84-1.11c-.32-.13-.6-.33-1-.57a7.06,7.06,0,0,1,.88-.52,1.22,1.22,0,0,0,.88-1.22A6.6,6.6,0,0,1,124.2,86.68Z"/><path class="cls-1" d="M133.46,67.62c-.39-.38-.68-.64-.94-.93a1.07,1.07,0,0,0-1-.4,10.15,10.15,0,0,1-1.24,0,1.2,1.2,0,0,1,.16-.45,1.84,1.84,0,0,0,.16-2.41,3.13,3.13,0,0,1-.15-.48,11.85,11.85,0,0,1,1.27.22,1.11,1.11,0,0,0,1.15-.26c.27-.24.58-.45,1-.76a10.92,10.92,0,0,1,.19,1.15,1.12,1.12,0,0,0,.66,1,10.84,10.84,0,0,1,1.06.67c-.47.22-.82.42-1.2.56a1,1,0,0,0-.72.83C133.75,66.78,133.61,67.12,133.46,67.62Z"/><path class="cls-1" d="M134,60.81c-.45-.32-.79-.55-1.11-.81a1,1,0,0,0-1-.22,12.78,12.78,0,0,1-1.36.26,11.47,11.47,0,0,1,.38-1.1,1.09,1.09,0,0,0-.09-1.24,9.09,9.09,0,0,1-.62-1.06c.53,0,.91,0,1.29.07a1.13,1.13,0,0,0,1.11-.43c.24-.3.52-.57.89-1,.17.53.31.91.41,1.3a1,1,0,0,0,.64.74c.39.13.77.32,1.29.55-.41.27-.7.51-1,.69a1.07,1.07,0,0,0-.67,1A8.78,8.78,0,0,1,134,60.81Z"/><path class="cls-1" d="M101.11,109.17c.39.39.68.65.94.94a1.15,1.15,0,0,0,1,.43c.38,0,.78,0,1.29,0a4,4,0,0,1-.3.7,1.53,1.53,0,0,0,0,1.9,4.49,4.49,0,0,1,.31.78,11.67,11.67,0,0,1-1.32-.22.93.93,0,0,0-1,.27c-.28.26-.6.5-1,.82-.11-.55-.22-1-.28-1.4a.93.93,0,0,0-.51-.75c-.38-.22-.74-.47-1.22-.77a12,12,0,0,1,1.13-.57,1,1,0,0,0,.69-.86C100.9,110.07,101,109.72,101.11,109.17Z"/><path class="cls-1" d="M130.11,80.44c-.26-.49-.46-.85-.63-1.24a1,1,0,0,0-.75-.62c-.42-.1-.84-.25-1.39-.41a7.38,7.38,0,0,1,.79-.7,1.29,1.29,0,0,0,.57-1.4c0-.28,0-.58-.07-1,.47.24.84.4,1.18.61a1.1,1.1,0,0,0,1.12.1,12.32,12.32,0,0,1,1.22-.41c-.07.44-.09.78-.17,1.1a1.17,1.17,0,0,0,.33,1.27,11.25,11.25,0,0,1,.76.91,8.07,8.07,0,0,1-1.1.15,1.27,1.27,0,0,0-1.25.73A10.24,10.24,0,0,1,130.11,80.44Z"/><path class="cls-1" d="M130.14,68.84c.51.19.86.3,1.19.46a1.14,1.14,0,0,0,1.18-.06c.33-.2.69-.34,1.17-.57,0,.51,0,.87-.07,1.22a1,1,0,0,0,.41,1c.3.24.57.52.87.8a.94.94,0,0,1-.82.36,1.49,1.49,0,0,0-1.38,1.12,6.15,6.15,0,0,1-.39.75,9.76,9.76,0,0,1-.72-1,1.22,1.22,0,0,0-1.08-.65c-.36,0-.72-.1-1.22-.17a11.83,11.83,0,0,1,.8-1,1,1,0,0,0,.28-1.07A12.14,12.14,0,0,1,130.14,68.84Z"/><path class="cls-1" d="M114.79,106.23a5.74,5.74,0,0,0-1.77-.53,4.4,4.4,0,0,0-1.45.67s0,0-.18,0c0-.39,0-.79,0-1.2a1,1,0,0,0-.39-.9c-.32-.26-.62-.56-1-.95.49-.15.84-.27,1.21-.35a1,1,0,0,0,.83-.73c.11-.35.29-.68.45-1a1.24,1.24,0,0,1,.63.71,1.56,1.56,0,0,0,1.47.91c.27,0,.53.06.82.1a.8.8,0,0,1-.35.71,1.55,1.55,0,0,0-.39,1.81A5.25,5.25,0,0,1,114.79,106.23Z"/><path class="cls-1" d="M74.72,120.7l-.74-.26c-1.18-.42-.8-.47-1.88.15l-.7.37c0-.5,0-.91,0-1.31a1.15,1.15,0,0,0-.44-1c-.3-.24-.56-.52-.93-.87a11.3,11.3,0,0,1,1.14-.37,1.11,1.11,0,0,0,.92-.84c.1-.32.26-.62.46-1.08a8,8,0,0,1,.63.89,1.3,1.3,0,0,0,1.22.78c.31,0,.62.07,1.07.12a11.29,11.29,0,0,1-.72,1,1.17,1.17,0,0,0-.27,1.22C74.59,119.83,74.63,120.19,74.72,120.7Z"/><path class="cls-1" d="M82.27,120.41c-.48-.18-.85-.29-1.2-.45a.94.94,0,0,0-1,.1c-.29.2-.62.37-1.07.63,0-.51,0-.89,0-1.26a1.22,1.22,0,0,0-.5-1.16c-.28-.22-.52-.49-.88-.83.52-.17.91-.3,1.31-.4a.92.92,0,0,0,.68-.6c.14-.39.32-.76.55-1.29.28.4.51.68.68,1a1.15,1.15,0,0,0,1,.68,10.61,10.61,0,0,1,1.07.12,1.49,1.49,0,0,1-.54.93,1.38,1.38,0,0,0-.31,1.43C82.15,119.62,82.19,120,82.27,120.41Z"/><path class="cls-1" d="M71.91,25.66a1.38,1.38,0,0,0-.25-.14c-1-.26-1.13-.47-1-1.45.07-.42-.16-.64-.39-.94-.31.24-.62.38-.62.85,0,.79-.35,1.08-1.15,1.11h-.39c-.06.57.2,1.2-.42,1.57-.35.21-.53.21-1.26-.06-.51-1.21-.26-1.58,1.28-1.83,0-.18,0-.37,0-.55,0-.49.23-1,.65-1,.66-.05.92-.49,1.23-.92a2,2,0,0,1,.2-.24l1.31.07c.13.33.21.64.35.93a1.13,1.13,0,0,0,.41.48c.79.48.89.75.55,1.63a1.65,1.65,0,0,0-.05.27,6.13,6.13,0,0,1,.6.22,1.05,1.05,0,0,1,.18,1.83A1.26,1.26,0,0,1,72,27.35a1,1,0,0,1-.38-1A5.53,5.53,0,0,1,71.91,25.66Zm.68,1.59a.71.71,0,0,0,.66-.74.65.65,0,0,0-.69-.6.68.68,0,0,0-.67.64A.74.74,0,0,0,72.59,27.25ZM67.2,25.18a.68.68,0,0,0-.68.64.7.7,0,0,0,.71.7.67.67,0,0,0,0-1.34Z"/><path class="cls-1" d="M64.73,31.89l-1.32-.7-.08,1.5a2.19,2.19,0,0,1-.29-.16c-.56-.59-1.1-1.19-1.67-1.77a.83.83,0,0,1-.24-.86c.17-.69.29-1.39.43-2.08a.72.72,0,0,1,1,.36l1,1.41c.69-.36,1.36-.69,2-1.06a1.37,1.37,0,0,1,1.35-.05C66.24,29.65,65.48,30.72,64.73,31.89ZM63.34,30.4l1.25.64c.28-.4.54-.73.76-1.08A4.86,4.86,0,0,0,66,28.8ZM62,28.73l-.19,0c-.09.4-.19.8-.27,1.21a.44.44,0,0,0,.06.34c.37.43.77.85,1.16,1.27l.13-.08Z"/><path class="cls-1" d="M45.61,42.05a.85.85,0,0,1,1,.45c.27.43.58.85.92,1.35.69-.36,1.37-.68,2-1.06a1.33,1.33,0,0,1,1.4,0L48.8,46.14l-1.34-.69L47.35,47c-.24-.22-.4-.35-.55-.5a4.4,4.4,0,0,0-.56-.58,2.31,2.31,0,0,1-.84-3A7.55,7.55,0,0,0,45.61,42.05Zm3,3.29a9.07,9.07,0,0,0,1.26-2.18l-2.47,1.48Zm-1.84.48.14-.11c-.29-.91-.59-1.83-.89-2.74h-.16c-.1.42-.21.84-.29,1.27a.55.55,0,0,0,.12.39C46.07,45,46.44,45.42,46.8,45.82Z"/><path class="cls-1" d="M47.66,26a.76.76,0,0,1,1,.31c.3.48.64.93,1,1.48l2-1a1.33,1.33,0,0,1,1.33-.15,15.54,15.54,0,0,1-2.1,3.43l-1.31-.67v1.38c-.12,0-.18.06-.2,0-.65-.66-1.31-1.33-1.94-2a.68.68,0,0,1-.13-.48C47.37,27.55,47.52,26.78,47.66,26Zm1.85,2.57,1.22.69,1.36-2L52,27.13ZM48.1,26.79c-.65,1.52-.43,2.2.93,2.89Z"/><path class="cls-1" d="M59.47,43.91a.71.71,0,0,1,1,.29c.31.47.63.93,1,1.44l1.92-1c.63-.33.63-.33,1.49-.12-.68,1.16-1.4,2.25-2.15,3.39l-1.33-.65-.11,1.58c-.79-.84-1.46-1.55-2.12-2.27a.44.44,0,0,1-.1-.33C59.15,45.46,59.32,44.67,59.47,43.91Zm1.8,2.53,1.21.68c.51-.71,1-1.37,1.4-2.07L63.77,45ZM59.9,44.65c-.65,1.5-.37,2.3.92,2.88Z"/><path class="cls-1" d="M2.21,130.34a1.76,1.76,0,0,1-1.75-1.8,1.74,1.74,0,0,1,1.76-1.78A1.76,1.76,0,0,1,4,128.51,1.79,1.79,0,0,1,2.21,130.34Z"/><path class="cls-1" d="M56.88,31.27l3.36-.42a5.86,5.86,0,0,1-1.09,1.52c-.07.08-.26.05-.49.09l.36-.77a8.46,8.46,0,0,0-2.1.34c-.69.17-.75.17-1-.48-.33-1.05-.64-2.1-1-3.21.27-.09.47-.17.68-.23.77-.23,1.56-.44,2.33-.69a1.88,1.88,0,0,1,1.37.1Zm1.41-3.12L58.18,28l-2.44.87A13.81,13.81,0,0,0,56.4,31Z"/><path class="cls-1" d="M72.87,33.42c-.8.15-1.47.26-2.13.42s-.72.15-.91-.46c-.33-1.05-.64-2.11-1-3.22.22-.09.39-.17.57-.23.76-.22,1.52-.42,2.27-.66a2.36,2.36,0,0,1,1.55,0l-2.52,3.77,3.34-.41a2.26,2.26,0,0,1-.63,1c-.21.26-.34.71-.89.55ZM72.13,30l-.1-.12a24.11,24.11,0,0,0-2.45.89l.65,2.11Z"/><path class="cls-1" d="M40.93,45.51l3.26-.39.07.16c-.48.46-.65,1.25-1.6,1.43l.42-.8c-.29,0-.52,0-.74.08l-1.58.35c-.29.07-.56.07-.67-.27-.36-1.14-.71-2.29-1.08-3.52,1.48-.31,2.77-1.08,4.42-.88C42.65,43,41.76,44.14,40.93,45.51Zm-.61-.44.18.06a25,25,0,0,0,1.74-2.79,7.24,7.24,0,0,0-1.22.35l-1.26.48Z"/><path class="cls-1" d="M52.89,44.36c1.16-.33,2.21-.66,3.29-.93a4.31,4.31,0,0,1,1.11,0c-.74,1.36-1.66,2.45-2.43,3.8,1.15,0,2.16-.33,3.22-.32-.34.89-.89,1.46-1.46,1.47l.32-.74-2.88.52Zm.75.59.6,2a11,11,0,0,0,1.88-2.89Z"/><path class="cls-1" d="M66.49,33.56c-.36-.43-.36-.43-.16-1.42a5.86,5.86,0,0,0,.17-1.41l-1,1.69c-.56.94-.61,1-1.76.58V31.78l.54.31.5.29c.16-.24.32-.45.46-.67.59-.94,1.17-1.89,1.75-2.83.13-.21.24-.43.56-.4s.44.25.53.52c.39,1.27.8,2.54,1.2,3.81a2.14,2.14,0,0,1,0,.38l-2.11-2.7ZM67.65,29h-.24c0,.29-.24.63-.14.84a6.74,6.74,0,0,0,.86,1.22L68.3,31Z"/><path class="cls-1" d="M55.26,31.2l-2-2.5c-.13.63-.24,1.12-.34,1.6-.24,1.14-.24,1.14-.69,1.26l.47-2.46L52.59,29l-.43.69-.69,1.14c-.37.63-.38.63-1.12.5l-.49-.12V30l1,.64a4.52,4.52,0,0,0,.34-.46L53,27.3c.08-.12.15-.26.24-.37a.49.49,0,0,1,.91.11c.45,1.34.87,2.71,1.3,4.06Zm-.92-1.84.13-.09-.71-2.1c-.54.71-.54.71-.13,1.27C53.86,28.75,54.1,29.06,54.34,29.36Z"/><path class="cls-1" d="M50.5,45.08a19.91,19.91,0,0,0-1,1.76.92.92,0,0,1-1.19.56l-.5-.12L47.69,46l1.14.68c.21-.33.43-.65.63-1,.55-.88,1.09-1.76,1.63-2.64.13-.2.26-.34.54-.29a.52.52,0,0,1,.45.41c.44,1.39.87,2.77,1.19,4.22l-2-2.57c-.45,1-.26,2-.8,2.81,0,0-.09,0-.23,0,0-.85.35-1.65.42-2.48Zm1.77.36.13-.06-.72-2.17c-.55.71-.56.71-.11,1.31Z"/><path class="cls-1" d="M43.1,49.79a6,6,0,0,0-4,.94c-.08-.15-.14-.28-.22-.41-.19-.34-.48-.24-.77-.18s-.67-.07-.63-.4a1.93,1.93,0,0,0-.4-1.36c0-.07,0-.18,0-.29.48.3.48.3,1.11,1.43l.49-.51a2.71,2.71,0,0,1,2.89-.83A2.23,2.23,0,0,1,43.1,49.79Zm-1.33-.61c-.16-.12-.27-.27-.36-.26a.37.37,0,0,0-.26.27.36.36,0,0,0,.26.26C41.51,49.46,41.61,49.31,41.77,49.18Zm-2,.12c-.19-.1-.3-.21-.41-.2s-.22.19-.2.24a.43.43,0,0,0,.27.26C39.56,49.6,39.66,49.44,39.81,49.3Zm.91-.36c-.19-.12-.31-.27-.4-.25s-.19.18-.23.3.16.2.24.2S40.54,49.06,40.72,48.94Z"/><path class="cls-1" d="M66.22,42.2l-.1.9-4.25-.55.44-3.45,1.25.16-.27,2.5Z"/><path class="cls-1" d="M64.16,35.21l-.39,2.55-1.21-.16A32.65,32.65,0,0,1,63,34.24c1.43,0,2.79.32,4.2.46a2.06,2.06,0,0,1,0,.42,1.93,1.93,0,0,1-.12.41Z"/><path class="cls-1" d="M72.7,35.38l-.46,3.46-1.16-.14.28-2.55-2.92-.44.1-.87Z"/><path class="cls-1" d="M75.42,29.58a.84.84,0,0,1,1,.41c.29.46.61.89,1,1.39l1.84-.94a1.49,1.49,0,0,1-.82,1c-.34.19-.67.4-1.18.72l.84.33-.82.67a.9.9,0,0,1-.53.86c-.52-.55-1.07-1.11-1.58-1.69A.67.67,0,0,1,75,31.9C75.1,31.13,75.27,30.36,75.42,29.58Zm.47,1h-.17c-.1.38-.22.75-.29,1.13a.71.71,0,0,0,.09.48c.33.41.71.78,1.07,1.17l.15-.1Z"/><path class="cls-1" d="M21.16,128.6h3.22a14.27,14.27,0,0,1-1.54,3.52A12.78,12.78,0,0,1,21.16,128.6Z"/><path class="cls-1" d="M55.44,52.62c-.59.34-1.12.66-1.66.94a1.51,1.51,0,0,1-.56.11c-.29,0-.58,0-.87,0a.77.77,0,0,1-.89-.49.75.75,0,0,1,.31-.9.7.7,0,0,1,1,.17,2,2,0,0,0,1.64.59,1.83,1.83,0,0,0-.92-1.43.76.76,0,0,1,.31-1.48c.32,0,.64.2.64.51A2.88,2.88,0,0,0,55.44,52.62Z"/><path class="cls-1" d="M108.25,132.74a1.38,1.38,0,1,1-1.32,1.39A1.36,1.36,0,0,1,108.25,132.74Z"/><path class="cls-1" d="M42.15,28.36l.35.77c.3-.41.52-.78.8-1.09a5,5,0,0,1,1-.84,2.83,2.83,0,0,1-.59,1.11c-.21.36-.44.69-.74,1.15l3.36-.41a5.41,5.41,0,0,1-1.19,1.57c-.06.06-.22,0-.41,0l.41-.82c-.82.18-1.54.32-2.25.49-.52.12-.64.08-.82-.43-.12-.35-.22-.71-.31-1.06C41.75,28.61,41.77,28.61,42.15,28.36Z"/><path class="cls-1" d="M79.15,28.22a3.59,3.59,0,0,1-3.92-.42c.19-.42.61-.32,1-.42l-.91-.67a6.31,6.31,0,0,1,3.4.68l-.43.23Z"/><path class="cls-1" d="M55.65,46.88c.14-.28.19-.43.28-.57.5-.79,1-1.57,1.52-2.36.17-.26.33-.5.8-.24l-1.71,2.58a7.09,7.09,0,0,0,1.26-.2.74.74,0,0,0,.37-.47c.15-.49.24-1,.37-1.51.05-.2.1-.46.52-.32-.05.24-.09.49-.15.74-.12.5-.23,1-.38,1.5-.05.17-.18.41-.31.44C57.41,46.63,56.59,46.74,55.65,46.88Z"/><path class="cls-1" d="M43.86,28.88l.9-1.41c.32-.49.65-1,1-1.48.17-.27.36-.4.7-.11l-1.71,2.59A10.94,10.94,0,0,0,46,28.25a.72.72,0,0,0,.34-.42c.13-.42.22-.86.33-1.29.07-.25.16-.49.24-.73h.16c.05.11.16.24.14.33-.15.7-.33,1.39-.49,2.08a.5.5,0,0,1-.45.42L44,29Z"/><path class="cls-1" d="M57.64,30.86l.62-1c.42-.66.86-1.31,1.28-2,.17-.27.34-.5.77-.22l-1.68,2.58a11.82,11.82,0,0,0,1.27-.2.69.69,0,0,0,.34-.42c.14-.45.22-.91.34-1.36.05-.21.13-.41.25-.8.16.26.31.39.29.49-.16.72-.34,1.43-.54,2.14a.52.52,0,0,1-.34.32C59.43,30.58,58.62,30.7,57.64,30.86Z"/><path class="cls-1" d="M75,29.54c-.19.79-.36,1.56-.58,2.31a.62.62,0,0,1-.37.39c-.79.15-1.59.26-2.48.4a2.51,2.51,0,0,1,.2-.47l1.6-2.48c.17-.27.36-.48.79-.25L72.5,32l1.37-.17c.53-.74.3-1.71.9-2.38A1.15,1.15,0,0,1,75,29.54Z"/><path class="cls-1" d="M42.67,44.5l1.44-.22c.26-.8.51-1.56.77-2.32a1.2,1.2,0,0,1,.29,0,16.72,16.72,0,0,1-.6,2.51.39.39,0,0,1-.27.21c-.81.14-1.63.26-2.61.41.29-.46.47-.77.67-1.07.41-.65.83-1.28,1.24-1.92a.5.5,0,0,1,.76-.21Z"/><path class="cls-1" d="M63.8,39.21l.12-1.28,2.75.35-.08,1.25A20,20,0,0,1,63.8,39.21Z"/><path class="cls-1" d="M67.94,39.74l.21-1.25,2.72.36-.12,1.22A20,20,0,0,1,67.94,39.74Z"/><path class="cls-1" d="M68.45,20c-.93.49-1.68-.31-2.59-.27A2.1,2.1,0,0,1,68,18.46a.51.51,0,0,1,.46.56ZM68,19.43c-.17-.11-.29-.26-.38-.24s-.18.18-.26.28c.1.08.19.22.3.23S67.81,19.56,68,19.43Z"/><path class="cls-1" d="M55.83,52.33a2.77,2.77,0,0,1,0-.4,2.05,2.05,0,0,0-.1-1.29.69.69,0,0,1,.34-.94.73.73,0,0,1,.88.12.74.74,0,0,1,.09,1,1.53,1.53,0,0,0-.31.57A1.07,1.07,0,0,1,55.83,52.33Z"/><path class="cls-1" d="M39.33,45.53c-.62-.83-1.25-1.66-1.87-2.5-.05-.07,0-.22,0-.5l.93,1.14c0-.92-.66-1.63-.5-2.46l.19-.05,1.36,4.28Z"/><path class="cls-1" d="M51.54,45.73l1.71,2.21c-.81.2-.93-.6-1.45-.83-.2.22,0,1-.78.53l.34-1.88Z"/><path class="cls-1" d="M53.92,31c-.22.33-.1.95-.78.63a9,9,0,0,1,.38-2.09l1.83,2.36a.74.74,0,0,1-.86-.27C54.32,31.44,54.14,31.25,53.92,31Z"/><path class="cls-1" d="M67.5,31.49l1.67,2.17c-.45.06-.45.06-1.41-.81l-.27.69L67,33.48l.34-1.93Z"/><path class="cls-1" d="M39.27,46.17c-.7.14-.83-.59-1.3-.84-.27.13-.11.92-.82.48L37.48,44A6.74,6.74,0,0,1,39.27,46.17Z"/><path class="cls-1" d="M65.73,45.46l-.2-.37a.93.93,0,0,0-.17.08.73.73,0,0,0-.15.25c-.14.87-.86,1.17-1.56,1.53.45-.74.91-1.48,1.37-2.22a.47.47,0,0,1,.66-.12C66,44.76,66,45.05,65.73,45.46Z"/><path class="cls-1" d="M47.29,29.3,49,31.1c-.78.06-.87-.67-1.39-.82l-.17.76c-.51-.56-.27-1.13-.33-1.65Z"/><path class="cls-1" d="M45.14,45.27l1.75,1.84c-.73.08-.83-.62-1.33-.75L45.4,47C45,46.66,45,46.31,45.14,45.27Z"/><path class="cls-1" d="M61.18,31.09l1.65,1.75c-.71.13-.79-.6-1.31-.71l-.13.65c-.13-.09-.29-.13-.3-.19-.05-.47-.06-.93-.09-1.4Z"/><path class="cls-1" d="M59,47.09l1.67,1.74c-.66.13-.78-.52-1.27-.69l-.09.63C58.91,48.56,58.86,48.29,59,47.09Z"/><path class="cls-1" d="M71.07,29.11l-2.29.59.39-1,1.88.21Z"/><path class="cls-1" d="M75.41,33.84l-.16.7c-.38-.26-.44-.56-.34-1.58a3.21,3.21,0,0,1,1.48,1.78Z"/><path class="cls-1" d="M55.33,26.94l1.93.21a7.27,7.27,0,0,1-2.34.69Z"/><path class="cls-1" d="M39.33,41.18l1.83.21,0,.19L39,42.15Z"/><path class="cls-1" d="M53.26,43l1.79.21,0,.18L52.83,44Z"/><path class="cls-1" d="M50.64,26.68a3.19,3.19,0,0,1-.35.24c-.17.09-.35.16-.59.27l-.81-1.09c.59.07,1,.1,1.47.18C50.47,26.31,50.54,26.53,50.64,26.68Z"/><path class="cls-1" d="M67.56,42.36l1.39.2c-.59.85-.72.91-1.48.62Z"/><path class="cls-1" d="M63.55,29,62.8,27.9c.55.07,1,.09,1.4.17a.31.31,0,0,1,.08.57A6,6,0,0,1,63.55,29Z"/><path class="cls-1" d="M48.57,42.78l-1,.48-.81-1.12c.63.1,1.1.16,1.55.25C48.43,42.41,48.47,42.59,48.57,42.78Z"/><path class="cls-1" d="M78.32,30.33l-.92.48-.67-1C77.63,29.68,78.05,29.81,78.32,30.33Z"/><path class="cls-1" d="M61.46,45.06,60.72,44c.57.07,1,.1,1.41.17a.36.36,0,0,1,.2.26.38.38,0,0,1-.15.29A6.9,6.9,0,0,1,61.46,45.06Z"/><path class="cls-1" d="M59.58,32.55l1-1.28a2.3,2.3,0,0,1,.17,1.35Z"/><path class="cls-1" d="M58.65,48.67l-1.14-.12.92-1.18.15,0Z"/><path class="cls-1" d="M46.78,29.43v1.34h-1A3.35,3.35,0,0,1,46.78,29.43Z"/><path class="cls-1" d="M74.61,34.43l-1.17-.1.9-1.18.16,0Z"/><path class="cls-1" d="M43.61,46.77l.93-1.19.17.06,0,1.2Z"/><path class="cls-1" d="M49.81,55.59c-.56-.19-.56-.19-1.21.59a.73.73,0,0,1,.25-.92.67.67,0,0,1,.82-.12C49.83,55.23,50,55.36,49.81,55.59Z"/><path class="cls-1" d="M38.77,37.94c-.2.16-.32.33-.44.33A.45.45,0,0,1,38,38a.28.28,0,0,1,.32-.37C38.43,37.66,38.56,37.8,38.77,37.94Z"/><path class="cls-1" d="M36.94,44.69l-.22,1C36.22,45.36,36.24,45.21,36.94,44.69Z"/><path class="cls-1" d="M62.23,48.19l-.58.38,0-.78Z"/><path class="cls-1" d="M71.37,40.37l-.51.48a1.43,1.43,0,0,1,0-.34C70.87,40.22,71,40.15,71.37,40.37Z"/><path class="cls-1" d="M38.93,33.12l.26-.29.12.09-.23.32Z"/><path class="cls-1" d="M40.85,30.07c.31-.38.42-.22.6.07Z"/><path class="cls-1" d="M38.78,41a.88.88,0,0,1,.06.28s-.09.07-.15.11a1.08,1.08,0,0,1-.12-.24S38.67,41.11,38.78,41Z"/><path class="cls-1" d="M78.7,30H79a1.59,1.59,0,0,1,0,.17,2.81,2.81,0,0,1-.29,0Z"/><path class="cls-1" d="M49.25,42.56c-.09,0-.15.1-.2.09s-.08-.08-.12-.12.1-.1.15-.1S49.17,42.5,49.25,42.56Z"/><path class="cls-1" d="M54.89,27l-.2.19a1.7,1.7,0,0,1-.15-.22s.1-.12.14-.11S54.8,26.93,54.89,27Z"/><path class="cls-1" d="M52.59,43.24c-.05-.07-.13-.14-.12-.17s.1-.1.15-.16.1.11.1.17S52.65,43.17,52.59,43.24Z"/><path class="cls-1" d="M51.38,26.53l-.31.07a1.17,1.17,0,0,0,0-.16l.32-.05Z"/><path class="cls-1" d="M65.24,28.29l-.33.11,0-.12.34-.11Z"/><path class="cls-1" d="M68.45,29c0-.11,0-.23,0-.34h.13l0,.34Z"/><path class="cls-1" d="M69.43,134.31l1.13,2.4a11.53,11.53,0,0,1-2.43.09c.35-.92.75-1.69,1.12-2.47Z"/><path class="cls-1" d="M60.3,37.6a3.37,3.37,0,0,1-1.17,2.68,2.49,2.49,0,0,1-3.74-.56,3.3,3.3,0,0,1,.54-4.24,2.54,2.54,0,0,1,4.12,1A6.25,6.25,0,0,1,60.3,37.6Zm-.75.31a2.51,2.51,0,0,0-.46-1.6A1.77,1.77,0,0,0,56.43,36,2.63,2.63,0,0,0,56,39.27a1.76,1.76,0,0,0,2.69.44A2.36,2.36,0,0,0,59.55,37.91Z"/><path class="cls-1" d="M59.15,37.8a1.69,1.69,0,0,1-1.62,1.76A1.61,1.61,0,0,1,56,37.89a1.68,1.68,0,0,1,1.63-1.75A1.58,1.58,0,0,1,59.15,37.8Zm-.74,0a.86.86,0,0,0-.79-1,.93.93,0,0,0-.88,1,.88.88,0,0,0,.78,1A1,1,0,0,0,58.41,37.84Z"/></svg>