<svg id="Layer_1" data-name="Layer 1" xmlns="http://www.w3.org/2000/svg" viewBox="0 0 150 150"><defs><style>.cls-1{fill:#fff;}.cls-2{fill:#a7a9ac;}</style></defs><path class="cls-1" d="M30.18,87.27c-1.9,0-3.71,0-5.51,0-.44,0-.57-.17-.67-.57-1.36-5.41-2.75-10.82-4.13-16.23a1.76,1.76,0,0,0-.18-.37c-.85,3.23-1.68,6.41-2.52,9.58-.61,2.33-1.25,4.65-1.85,7-.11.43-.24.62-.72.62-1.73,0-3.45,0-5.17,0a.86.86,0,0,1-.67-.44Q5.64,75.13,2.56,63.43a.74.74,0,0,1,0-.2c1.82,0,3.64,0,5.47,0,.18,0,.46.35.51.58C9.81,69.56,11,75.28,12.24,81.08a3.15,3.15,0,0,0,.19-.45C14,75,15.47,69.44,17,63.84c.13-.48.32-.63.81-.62,1.72,0,3.44,0,5.24,0l4.35,18,3.7-17.93h5.52C34.44,71.26,32.32,79.24,30.18,87.27Z"/><path class="cls-1" d="M84.43,63.23l8.58,24H88.49c-1.43,0-1.43,0-1.86-1.34-.38-1.16-.76-2.31-1.12-3.48-.11-.38-.27-.56-.7-.56-2.5,0-5,0-7.48,0-.49,0-.63.24-.75.63-.43,1.39-.86,2.78-1.34,4.15-.08.24-.36.56-.56.57-1.8,0-3.61,0-5.52,0,.58-1.6,1.13-3.13,1.69-4.66Q74.26,73.29,77.66,64a.93.93,0,0,1,1.07-.74C80.61,63.26,82.5,63.23,84.43,63.23ZM78,77.69h6C83,74.32,82,71,81,67.93,80.07,71,79,74.31,78,77.69Z"/><path class="cls-1" d="M48,63.23c1.92,0,3.71,0,5.51,0,.17,0,.43.26.49.45Q56.55,72.33,59.11,81c.09.32.14.66.24,1.08l2.85-9.64c.85-2.84,1.71-5.67,2.54-8.52.14-.47.31-.69.85-.67,1.66,0,3.32,0,5.07,0l-2.58,7.49C66.26,76,64.43,81.21,62.64,86.47a1,1,0,0,1-1.18.81c-1.74,0-3.49,0-5.29,0C53.43,79.27,50.7,71.3,48,63.23Z"/><path class="cls-2" d="M117,65.22c0,1,.06,1.9.06,2.85,0,3.48,0,7,0,10.43a4.14,4.14,0,0,0,1.11,3.13,2.47,2.47,0,0,0,3.93-.73,10.76,10.76,0,0,0,.64-3.47c.07-4.61,0-9.23,0-13.84,0-.64.13-.9.82-.87,1.2.05,2.39,0,3.58,0,.5,0,.71.11.71.66,0,4.9,0,9.81,0,14.72a11.86,11.86,0,0,1-1.64,6.45c-1.09,1.68-2.5,2.84-4.67,2.71a24.67,24.67,0,0,0-3.1,0c-2.56.19-4.2-1.16-5.24-3.25A11.06,11.06,0,0,1,112.07,80c-.21-3.14-.14-6.3-.19-9.45a6.68,6.68,0,0,0,.72-.57C114.09,68.37,115.56,66.79,117,65.22Z"/><path class="cls-1" d="M136.54,63.62c.76,1.71,1.53,3.41,2.38,5.3.32-.76.57-1.35.81-2,.51-1.25,1-2.51,1.53-3.75a.88.88,0,0,1,.57-.49c1.59,0,3.18,0,4.9,0-.14.31-.23.54-.33.77-1.51,3.39-3,6.78-4.54,10.16a1.5,1.5,0,0,0,0,1.41q2.64,5.7,5.24,11.41c.11.24.2.48.34.82-1.89,0-3.68,0-5.47,0-.17,0-.4-.29-.49-.5-.91-2-1.8-4-2.69-6-.11-.24-.23-.46-.41-.84L137,83.07c-.52,1.24-1,2.5-1.57,3.73a.87.87,0,0,1-.6.46c-1.64,0-3.28,0-5,0,.09-.25.15-.44.23-.62,1.69-3.74,3.35-7.49,5.09-11.21a2.24,2.24,0,0,0,0-2.29c-.46-.83-.76-1.74-1.14-2.61.1-.24.21-.47.3-.72Q135.42,66.73,136.54,63.62Z"/><path class="cls-1" d="M45,87.24H39.67v-24H45Z"/><path class="cls-1" d="M98,85.35V62.77h5.14c0,.19,0,.39,0,.59v16a8.52,8.52,0,0,1-.08.87q-2.2,2.33-4.42,4.64A3.91,3.91,0,0,1,98,85.35Z"/><path class="cls-2" d="M98,85.35a3.91,3.91,0,0,0,.67-.48q2.22-2.31,4.42-4.64c.08,1.62.08,1.62,1.71,1.62,1.85,0,3.71,0,5.57,0,.66,0,.88.22.86.88,0,1.3,0,2.6,0,3.9,0,.39,0,.65-.54.65-4.11,0-8.22,0-12.33,0a1.66,1.66,0,0,1-.35-.1Z"/><path class="cls-1" d="M117,65.22c-1.48,1.57-3,3.15-4.44,4.72a6.68,6.68,0,0,1-.72.57V62.76H117Z"/><path class="cls-2" d="M136.54,63.62q-1.12,3.1-2.23,6.21c-.09.25-.2.48-.3.72-.46-.91-.95-1.81-1.39-2.73-.77-1.64-1.51-3.29-2.33-5.08h2.84c.77,0,1.53,0,2.3,0S136.48,62.94,136.54,63.62Z"/></svg>