<svg id="Layer_1" data-name="Layer 1" xmlns="http://www.w3.org/2000/svg" viewBox="0 0 150 150"><defs><style>.cls-1{fill:#fff;}</style></defs><path class="cls-1" d="M121,85.71c-1.07.22-2,.37-2.91.64a1.21,1.21,0,0,0-.66.78,7,7,0,0,1-2.61,4.41,5.59,5.59,0,0,1-3.5,1.17c-1.36,0-2.72,0-4.09,0-2.57,0-4-1.82-3.36-4.34.14-.59.29-1.18.4-1.61a19.72,19.72,0,0,1-3.83-1c-1.35-.67-1.29-2.21-1.4-3.51-1.71-.32-1.82-.26-2.71,1A6.13,6.13,0,0,1,91,86.15c-3.5,0-7,0-10.51,0a3.24,3.24,0,0,1-1.53-.28,2,2,0,0,0-2,0,4.31,4.31,0,0,1-1.46.29,20.7,20.7,0,0,1-4.66-.05,12.29,12.29,0,0,0-4.33.24,12.86,12.86,0,0,1-8.19-1.21.88.88,0,0,0-.74.07c-2,1.31-4.17,1.09-6.37.75a2,2,0,0,0-.87,0,10,10,0,0,1-7.18-.26,1.49,1.49,0,0,0-.7,0c-1.06.15-2.11.39-3.18.48s-2.11,0-3.17,0a4,4,0,0,1-2.58-.8.87.87,0,0,0-.77,0,6,6,0,0,1-3.35.83c-1.72-.07-3.44-.15-5.16-.14s-3.73.08-5.59.14c-1.6,0-3.07-.2-4-1.82C13,85.88,11,86,9,85.94c-1.23,0-2.46,0-3.67-.1A3.08,3.08,0,0,1,2.44,82c.69-2.92,1.5-5.82,2.27-8.72,1-3.68,2-7.35,3-11a6.12,6.12,0,0,1,6-4.63c1.26,0,2.51,0,3.76,0,1.52,0,3,0,4,1.53a6.62,6.62,0,0,1,5.13-1.54c1.25,0,2.5,0,3.76,0,2.9,0,4.37,2.25,3.28,5-.19.46-.43.89-.6,1.25,1,.24,1.92.5,2.88.7a1.76,1.76,0,0,0,.79-.15,13.21,13.21,0,0,1,7.31-.53,8.34,8.34,0,0,1,2.13.91,1.38,1.38,0,0,0,1.23.13,21.67,21.67,0,0,1,9.51-1.24,7,7,0,0,1,4.72,2.51l.79-.46a15.72,15.72,0,0,1,9.62-2.1c.44.05.71,0,.75-.49,0,0,0-.05,0-.08,1.34-4.43,3-5.69,7.65-5.69.83,0,1.67,0,2.5,0,2.68.08,4,1.9,3.4,4.5-.18.72-.38,1.44-.57,2.13.93,0,1.83-.06,2.72,0a2.75,2.75,0,0,1,2.06,1.41l1.86,2.93c.21-.27.37-.46.52-.68l4.25-6.49a6.19,6.19,0,0,1,5.6-3c1.39,0,2.79,0,4.18,0a3.15,3.15,0,0,1,3.38,3c.18,1.46.35,2.93.54,4.53.26-.16.46-.27.64-.4A5.72,5.72,0,0,1,115.17,64a22.46,22.46,0,0,0,2.83.11c1-.08,1.9-.42,2.85-.54a11,11,0,0,1,6.8,1.15,1,1,0,0,0,.81.08c1.69-1,3.55-.77,5.38-.79a7.06,7.06,0,0,0,1.78-.14,12.36,12.36,0,0,1,6.36,0,7.19,7.19,0,0,1,5.63,8.21c-.63,6-3.54,10.59-9.2,13.13a17.63,17.63,0,0,1-3.59,1.05c-.6.12-.87.33-1,.89a6.67,6.67,0,0,1-2,3.94,5.8,5.8,0,0,1-4.07,1.63c-1.42,0-2.84,0-4.26,0a3.14,3.14,0,0,1-3.23-4C120.45,87.75,120.73,86.77,121,85.71ZM16.28,69.26,16,69.09c.06-.32.11-.64.19-1,.51-1.9,1-3.81,1.54-5.72.22-.85,0-1.07-.83-1.08-1.39,0-2.78,0-4.17,0a1.19,1.19,0,0,0-1.33,1c-1.66,6.27-3.35,12.52-5,18.78-.21.78,0,1,.82,1,1.37,0,2.73,0,4.09,0A1.31,1.31,0,0,0,12.79,81q.84-3.27,1.75-6.53a2.9,2.9,0,0,1,.53-.76,3.61,3.61,0,0,1,.49.71c.86,2.35,1.72,4.71,2.54,7.07a1.08,1.08,0,0,0,1.22.85c1.42,0,2.84,0,4.26,0s1.56-.38,1.15-1.57c-1-2.92-2-5.85-3-8.75a1.53,1.53,0,0,1,.42-1.9c2.5-2.46,4.94-5,7.38-7.49a3,3,0,0,0,.42-.93,3.29,3.29,0,0,0-.95-.34c-1.39,0-2.78,0-4.17,0a2,2,0,0,0-1.68.73c-2,2.23-4.07,4.42-6.11,6.62A6.85,6.85,0,0,1,16.28,69.26Zm87.17-7.4h-.08c-3.35.07-2.39-.48-4.21,2.28Q93.57,72.6,88,81.12a1.34,1.34,0,0,0-.23,1c0,.17.55.29.86.3a28.63,28.63,0,0,0,3.34,0,2,2,0,0,0,1.29-.7C94,80.84,94.41,79.87,95,79a1.77,1.77,0,0,1,1.14-.66c1.89-.06,3.78,0,5.68,0,.64,0,.88.26.91.89,0,.89.18,1.77.23,2.66,0,.61.33.81.91.8,1.11,0,2.23,0,3.34,0s1.41-.34,1.27-1.5-.3-2.6-.44-3.9c-.55-4.87-1.11-9.74-1.64-14.61-.07-.59-.31-.84-.9-.83S104.15,61.86,103.45,61.86Zm27.91,20.65c.49.07.85.14,1.21.17a10.1,10.1,0,0,0,11.08-9c.56-3.9-1.36-6.19-5.3-6.4a9.44,9.44,0,0,0-4.59,1c-.23.11-.69.24-.74.16-.6-.88-1.48-.56-2.28-.63a1.26,1.26,0,0,0-1.47,1.12c-.67,2.62-1.39,5.22-2.09,7.82q-1.47,5.52-3,11c-.29,1.1-.17,1.25,1,1.26h3.09c1.21,0,1.33-.11,1.65-1.3C130.42,86,130.88,84.27,131.36,82.51Zm-14.79-13.9c-.39-1-1.2-.85-1.94-.85-1.46,0-1.52,0-1.89,1.43-.3,1.13-.61,2.25-.91,3.38L107.75,87.8c-.27,1-.14,1.18.92,1.18s2.28,0,3.42,0a1.18,1.18,0,0,0,1.35-1c.37-1.51.79-3,1.2-4.51a6.1,6.1,0,0,1,.24-.71,36.09,36.09,0,0,0,4.3-.25,10.29,10.29,0,0,0,8.09-11c-.28-2.34-2.18-3.94-4.88-4.2A9.73,9.73,0,0,0,116.57,68.61ZM83.7,82.39h1.75c1.2,0,1.5-.46,1.12-1.59-.67-1.94-1.33-3.9-2-5.83a1,1,0,0,1,.51-1.46c1-.6,2-1.25,3.07-1.85a.9.9,0,0,0,.36-1.45c-.43-.65-.84-1.32-1.26-2s-.75-.84-1.55-.31c-1.41.94-2.8,1.91-4.23,2.83a3.87,3.87,0,0,1-1,.29A3.5,3.5,0,0,1,80.32,70c.67-2.61,1.38-5.21,2.07-7.82.25-.93.12-1.09-.85-1.09-1.17,0-2.34,0-3.51,0a1.17,1.17,0,0,0-1.31,1q-2.56,9.63-5.15,19.26c-.22.82-.07,1,.77,1,1.17,0,2.34,0,3.5,0a1.28,1.28,0,0,0,1.46-1.15,25.4,25.4,0,0,1,.87-3.13c.13-.34.61-.55.93-.82.23.27.56.51.66.82.38,1.17.69,2.35,1,3.53a.85.85,0,0,0,.94.75C82.36,82.38,83,82.39,83.7,82.39ZM33.7,69c-.17-1.47-1.33-1.27-2.42-1.23h-.59a1,1,0,0,0-1.12.88Q27.88,75,26.16,81.41c-.19.68.05.94.71,1,1.17,0,2.34,0,3.51,0a1.32,1.32,0,0,0,1.51-1.18c.68-2.67,1.41-5.33,2.14-8,.08-.28.24-.67.45-.73a18.22,18.22,0,0,1,3.06-.75c.84-.1,1.27.51,1.15,1.35a6.84,6.84,0,0,1-.19.81q-1,3.63-1.94,7.26c-.28,1.07-.17,1.21.95,1.22s2.12,0,3.18,0a1.34,1.34,0,0,0,1.53-1.17c.69-2.72,1.46-5.43,2.16-8.15a9.43,9.43,0,0,0,.3-2.3,3.09,3.09,0,0,0-2.77-3.32,7.59,7.59,0,0,0-2.81,0C37.32,67.83,35.6,68.45,33.7,69Zm20-1.8,0-.19-5.76,1.25a1,1,0,0,0-.87,1.28c.09.61.13,1.22.2,1.83.1,1,.27,1,1.25.83s1.79-.39,2.7-.5a1.43,1.43,0,0,1,1.56.72c.32.64.15.94-.56,1-.92,0-1.84,0-2.75.08-3.25.29-5.21,2.11-5.62,5.16a3.2,3.2,0,0,0,2.61,3.84,5.48,5.48,0,0,0,5-.95.91.91,0,0,1,1.53.21,1.48,1.48,0,0,0,.75.59c1.86.42,2.49,0,3-1.81.07-.27.15-.54.21-.8.66-2.59,1.42-5.16,1.93-7.77.47-2.41-.85-4.12-3.26-4.58C55,67.27,54.34,67.27,53.73,67.22ZM65.18,82.85a13.08,13.08,0,0,0,4.73-1.14,1.11,1.11,0,0,0,.72-1.34c-.12-.65-.22-1.31-.31-2s-.41-.77-1-.61a11.86,11.86,0,0,1-2.2.42,2.12,2.12,0,0,1-2.38-2.64,4.25,4.25,0,0,1,5.87-3.5c.52.21,1,.27,1.34-.23.6-.84,1.19-1.69,1.76-2.54a.7.7,0,0,0-.3-1.12,6.87,6.87,0,0,0-1.7-.68c-6.5-1.3-12.21,2.57-13,9.15a4.77,4.77,0,0,0,3.05,5.44A24.9,24.9,0,0,0,65.18,82.85Z"/><path d="M16.28,69.26a6.85,6.85,0,0,0,.72-.59c2-2.2,4.1-4.39,6.11-6.62a2,2,0,0,1,1.68-.73c1.39,0,2.78,0,4.17,0a3.29,3.29,0,0,1,.95.34,3,3,0,0,1-.42.93c-2.44,2.52-4.88,5-7.38,7.49a1.53,1.53,0,0,0-.42,1.9c1,2.9,2,5.83,3,8.75.41,1.19.13,1.57-1.15,1.57s-2.84,0-4.26,0a1.08,1.08,0,0,1-1.22-.85c-.82-2.36-1.68-4.72-2.54-7.07a3.61,3.61,0,0,0-.49-.71,2.9,2.9,0,0,0-.53.76q-.91,3.26-1.75,6.53a1.31,1.31,0,0,1-1.47,1.15c-1.36,0-2.72,0-4.09,0-.83,0-1-.24-.82-1,1.67-6.26,3.36-12.51,5-18.78a1.19,1.19,0,0,1,1.33-1c1.39,0,2.78,0,4.17,0,.88,0,1.05.23.83,1.08-.5,1.91-1,3.82-1.54,5.72-.08.31-.13.63-.19,1Z"/><path d="M103.45,61.86c.7,0,1.4,0,2.09,0s.83.24.9.83c.53,4.87,1.09,9.74,1.64,14.61.14,1.3.29,2.6.44,3.9s-.13,1.49-1.27,1.5-2.23,0-3.34,0c-.58,0-.87-.19-.91-.8,0-.89-.19-1.77-.23-2.66,0-.63-.27-.9-.91-.89-1.9,0-3.79,0-5.68,0A1.77,1.77,0,0,0,95,79c-.63.84-1.09,1.81-1.74,2.64a2,2,0,0,1-1.29.7,28.63,28.63,0,0,1-3.34,0c-.31,0-.81-.13-.86-.3a1.34,1.34,0,0,1,.23-1q5.53-8.5,11.12-17c1.82-2.76.86-2.21,4.21-2.28ZM98.21,73.94h4c-.19-1.75-.38-3.42-.57-5.09l-.22,0Z"/><path d="M131.36,82.51c-.48,1.76-.94,3.47-1.4,5.18-.32,1.19-.44,1.29-1.65,1.3h-3.09c-1.16,0-1.28-.16-1-1.26q1.47-5.52,3-11c.7-2.6,1.42-5.2,2.09-7.82a1.26,1.26,0,0,1,1.47-1.12c.8.07,1.68-.25,2.28.63,0,.08.51,0,.74-.16a9.44,9.44,0,0,1,4.59-1c3.94.21,5.86,2.5,5.3,6.4a10.1,10.1,0,0,1-11.08,9C132.21,82.65,131.85,82.58,131.36,82.51Zm6.33-8.86a6,6,0,0,0-.08-.78,1.7,1.7,0,0,0-1.75-1.37c-.69,0-1.5,0-1.74.79-.54,1.75-1,3.53-1.43,5.31a.87.87,0,0,0,.45.68,2.44,2.44,0,0,0,2.57-.49A6,6,0,0,0,137.69,73.65Z"/><path d="M116.57,68.61a9.73,9.73,0,0,1,5.82-1.34c2.7.26,4.6,1.86,4.88,4.2a10.29,10.29,0,0,1-8.09,11,36.09,36.09,0,0,1-4.3.25,6.1,6.1,0,0,0-.24.71c-.41,1.5-.83,3-1.2,4.51a1.18,1.18,0,0,1-1.35,1c-1.14,0-2.28,0-3.42,0s-1.19-.16-.92-1.18l4.08-15.23c.3-1.13.61-2.25.91-3.38.37-1.38.43-1.43,1.89-1.43C115.37,67.76,116.18,67.56,116.57,68.61ZM116.09,78a2.62,2.62,0,0,0,3-.15A4.73,4.73,0,0,0,121,75a6.74,6.74,0,0,0,.11-2.28,1.56,1.56,0,0,0-1.8-1.18c-.64,0-1.41,0-1.65.84C117.09,74.21,116.61,76.09,116.09,78Z"/><path d="M83.7,82.39c-.67,0-1.34,0-2,0a.85.85,0,0,1-.94-.75c-.31-1.18-.62-2.36-1-3.53-.1-.31-.43-.55-.66-.82-.32.27-.8.48-.93.82a25.4,25.4,0,0,0-.87,3.13,1.28,1.28,0,0,1-1.46,1.15c-1.16,0-2.33,0-3.5,0-.84,0-1-.23-.77-1q2.57-9.63,5.15-19.26a1.17,1.17,0,0,1,1.31-1c1.17,0,2.34,0,3.51,0,1,0,1.1.16.85,1.09C81.7,64.79,81,67.39,80.32,70a3.5,3.5,0,0,0,.08,1.06,3.87,3.87,0,0,0,1-.29c1.43-.92,2.82-1.89,4.23-2.83.8-.53,1-.48,1.55.31s.83,1.32,1.26,2a.9.9,0,0,1-.36,1.45c-1,.6-2,1.25-3.07,1.85A1,1,0,0,0,84.55,75c.69,1.93,1.35,3.89,2,5.83.38,1.13.08,1.55-1.12,1.59H83.7Z"/><path d="M33.7,69c1.9-.57,3.62-1.19,5.4-1.6a7.59,7.59,0,0,1,2.81,0,3.09,3.09,0,0,1,2.77,3.32,9.43,9.43,0,0,1-.3,2.3c-.7,2.72-1.47,5.43-2.16,8.15a1.34,1.34,0,0,1-1.53,1.17c-1.06,0-2.12,0-3.18,0s-1.23-.15-.95-1.22q1-3.63,1.94-7.26a6.84,6.84,0,0,0,.19-.81c.12-.84-.31-1.45-1.15-1.35a18.22,18.22,0,0,0-3.06.75c-.21.06-.37.45-.45.73-.73,2.65-1.46,5.31-2.14,8a1.32,1.32,0,0,1-1.51,1.18c-1.17,0-2.34,0-3.51,0-.66,0-.9-.27-.71-1q1.72-6.36,3.41-12.74a1,1,0,0,1,1.12-.88h.59C32.37,67.75,33.53,67.55,33.7,69Z"/><path d="M53.73,67.22c.61,0,1.23,0,1.83.16,2.41.46,3.73,2.17,3.26,4.58-.51,2.61-1.27,5.18-1.93,7.77-.06.26-.14.53-.21.8-.5,1.83-1.13,2.23-3,1.81a1.48,1.48,0,0,1-.75-.59.91.91,0,0,0-1.53-.21,5.48,5.48,0,0,1-5,.95,3.2,3.2,0,0,1-2.61-3.84c.41-3.05,2.37-4.87,5.62-5.16.91-.08,1.83,0,2.75-.08.71,0,.88-.33.56-1a1.43,1.43,0,0,0-1.56-.72c-.91.11-1.81.31-2.7.5s-1.15.13-1.25-.83c-.07-.61-.11-1.22-.2-1.83a1,1,0,0,1,.87-1.28L53.68,67ZM52,76.46c-.66,0-1.27,0-1.86,0a1.44,1.44,0,0,0-1.3,1.14.7.7,0,0,0,.64,1A2.24,2.24,0,0,0,52,76.46Z"/><path d="M65.18,82.85a24.9,24.9,0,0,1-3.47-.76,4.77,4.77,0,0,1-3.05-5.44c.84-6.58,6.55-10.45,13-9.15a6.87,6.87,0,0,1,1.7.68.7.7,0,0,1,.3,1.12c-.57.85-1.16,1.7-1.76,2.54-.36.5-.82.44-1.34.23a4.25,4.25,0,0,0-5.87,3.5,2.12,2.12,0,0,0,2.38,2.64,11.86,11.86,0,0,0,2.2-.42c.59-.16.91,0,1,.61s.19,1.32.31,2a1.11,1.11,0,0,1-.72,1.34A13.08,13.08,0,0,1,65.18,82.85Z"/><path class="cls-1" d="M98.21,73.94l3.22-5.11.22,0c.19,1.67.38,3.34.57,5.09Z"/><path class="cls-1" d="M137.69,73.65a6,6,0,0,1-2,4.14,2.44,2.44,0,0,1-2.57.49.87.87,0,0,1-.45-.68c.43-1.78.89-3.56,1.43-5.31.24-.81,1-.8,1.74-.79a1.7,1.7,0,0,1,1.75,1.37A6,6,0,0,1,137.69,73.65Z"/><path class="cls-1" d="M116.09,78c.52-1.94,1-3.82,1.53-5.69.24-.82,1-.81,1.65-.84a1.56,1.56,0,0,1,1.8,1.18A6.74,6.74,0,0,1,121,75a4.73,4.73,0,0,1-1.82,2.92A2.62,2.62,0,0,1,116.09,78Z"/><path class="cls-1" d="M52,76.46a2.24,2.24,0,0,1-2.52,2.11.7.7,0,0,1-.64-1,1.44,1.44,0,0,1,1.3-1.14C50.68,76.41,51.29,76.46,52,76.46Z"/></svg>