<svg id="Layer_1" data-name="Layer 1" xmlns="http://www.w3.org/2000/svg" viewBox="0 0 1072 490.15"><defs><style>.cls-1{fill:#0071bc;}.cls-2{fill:#fff;}.cls-3{fill:#338dc9;}</style></defs><path class="cls-1" d="M470.71,385.36h-4.33V371.9c0-3.14,0-6.91.08-9.81-.8,2.9-1.95,6.67-3,9.77l-4.41,13.5H454l-4.44-13.54c-1-3.06-2.15-6.79-2.9-9.69.08,2.94.08,6.63.08,9.77v13.46h-4.37V358h7l7.23,23.51L463.87,358h6.84Z"/><path class="cls-1" d="M502,382.31l-1.07,2.26a9.11,9.11,0,0,1-5.25,1.35c-3.73,0-6.79-2.15-6.79-6.08,0-4.68,3.74-7.23,11.72-7.23h1.35v-.51a22.29,22.29,0,0,0-.08-2.31c-.12-1.7-1.19-2.9-3.69-2.9s-3.86,1.43-4.09,4.06h-4.37c.27-4.61,3.73-7.23,8.54-7.23,5.44,0,7.58,2.3,7.94,5.88.08.87.12,2,.12,3V380a37.4,37.4,0,0,0,.39,5.36h-4.32Zm0-4.85v-1.95c-5.12-.39-8.46.76-8.46,4,0,2.22,1.47,3.25,3.77,3.25C500,382.74,501.92,380.87,501.92,377.46Z"/><path class="cls-1" d="M530.11,378.77v6.59h-4.36V356.17h4.36v18.27l9.22-10.17h5.36l-9.61,9.89,9.73,11.2h-5.68L532,376.7Z"/><path class="cls-1" d="M579,376H563.87c.36,5,2.66,6.71,5.52,6.71a4.81,4.81,0,0,0,5-4.21h4.41c-.92,5-4.93,7.39-9.54,7.39-5.64,0-9.89-3.58-9.89-11,0-6.68,4.25-11.16,10.33-11.16s9.41,4.6,9.41,10.56A15.65,15.65,0,0,1,579,376ZM563.91,373H574.6c-.32-3.89-2-6.08-5.09-6.08S564.39,368.92,563.91,373Z"/><path class="cls-1" d="M624,359.43a2.57,2.57,0,0,1-5.13,0,2.47,2.47,0,0,1,2.55-2.51A2.49,2.49,0,0,1,624,359.43Zm-4.77,25.93V364.27h4.37v21.09Z"/><path class="cls-1" d="M648.3,378.53c0,.72,0,1.19,0,1.75.16,2.06,1,2.5,3.82,2.22v3a22.33,22.33,0,0,1-3.22.24c-3.3,0-4.73-1.23-4.93-4,0-.72,0-1.63,0-2.82V367.49h-3v-3.06h3v-5h4.33v5h4.13v3.06H648.3Z"/><path class="cls-1" d="M711.13,373.49v11.87h-4.37V374c0-1,0-1.9-.08-3-.2-2.39-1.47-4.1-4.45-4.06s-5.48,2.39-5.48,9v9.45h-4.37V356h4.37v11.8l1.43-2.42a7.9,7.9,0,0,1,5.32-1.63c4.53,0,7.11,2.34,7.51,6C711.09,370.83,711.13,371.78,711.13,373.49Z"/><path class="cls-1" d="M742.11,382.31,741,384.57a9.08,9.08,0,0,1-5.24,1.35c-3.73,0-6.79-2.15-6.79-6.08,0-4.68,3.73-7.23,11.72-7.23h1.35v-.51a22.29,22.29,0,0,0-.08-2.31c-.12-1.7-1.19-2.9-3.7-2.9s-3.85,1.43-4.09,4.06h-4.37c.28-4.61,3.74-7.23,8.54-7.23,5.44,0,7.59,2.3,8,5.88.08.87.12,2,.12,3V380a37.4,37.4,0,0,0,.39,5.36H742.5Zm0-4.85v-1.95c-5.13-.39-8.46.76-8.46,4,0,2.22,1.47,3.25,3.77,3.25C740.12,382.74,742.07,380.87,742.07,377.46Z"/><path class="cls-1" d="M786.87,374.44c0,7.75-4.77,11.48-10.21,11.48a9.34,9.34,0,0,1-5-1.31l-1.39-2.11v10.65h-4.37V364.27h4.37v3.3l1.59-2.26a9.16,9.16,0,0,1,5.52-1.59C783.41,363.72,786.87,368.28,786.87,374.44Zm-4.61.4c0-4.57-2.11-7.95-5.92-7.95-3.26,0-6.08,2.07-6.08,7.71v1.07c0,5.17,3.1,7.07,5.88,7.07C779.64,382.74,782.26,380.08,782.26,374.84Z"/><path class="cls-1" d="M825.63,374.44c0,7.75-4.77,11.48-10.21,11.48a9.34,9.34,0,0,1-5-1.31L809,382.5v10.65h-4.37V364.27H809v3.3l1.59-2.26a9.16,9.16,0,0,1,5.52-1.59C822.17,363.72,825.63,368.28,825.63,374.44Zm-4.61.4c0-4.57-2.11-7.95-5.92-7.95-3.26,0-6.08,2.07-6.08,7.71v1.07c0,5.17,3.1,7.07,5.88,7.07C818.4,382.74,821,380.08,821,374.84Z"/><path class="cls-1" d="M861.49,376H846.35c.36,5,2.67,6.71,5.52,6.71a4.8,4.8,0,0,0,5-4.21h4.41c-.91,5-4.93,7.39-9.53,7.39-5.64,0-9.89-3.58-9.89-11,0-6.68,4.25-11.16,10.32-11.16s9.42,4.6,9.42,10.56A15.65,15.65,0,0,1,861.49,376ZM846.39,373h10.69c-.32-3.89-2-6.08-5.09-6.08S846.87,368.92,846.39,373Z"/><path class="cls-1" d="M898.38,373.49v11.87H894V374c0-1,0-1.9-.08-3-.2-2.39-1.47-4.06-4.45-4.06s-5.48,2.39-5.48,9v9.45h-4.37V364.27H884v3.5l1.43-2.42a7.9,7.9,0,0,1,5.32-1.63c4.53,0,7.11,2.34,7.51,6C898.34,370.83,898.38,371.78,898.38,373.49Z"/><path class="cls-2" d="M433.88,230.46H366.47V118.05H431.3v20.62H391.79v25h36.76v20.54H391.79v25.71h42.09Z"/><path class="cls-2" d="M577,230.46h-24.7V184.68q0-17.48-12.85-17.48a11.81,11.81,0,0,0-10,5.25,21.59,21.59,0,0,0-3.84,13.09v44.92H500.83V184.21q0-17-12.62-17a12.08,12.08,0,0,0-10.15,5q-3.81,5-3.81,13.64v44.6H449.48V150.19h24.77v12.54h.32a30.44,30.44,0,0,1,25.95-14.5q17,0,23.28,15,9.16-15,27-15,26.19,0,26.19,32.3Z"/><path class="cls-2" d="M621.63,221.13h-.32v9.33H596.54V111.62h24.77v50.64h.32q9.17-14,26.1-14,15.53,0,23.91,10.66T680,188.05q0,20.07-9.8,32.22t-26.18,12.15Q629.23,232.42,621.63,221.13Zm-.71-33.86v8.23a18.81,18.81,0,0,0,4.47,12.86,14.55,14.55,0,0,0,11.45,5.09A15.2,15.2,0,0,0,650,206.91q4.66-6.56,4.66-18.54,0-10-4.27-15.57t-12.19-5.6a15.76,15.76,0,0,0-12.35,5.57Q620.93,178.33,620.92,187.27Z"/><path class="cls-2" d="M748.46,172.53A21.47,21.47,0,0,0,738,170.1q-8.09,0-12.62,5.92t-4.55,16.11v38.33H696.1V150.19h24.77v14.89h.31q5.88-16.31,21.17-16.3a15.87,15.87,0,0,1,6.11.94Z"/><path class="cls-2" d="M826.78,230.46H803.34V218.94H803q-8.07,13.49-23.91,13.48-11.67,0-18.38-6.62T754,208.12q0-23.35,27.67-27l21.79-2.9q0-13.17-14.26-13.17A48.65,48.65,0,0,0,762,173.63V155a61.69,61.69,0,0,1,14.15-4.7,74.27,74.27,0,0,1,16.34-2q34.34,0,34.34,34.26Zm-23.29-32.61v-5.41l-14.58,1.88q-12.07,1.58-12.07,10.9a9,9,0,0,0,2.94,6.94,11.31,11.31,0,0,0,8,2.7A14.66,14.66,0,0,0,799.1,210,17.4,17.4,0,0,0,803.49,197.85Z"/><path class="cls-2" d="M907.2,227.56q-8.38,4.86-24.22,4.86-18.5,0-29.94-11.21t-11.45-28.92q0-20.46,12.27-32.26t32.81-11.8q14.18,0,20.53,3.76v21a28.19,28.19,0,0,0-17.32-5.8q-10.67,0-16.89,6.23t-6.23,17.21q0,10.67,6,16.73t16.39,6.08a32.65,32.65,0,0,0,18.1-5.8Z"/><path class="cls-2" d="M995.55,197.38H943.19q1.24,17.49,22,17.48a43,43,0,0,0,23.29-6.27v17.87q-11.14,6-28.93,6-19.44,0-30.18-10.78t-10.74-30.06q0-20,11.6-31.67t28.54-11.68q17.55,0,27.16,10.43t9.6,28.29Zm-23-15.21q0-17.23-14-17.24a13.3,13.3,0,0,0-10.31,4.94,22.41,22.41,0,0,0-5.29,12.3Z"/><path class="cls-2" d="M423.52,261H402.85v59.18H386.48V261H365.91V247.67h57.61Z"/><path class="cls-2" d="M468.91,298.82H435.15q.81,11.26,14.2,11.26a27.71,27.71,0,0,0,15-4v11.52q-7.19,3.84-18.65,3.85-12.54,0-19.46-7t-6.92-19.38q0-12.9,7.48-20.42a24.91,24.91,0,0,1,18.39-7.53q11.32,0,17.52,6.72t6.19,18.24ZM454.1,289q0-11.11-9-11.12a8.56,8.56,0,0,0-6.64,3.19,14.39,14.39,0,0,0-3.41,7.93Z"/><path class="cls-2" d="M517.62,318.27q-5.4,3.14-15.61,3.14-11.92,0-19.31-7.23t-7.38-18.65q0-13.18,7.91-20.8t21.15-7.6q9.15,0,13.24,2.42V283.1a18.22,18.22,0,0,0-11.17-3.74q-6.87,0-10.89,4t-4,11.09q0,6.87,3.84,10.79T506,309.18a21.11,21.11,0,0,0,11.67-3.74Z"/><path class="cls-2" d="M577.76,320.14H561.84V290.73q0-11.37-8.28-11.37a8.5,8.5,0,0,0-6.88,3.18,12.29,12.29,0,0,0-2.63,8.09v29.51h-16V243.53h16v32.54h.21q5.85-8.94,15.92-8.94,17.58,0,17.58,21.22Z"/><path class="cls-2" d="M640.38,320.14H624.46V291.39q0-12-8.59-12a8.54,8.54,0,0,0-6.83,3.18,12.16,12.16,0,0,0-2.67,8.09v29.51h-16V268.39h16v8.19h.2q5.7-9.45,16.62-9.45,17.19,0,17.19,21.32Z"/><path class="cls-2" d="M677.67,321.41q-12.93,0-20.34-7.26t-7.4-19.68q0-12.84,7.68-20.09t20.77-7.25q12.89,0,20.22,7.25t7.32,19.18q0,12.88-7.55,20.37T677.67,321.41Zm.41-42.05a10.67,10.67,0,0,0-8.8,3.89q-3.13,3.88-3.13,11,0,14.91,12,14.91,11.48,0,11.47-15.32Q689.65,279.36,678.08,279.36Z"/><path class="cls-2" d="M732.25,320.14h-16V243.53h16Z"/><path class="cls-2" d="M770.36,321.41q-12.95,0-20.34-7.26t-7.41-19.68q0-12.84,7.68-20.09t20.77-7.25q12.9,0,20.22,7.25t7.33,19.18q0,12.88-7.56,20.37T770.36,321.41Zm.4-42.05a10.66,10.66,0,0,0-8.79,3.89q-3.13,3.88-3.13,11,0,14.91,12,14.91,11.48,0,11.47-15.32Q782.33,279.36,770.76,279.36Z"/><path class="cls-2" d="M859.71,314.23q0,14.4-8.34,22.31t-24.16,7.91q-10.46,0-16.57-3V328a31.79,31.79,0,0,0,16.12,4.64q8.09,0,12.53-4.27t4.45-11.59v-4.1h-.21q-5.44,8.7-16.12,8.7-9.9,0-15.71-7t-5.81-18.7q0-13.14,6.46-20.87a21.15,21.15,0,0,1,17-7.73q9.43,0,14.14,7.28h.21v-6h16Zm-15.77-19v-4.1a12.58,12.58,0,0,0-2.91-8.36,9.37,9.37,0,0,0-7.55-3.46,9.77,9.77,0,0,0-8.34,4.14q-3,4.15-3,11.68,0,6.46,2.88,10.23a9.39,9.39,0,0,0,7.88,3.77,9.79,9.79,0,0,0,8-3.82Q843.94,301.55,843.94,295.28Z"/><path class="cls-2" d="M881.13,260.2a9.3,9.3,0,0,1-6.62-2.4,7.75,7.75,0,0,1-2.57-5.88,7.5,7.5,0,0,1,2.57-5.87,10.83,10.83,0,0,1,13.27,0,7.52,7.52,0,0,1,2.55,5.87,7.71,7.71,0,0,1-2.55,6A9.49,9.49,0,0,1,881.13,260.2ZM889,320.14h-16V268.39h16Z"/><path class="cls-2" d="M949,298.82H915.2q.79,11.26,14.2,11.26a27.71,27.71,0,0,0,15-4v11.52q-7.18,3.84-18.65,3.85-12.54,0-19.46-7t-6.92-19.38q0-12.9,7.48-20.42a24.91,24.91,0,0,1,18.39-7.53q11.32,0,17.51,6.72T949,292.09ZM934.15,289q0-11.11-9-11.12a8.56,8.56,0,0,0-6.64,3.19,14.47,14.47,0,0,0-3.42,7.93Z"/><path class="cls-2" d="M955.07,318.78V305.84a34.45,34.45,0,0,0,7.86,3.54,26.22,26.22,0,0,0,7.4,1.16,16,16,0,0,0,6.7-1.16,3.77,3.77,0,0,0,2.45-3.54,3.29,3.29,0,0,0-1.11-2.53,10.59,10.59,0,0,0-2.86-1.77,32.44,32.44,0,0,0-3.81-1.36c-1.39-.4-2.72-.86-4-1.36a38.41,38.41,0,0,1-5.43-2.51,15.51,15.51,0,0,1-3.94-3.1,12.35,12.35,0,0,1-2.43-4.1,16.47,16.47,0,0,1-.83-5.51,14.23,14.23,0,0,1,1.89-7.48A15.69,15.69,0,0,1,962,271a23.2,23.2,0,0,1,7.22-2.93,38,38,0,0,1,8.47-.93,47.35,47.35,0,0,1,7,.53,52.05,52.05,0,0,1,7,1.54v12.33a25.17,25.17,0,0,0-6.5-2.65,27.31,27.31,0,0,0-6.79-.89,15.49,15.49,0,0,0-3,.28,10.06,10.06,0,0,0-2.45.81,4.47,4.47,0,0,0-1.67,1.37,3.14,3.14,0,0,0-.61,1.89,3.52,3.52,0,0,0,.92,2.43,7.84,7.84,0,0,0,2.37,1.74,22.36,22.36,0,0,0,3.26,1.31c1.2.39,2.38.79,3.56,1.19a44.56,44.56,0,0,1,5.76,2.43,18.25,18.25,0,0,1,4.43,3.08,12.17,12.17,0,0,1,2.83,4.14,16.65,16.65,0,0,1-1,13.52,16.14,16.14,0,0,1-5.31,5.31,24.12,24.12,0,0,1-7.63,3,42.51,42.51,0,0,1-9,.94A46.27,46.27,0,0,1,955.07,318.78Z"/><path class="cls-1" d="M160.57,207.27l22.31,7.5a14.34,14.34,0,0,1-22.31-7.5Z"/><path class="cls-1" d="M248.87,249.52l0,38.66,0,112.54c0,11.5-8.34,16.8-20.16,12.82L92.72,367.81c-6.58-2.22-12.9-10.48-12.89-16.88V330.85l0-131.12c0-11.5,8.35-16.8,20.17-12.82l49.39,16.62a24.88,24.88,0,0,0,44.54,15l42,14.13C242.56,234.85,248.87,243.12,248.87,249.52Z"/><path class="cls-3" d="M174.35,188.87a14.36,14.36,0,1,1-13.78,18.4,14.19,14.19,0,0,1-.58-4A14.37,14.37,0,0,1,174.35,188.87Z"/><path class="cls-3" d="M174.35,178.32a24.94,24.94,0,0,0-24.91,24.91c0,.1,0,.2,0,.3a24.91,24.91,0,0,0,49.81-.3c0-.22,0-.44,0-.66l91.81-28.21v79c0,12.79-10.48,25-25.33,29.59l-16.87,5.18L94.92,335.47c-6.4,2-12.6-.23-15.08-4.62a8.8,8.8,0,0,1-1.12-4.35V158.23c0-12.78,10.48-25,25.33-29.59l170.8-52.47c8.26-2.53,16.2,1.86,16.2,9v78.18l-94.32,29A24.92,24.92,0,0,0,174.35,178.32Z"/></svg>