<svg id="Layer_1" data-name="Layer 1" xmlns="http://www.w3.org/2000/svg" viewBox="0 0 1072 490.15" width="1072" ><defs><style>.cls-1{font-size:39.71px;font-family:Aileron-SemiBold, Aileron;}.cls-1,.cls-4{fill:#0071bc;}.cls-1,.cls-2,.cls-3{font-weight:700;}.cls-2{font-size:160.54px;}.cls-2,.cls-3{fill:#fff;font-family:SegoeUI-Bold, Segoe UI;}.cls-3{font-size:103.5px;}.cls-5{fill:#338dc9;}</style></defs><title>Embrace technology logo</title><text class="cls-1" transform="translate(438.61 385.36)">Make it happen</text><text class="cls-2" transform="translate(353.61 230.46)">Embrace</text><text class="cls-3" transform="translate(364.35 320.14)">Technologies</text><path class="cls-4" d="M160.57,207.27l22.31,7.5a14.34,14.34,0,0,1-22.31-7.5Z"/><path class="cls-4" d="M248.87,249.52l0,38.66,0,112.54c0,11.5-8.34,16.8-20.16,12.82L92.72,367.81c-6.58-2.22-12.9-10.48-12.89-16.88V330.85l0-131.12c0-11.5,8.35-16.8,20.17-12.82l49.39,16.62a24.88,24.88,0,0,0,44.54,15l42,14.13C242.56,234.85,248.87,243.12,248.87,249.52Z"/><path class="cls-5" d="M174.35,188.87a14.36,14.36,0,1,1-13.78,18.4,14.19,14.19,0,0,1-.58-4A14.37,14.37,0,0,1,174.35,188.87Z"/><path class="cls-5" d="M174.35,178.32a24.94,24.94,0,0,0-24.91,24.91c0,.1,0,.2,0,.3a24.91,24.91,0,0,0,49.81-.3c0-.22,0-.44,0-.66l91.81-28.21v79c0,12.79-10.48,25-25.33,29.59l-16.87,5.18L94.92,335.47c-6.4,2-12.6-.23-15.08-4.62a8.8,8.8,0,0,1-1.12-4.35V158.23c0-12.78,10.48-25,25.33-29.59l170.8-52.47c8.26-2.53,16.2,1.86,16.2,9v78.18l-94.32,29A24.92,24.92,0,0,0,174.35,178.32Z"/></svg>