<?xml version="1.0" standalone="no"?>
<!DOCTYPE svg PUBLIC "-//W3C//DTD SVG 20010904//EN"
 "http://www.w3.org/TR/2001/REC-SVG-20010904/DTD/svg10.dtd">
<svg version="1.0" xmlns="http://www.w3.org/2000/svg"
 width="2057.000000pt" height="2057.000000pt" viewBox="0 0 2057.000000 2057.000000"
 preserveAspectRatio="xMidYMid meet">
<metadata>
Created by potrace 1.14, written by Peter Selinger 2001-2017
</metadata>
<g transform="translate(0.000000,2057.000000) scale(0.100000,-0.100000)"
fill="#000000" stroke="none">
<path d="M14370 17870 c-41 -10 -163 -45 -270 -78 -107 -33 -285 -88 -395
-122 -110 -33 -258 -79 -330 -101 -203 -63 -275 -85 -340 -104 -33 -10 -107
-33 -165 -51 -207 -65 -1025 -316 -1043 -319 -9 -2 -22 -7 -28 -11 -6 -4 -25
-10 -43 -14 -41 -11 -149 -44 -851 -260 -324 -100 -610 -188 -635 -195 -49
-14 -405 -123 -510 -156 -60 -19 -452 -140 -905 -279 -508 -156 -699 -215
-925 -285 -135 -42 -252 -77 -260 -79 -8 -2 -127 -39 -265 -81 -379 -117 -496
-153 -659 -202 -82 -25 -156 -49 -165 -53 -9 -5 -58 -25 -108 -45 -302 -122
-595 -369 -759 -640 -91 -149 -127 -241 -171 -435 -4 -19 -8 -1776 -10 -3905
l-2 -3870 22 -60 c20 -58 21 -81 27 -570 l6 -510 27 -74 c88 -243 296 -471
506 -556 33 -14 302 -106 598 -205 296 -100 644 -217 773 -260 129 -44 611
-206 1070 -360 459 -155 921 -310 1025 -345 105 -35 451 -152 770 -259 319
-107 855 -288 1190 -401 336 -113 615 -207 620 -209 6 -1 48 -14 95 -28 145
-44 191 -52 310 -52 176 1 301 46 402 147 85 84 124 161 157 309 16 72 18 250
19 2639 0 1409 4 2565 9 2569 4 5 166 56 358 115 471 144 511 158 650 225 457
220 771 597 857 1030 10 52 13 436 13 1895 0 1824 0 1830 -20 1827 -11 -2 -77
-21 -147 -43 -71 -21 -186 -57 -258 -79 -71 -22 -187 -58 -257 -79 -361 -112
-789 -243 -798 -245 -5 -1 -26 -7 -45 -13 -40 -13 -241 -75 -415 -128 -66 -20
-154 -47 -195 -60 -41 -13 -129 -40 -195 -60 -66 -20 -131 -40 -145 -45 -14
-5 -79 -25 -145 -45 -66 -20 -178 -55 -250 -77 -71 -21 -182 -55 -245 -74 -63
-20 -133 -41 -155 -49 -22 -7 -80 -25 -130 -40 -49 -15 -182 -55 -295 -90
-113 -34 -252 -77 -310 -95 l-105 -32 -1 -67 c-1 -62 -4 -89 -19 -185 -4 -21
-18 -73 -31 -115 -146 -448 -568 -765 -1030 -774 -78 -1 -231 10 -244 18 -4 2
-21 7 -39 10 -161 28 -382 150 -524 289 -155 151 -255 330 -308 551 -23 94
-32 318 -17 415 18 115 50 210 110 330 128 252 343 443 609 541 46 17 93 33
104 35 11 2 54 10 95 18 83 16 273 19 347 5 26 -5 60 -12 74 -14 111 -20 294
-102 407 -182 125 -88 295 -281 331 -376 13 -34 30 -41 73 -29 36 11 157 48
553 170 143 44 283 87 310 95 28 9 147 45 265 82 118 37 384 118 590 181 206
63 402 124 435 134 33 11 121 38 195 61 74 22 178 54 230 71 52 16 111 34 130
40 19 5 152 46 295 90 143 44 283 87 310 95 28 8 114 35 193 59 78 25 150 47
160 49 9 2 105 31 212 65 107 33 218 67 246 76 l51 15 -2 1797 c0 988 -5 1806
-9 1817 -38 89 -56 117 -110 171 -100 100 -213 145 -376 149 -63 2 -120 -3
-170 -15z"/>
<path d="M9685 12799 c-16 -5 -41 -11 -55 -14 -14 -2 -63 -23 -110 -46 -117
-58 -221 -162 -279 -279 -23 -47 -43 -94 -45 -105 -3 -11 -9 -40 -15 -65 -15
-64 -13 -183 4 -265 49 -231 237 -425 470 -485 74 -19 210 -21 290 -4 250 52
458 267 503 519 13 77 5 221 -17 292 -63 203 -220 366 -421 433 -72 25 -269
36 -325 19z"/>
</g>
</svg>
