<svg id="Capa_1" enable-background="new 0 0 512 512" height="512" viewBox="0 0 512 512" width="512" xmlns="http://www.w3.org/2000/svg"><g><g><g clip-rule="evenodd" fill-rule="evenodd"><path d="m7.5 147.84v196.655h151.655v-22.5c0-12.375-10.125-22.5-22.5-22.5h-84.155v-129.155c0-12.375-10.125-22.5-22.5-22.5z" fill="#f492a7"/><path d="m375.345 299.494c-12.375 0-22.5 10.125-22.5 22.5v22.5h151.655v-196.654h-22.5c-12.375 0-22.5 10.125-22.5 22.5v129.154z" fill="#f492a7"/><path d="m233.5 269.495v164.009c0 12.375-10.125 22.5-22.5 22.5h90c-12.375 0-22.5-10.125-22.5-22.5v-164.009c0-12.375 10.125-22.5 22.5-22.5h-90c12.375 0 22.5 10.125 22.5 22.5z" fill="#ffcf7b"/><path d="m97.499 201.995v45h317.001v-45c-105.667 0-211.334 0-317.001 0z" fill="#ffcf7b"/><path d="m154.484 171.995v30h202v-30c-67.333 0-134.666 0-202 0z" fill="#e0dfde"/><path d="m255.484 85.995c-47.497 0-86 38.504-86 86h172c0-47.496-38.503-86-86-86z" fill="#e0dfde"/><path d="m7.5 147.84h22.5v196.655h-22.5z" fill="#f05d7a"/><path d="m233.5 269.495v164.009c0 12.375-10.125 22.5-22.5 22.5h22.5c12.375 0 22.5-10.125 22.5-22.5v-164.009c0-12.375-10.125-22.5-22.5-22.5h-22.5c12.375 0 22.5 10.125 22.5 22.5z" fill="#ffaf02"/><path d="m375.345 299.494c-12.375 0-22.5 10.125-22.5 22.5v22.5h22.5v-22.5c0-12.375 10.125-22.5 22.5-22.5zm129.155-151.654h-22.5c-12.375 0-22.5 10.125-22.5 22.5v129.154h22.5v-129.154c0-12.375 10.124-22.5 22.5-22.5z" fill="#f05d7a"/><path d="m97.499 201.995h22.5v45h-22.5z" fill="#dfbd84"/><path d="m154.484 171.995h22.5v30h-22.5z" fill="#bfbec1"/><path d="m255.484 85.995c-47.497 0-86 38.504-86 86h22.5c0-43.683 32.57-79.756 74.75-85.268-3.682-.48-7.436-.732-11.25-.732z" fill="#bfbec1"/></g><g><path d="m296.454 146.018c-7.718-12.146-20.285-20.199-34.479-22.093l1.984-14.868c18.596 2.481 35.054 13.021 45.154 28.916zm-60.945-18.236-6.184-13.666c5.614-2.54 11.563-4.242 17.684-5.059l1.984 14.868c-4.668.623-9.205 1.921-13.484 3.857z" fill="#fff"/></g></g><g><path d="m345.345 463.504h15v-44.011h136.655v44.011h15v-126.51h-166.655zm151.655-111.51v52.5h-136.655v-52.5z"/><path d="m345.345 321.995h15c0-8.271 6.729-15 15-15h106.655v-15h-15v-82.499h-15v82.499h-76.655c-16.542-.001-30 13.457-30 30z"/><path d="m482 140.339c-16.542 0-30 13.458-30 30v24.155h15v-24.154c0-8.271 6.729-15 15-15h15v166.655h15v-181.656z"/><path d="m15 155.339h15c8.271 0 15 6.729 15 15v24.155h15v-24.154c0-16.542-13.458-30-30-30h-30v181.655h15z"/><path d="m136.655 291.994h-76.655v-82.499h-15v82.499h-15v15h106.655c8.271 0 15 6.729 15 15h15c0-16.542-13.458-30-30-30z"/><path d="m0 463.504h15v-44.011h136.655v44.011h15v-126.51h-166.655zm151.655-111.51v52.5h-136.655v-52.5z"/><path d="m286 433.504v-164.009c0-8.271 6.729-15 15-15h121v-60h-158.5v15h143.5v30h-302.001v-30h143.501v-15h-158.501v60h121.001c8.271 0 15 6.729 15 15v164.009c0 8.271-6.729 15-15 15h-30v15h30 90 30v-15h-30c-8.271 0-15-6.729-15-15zm-49.036-179.009h38.072c-2.561 4.416-4.036 9.538-4.036 15v164.009c0 5.462 1.475 10.584 4.036 15h-38.072c2.561-4.416 4.036-9.538 4.036-15v-164.009c0-5.462-1.475-10.584-4.036-15z"/><path d="m371.483 164.496h-22.8c-3.636-45.588-40.111-82.064-85.699-85.699v-15.301h15v-15h-45v15h15v15.302c-23.975 1.934-46.438 13.079-62.521 31.243l11.23 9.943c14.905-16.834 36.333-26.489 58.79-26.489 40.755 0 74.344 31.221 78.133 71h-156.267c1.133-11.877 4.941-23.339 11.195-33.519l-12.781-7.852c-7.705 12.543-12.294 26.715-13.467 41.371h-22.812v15h231.999z"/></g></g></svg>